SplineFontDB: 3.0
FontName: HussarBd
FullName: Hussar Bold
FamilyName: Hussar
Weight: Bold
Copyright: (c) 2014-2015, Robert Jablonski/Cannot Into Space Fonts, all rights reserved. Design Improvements (c) 2015, "Crazy Dave"@ PlusOne Fonts, Mew Too/Cannot Into Space Fonts, Robert Jablonski/Cannot Into Space Fonts, Jasper@Cannot Into Space Fonts, All Rights Reserved.
Version: 2.27
ItalicAngle: 0
UnderlinePosition: -50
UnderlineWidth: 50
Ascent: 750
Descent: 250
InvalidEm: 0
sfntRevision: 0x0002451f
LayerCount: 2
Layer: 0 0 "Back" 1
Layer: 1 0 "Fore" 0
XUID: [1021 604 120746000 9796]
StyleMap: 0x0000
FSType: 0
OS2Version: 3
OS2_WeightWidthSlopeOnly: 0
OS2_UseTypoMetrics: 0
CreationTime: 1411326290
ModificationTime: 1438986768
PfmFamily: 81
TTFWeight: 700
TTFWidth: 5
LineGap: 0
VLineGap: 0
Panose: 0 0 8 0 0 0 0 0 0 0
OS2TypoAscent: 750
OS2TypoAOffset: 0
OS2TypoDescent: -250
OS2TypoDOffset: 0
OS2TypoLinegap: 0
OS2WinAscent: 900
OS2WinAOffset: 0
OS2WinDescent: 350
OS2WinDOffset: 0
HheadAscent: 900
HheadAOffset: 0
HheadDescent: -350
HheadDOffset: 0
OS2SubXSize: 650
OS2SubYSize: 600
OS2SubXOff: 0
OS2SubYOff: 75
OS2SupXSize: 650
OS2SupYSize: 600
OS2SupXOff: 0
OS2SupYOff: 350
OS2StrikeYSize: 50
OS2StrikeYPos: 307
OS2CapHeight: 825
OS2XHeight: 513
OS2FamilyClass: 2051
OS2Vendor: 'CiSf'
OS2CodePages: 2000009f.00000000
OS2UnicodeRanges: a00006bf.5200c0ea.06008000.00000000
Lookup: 258 0 0 "'kern' Horizontal Kerning in Latin lookup 0" { "'kern' Horizontal Kerning in Latin lookup 0 subtable"  } ['kern' ('DFLT' <'dflt' > 'latn' <'dflt' > ) ]
Lookup: 258 0 0 "'kern' Horizontal Kerning in Latin lookup 1" { "'kern' Horizontal Kerning in Latin lookup 1 subtable"  } ['kern' ('DFLT' <'dflt' > 'latn' <'dflt' > ) ]
DEI: 91125
KernClass2: 21 24 "'kern' Horizontal Kerning in Latin lookup 1 subtable"
 73 a agrave aacute acircumflex atilde adieresis aring amacron abreve aogonek
 24 C Ccedilla Cacute Ccaron
 16 T Tcaron uni021A

StartChar: .notdef
Encoding: 65536 -1 0
Width: 522
Flags: W
HStem: 0 50<110 410> 450 50<110 410>
VStem: 60 50<50 450> 410 50<50 450>
LayerCount: 2
Fore
SplineSet
110 50 m 1
 410 50 l 1
 410 450 l 1
 110 450 l 1
 110 50 l 1
60 0 m 1
 60 500 l 1
 460 500 l 1
 460 0 l 1
 60 0 l 1
EndSplineSet
EndChar

StartChar: exclam
Encoding: 33 33 2
Width: 282
Flags: W
HStem: 0 176<86.7577 197.242> 805 20G<52 228>
VStem: 57 170<30.6549 145.345 755.588 825> 74 132<235 422.727>
LayerCount: 2
Fore
SplineSet
74 235 m 1xd0
 52 825 l 1
 228 825 l 1
 206 235 l 1
 74 235 l 1xd0
57 88 m 0xe0
 57 136 96 176 142 176 c 0
 188 176 227 136 227 88 c 0
 227 40 188 0 142 0 c 0
 96 0 57 40 57 88 c 0xe0
EndSplineSet
EndChar

StartChar: quotedbl
Encoding: 34 34 3
Width: 408
Flags: W
HStem: 581 279<70 163 243 336>
VStem: 70 93<581 678.65> 243 93<581 678.65>
LayerCount: 2
Fore
SplineSet
50 860 m 1
 183 860 l 1
 163 581 l 1
 70 581 l 1
 50 860 l 1
223 860 m 1
 356 860 l 1
 336 581 l 1
 243 581 l 1
 223 860 l 1
EndSplineSet
EndChar

StartChar: numbersign
Encoding: 35 35 4
Width: 744
Flags: W
HStem: 0 21G<86 215.205 318 447.205> 219 121<73 143 299 375 531 606> 486 121<138 213 369 445 601 671> 805 20G<296.771 426 528.771 658>
LayerCount: 2
Fore
SplineSet
407 340 m 1
 445 486 l 1
 337 486 l 1
 299 340 l 1
 407 340 l 1
267 219 m 1
 210 0 l 1
 86 0 l 1
 143 219 l 1
 41 219 l 1
 73 340 l 1
 175 340 l 1
 213 486 l 1
 106 486 l 1
 138 607 l 1
 245 607 l 1
 302 825 l 1
 426 825 l 1
 369 607 l 1
 477 607 l 1
 534 825 l 1
 658 825 l 1
 601 607 l 1
 703 607 l 1
 671 486 l 1
 569 486 l 1
 531 340 l 1
 638 340 l 1
 606 219 l 1
 499 219 l 1
 442 0 l 1
 318 0 l 1
 375 219 l 1
 267 219 l 1
EndSplineSet
EndChar

StartChar: dollar
Encoding: 36 36 5
Width: 705
Flags: W
VStem: 110 184<552.937 643.118> 321 120<-78 -12.8983 832.827 890> 453 206<187.262 282.175>
LayerCount: 2
Fore
SplineSet
453 240 m 0
 453 353 110 399 110 588 c 0
 110 720 209 810 321 834 c 1
 321 932 l 1
 441 890 l 1
 441 836 l 1
 557 820 635 762 635 762 c 1
 559 612 l 1
 559 612 477 669 392 669 c 0
 328 669 294 640 294 595 c 0
 294 480 659 467 659 251 c 0
 659 93 562 18 441 -6 c 1
 441 -109 l 1
 321 -78 l 1
 321 -14 l 1
 144 -5 38 94 38 94 c 1
 132 252 l 1
 132 252 242 159 334 159 c 0
 375 159 453 163 453 240 c 0
EndSplineSet
EndChar

StartChar: percent
Encoding: 37 37 6
Width: 970
Flags: W
HStem: -15 116<659.796 773.95> 0 21G<187 316.636> 276 116<660.617 773.141> 440 116<195.257 306.952> 731 116<196.078 306.143> 805 20G<655.364 785>
VStem: 44 119<588.519 697.724> 340 119<587.713 698.542> 509 119<133.519 242.724> 805 119<132.713 243.542>
LayerCount: 2
Fore
SplineSet
163 643 m 0x3bc0
 163 597 204 556 252 556 c 0
 300 556 340 597 340 643 c 0
 340 689 300 731 252 731 c 0
 204 731 163 689 163 643 c 0x3bc0
44 643 m 0
 44 752 139 847 253 847 c 0
 367 847 459 752 459 643 c 0
 459 534 367 440 253 440 c 0
 139 440 44 534 44 643 c 0
628 188 m 0
 628 142 669 101 717 101 c 0xb3c0
 765 101 805 142 805 188 c 0
 805 234 765 276 717 276 c 0
 669 276 628 234 628 188 c 0
509 188 m 0
 509 297 603 392 717 392 c 0
 831 392 924 297 924 188 c 0
 924 79 831 -15 717 -15 c 0
 603 -15 509 79 509 188 c 0
785 825 m 1x77c0
 305 0 l 1
 187 0 l 1
 667 825 l 1
 785 825 l 1x77c0
EndSplineSet
EndChar

StartChar: ampersand
Encoding: 38 38 7
Width: 952
Flags: W
HStem: -15 178<281.128 431.625> 0 21G<658.316 914> 707 133<374.565 483.162>
VStem: 43 213<189.303 286.028> 161 191<569.152 687.496> 504 165<577.84 683.089>
LayerCount: 2
Fore
SplineSet
473 210 m 1xb4
 342 339 l 1
 342 339 256 308 256 232 c 0
 256 184 305 163 349 163 c 0
 417 163 473 210 473 210 c 1xb4
424 707 m 0
 373 707 352 669 352 625 c 0x2c
 352 577 412 524 412 524 c 1
 454 547 504 581 504 625 c 0
 504 669 485 707 424 707 c 0
507 413 m 1
 724 198 780 288 853 298 c 1
 853 298 828 265 736 185 c 1
 914 0 l 1
 677 0 l 1x6c
 606 76 l 1
 534 25 457 -15 330 -15 c 0
 208 -15 43 34 43 217 c 0xb4
 43 354 272 414 243 451 c 1
 243 451 161 560 161 625 c 0
 161 753 253 840 424 840 c 0
 589 840 668 728 669 625 c 0
 670 504 478 451 507 413 c 1
EndSplineSet
EndChar

StartChar: quotesingle
Encoding: 39 39 8
Width: 235
Flags: W
HStem: 581 279<70 163>
VStem: 70 93<581 678.65>
LayerCount: 2
Fore
SplineSet
50 860 m 1
 183 860 l 1
 163 581 l 1
 70 581 l 1
 50 860 l 1
EndSplineSet
EndChar

StartChar: parenleft
Encoding: 40 40 9
Width: 390
Flags: W
HStem: -260 21G<217.68 270.531>
VStem: 48 163<94.7193 494.379>
LayerCount: 2
Fore
SplineSet
338 -211 m 1
 224 -260 l 1
 224 -260 48 -49 48 297 c 0
 48 653 238 875 238 875 c 1
 352 826 l 1
 352 826 211 655 211 297 c 0
 211 -41 338 -211 338 -211 c 1
EndSplineSet
EndChar

StartChar: parenright
Encoding: 41 41 10
Width: 391
Flags: W
HStem: -260 21G<118.061 171.284>
VStem: 177 163<94.7193 494.379>
LayerCount: 2
Fore
SplineSet
165 -260 m 1
 50 -211 l 1
 50 -211 177 -41 177 297 c 0
 177 655 36 826 36 826 c 1
 151 875 l 1
 151 875 340 653 340 297 c 0
 340 -49 165 -260 165 -260 c 1
EndSplineSet
EndChar

StartChar: asterisk
Encoding: 42 42 11
Width: 458
Flags: W
HStem: 513 21G<128.667 173.385 282.615 327.333>
VStem: 184 88<743 860>
LayerCount: 2
Fore
SplineSet
386 778 m 1
 412 698 l 1
 298 657 l 1
 364 558 l 1
 298 513 l 1
 228 604 l 1
 158 513 l 1
 92 558 l 1
 158 657 l 1
 44 698 l 1
 70 778 l 1
 184 743 l 1
 185 860 l 1
 271 860 l 1
 272 743 l 1
 386 778 l 1
EndSplineSet
EndChar

StartChar: plus
Encoding: 43 43 12
Width: 613
Flags: W
HStem: 338 153<49 229 382 561>
VStem: 229 153<158 338 491 671>
LayerCount: 2
Fore
SplineSet
382 158 m 1
 229 158 l 1
 229 338 l 1
 49 338 l 1
 49 491 l 1
 229 491 l 1
 229 671 l 1
 382 671 l 1
 382 491 l 1
 561 491 l 1
 561 338 l 1
 382 338 l 1
 382 158 l 1
EndSplineSet
EndChar

StartChar: comma
Encoding: 44 44 13
Width: 260
Flags: W
HStem: -136 302
VStem: 44 164
LayerCount: 2
Fore
SplineSet
44 -104 m 1
 169 15 0 166 122 166 c 0
 170 166 208 128 208 80 c 0
 208 -11 144 -85 82 -136 c 1
 44 -104 l 1
EndSplineSet
EndChar

StartChar: hyphen
Encoding: 45 45 14
Width: 435
Flags: W
HStem: 213 153<55 377>
VStem: 55 322<213 366>
LayerCount: 2
Fore
SplineSet
55 366 m 1
 377 366 l 1
 377 213 l 1
 55 213 l 1
 55 366 l 1
EndSplineSet
EndChar

StartChar: period
Encoding: 46 46 15
Width: 272
Flags: W
HStem: 0 176<79.7577 190.242>
VStem: 50 170<30.6549 145.345>
LayerCount: 2
Fore
SplineSet
50 88 m 0
 50 136 89 176 135 176 c 0
 181 176 220 136 220 88 c 0
 220 40 181 0 135 0 c 0
 89 0 50 40 50 88 c 0
EndSplineSet
EndChar

StartChar: slash
Encoding: 47 47 16
Width: 637
Flags: W
LayerCount: 2
Fore
SplineSet
599 860 m 1
 187 -120 l 1
 35 -120 l 1
 447 860 l 1
 599 860 l 1
EndSplineSet
EndChar

StartChar: zero
Encoding: 48 48 17
Width: 771
Flags: W
HStem: -15 165<317.464 450.318> 675 165<319.102 448.683>
VStem: 48 190<257.507 560.318> 530 190<257.507 560.539>
LayerCount: 2
Fore
SplineSet
238 412 m 0
 238 234 293 150 384 150 c 0
 474 150 530 234 530 412 c 0
 530 579 474 675 384 675 c 0
 293 675 238 578 238 412 c 0
48 412 m 0
 48 698 207 840 384 840 c 0
 561 840 720 698 720 412 c 0
 720 106 561 -15 384 -15 c 0
 207 -15 48 106 48 412 c 0
EndSplineSet
EndChar

StartChar: one
Encoding: 49 49 18
Width: 435
Flags: W
HStem: 0 21G<183 371> 805 20G<251.947 371>
VStem: 183 188<0 575>
LayerCount: 2
Fore
SplineSet
47 487 m 1
 47 673 l 1
 283 825 l 1
 371 825 l 1
 371 0 l 1
 183 0 l 1
 183 575 l 1
 47 487 l 1
EndSplineSet
EndChar

StartChar: two
Encoding: 50 50 19
Width: 734
Flags: W
HStem: 0 165<381 687> 524 21G<163.684 223.726> 681 159<298.286 418.215>
VStem: 469 203<481.396 633.989>
LayerCount: 2
Fore
SplineSet
352 681 m 0
 262 681 205 524 205 524 c 1
 48 600 l 1
 48 600 128 840 352 840 c 0
 635 840 672 654 672 550 c 0
 672 357 381 165 381 165 c 1
 687 165 l 1
 687 0 l 1
 44 0 l 1
 44 47 l 1
 44 47 469 398 469 550 c 0
 469 580 462 681 352 681 c 0
EndSplineSet
EndChar

StartChar: three
Encoding: 51 51 20
Width: 700
Flags: W
HStem: -15 162<271.576 427.144> 371 123<311 401.93> 689 151<279.458 410.14>
LayerCount: 2
Fore
SplineSet
78 659 m 1
 78 659 120 840 351 840 c 0
 508 840 622 740 622 600 c 0
 622 532 594 480 549 445 c 1
 613 406 654 343 654 256 c 0
 654 98 525 -15 348 -15 c 0
 94 -15 38 188 38 188 c 1
 212 273 l 1
 212 273 223 147 347 147 c 0
 522 147 568 379 311 371 c 1
 311 494 l 1
 518 494 471 689 349 689 c 0
 245 689 226 587 226 587 c 1
 78 659 l 1
EndSplineSet
EndChar

StartChar: four
Encoding: 52 52 21
Width: 762
Flags: W
HStem: 0 21G<442 618> 174 165<293 442 618 714> 805 20G<359.941 618>
VStem: 442 176<0 174 339 574>
LayerCount: 2
Fore
SplineSet
442 574 m 1
 402 574 l 1
 293 339 l 1
 442 339 l 1
 442 574 l 1
618 825 m 1
 618 339 l 1
 714 339 l 1
 714 174 l 1
 618 174 l 1
 618 0 l 1
 442 0 l 1
 442 174 l 1
 42 174 l 1
 42 230 l 1
 371 825 l 1
 618 825 l 1
EndSplineSet
EndChar

StartChar: five
Encoding: 53 53 22
Width: 686
Flags: W
HStem: -15 157<242.169 403.599> 407 138<307 357.684> 660 165<325 585>
LayerCount: 2
Fore
SplineSet
332 142 m 0
 496 142 536 407 236 407 c 0
 167 407 120 392 95 381 c 1
 164 825 l 1
 585 825 l 1
 585 660 l 1
 325 660 l 1
 307 545 l 1
 491 545 638 485 638 256 c 0
 638 98 509 -15 332 -15 c 0
 156 -15 69 80 38 164 c 1
 187 236 l 1
 202 185 246 142 332 142 c 0
EndSplineSet
EndChar

StartChar: six
Encoding: 54 54 23
Width: 728
Flags: W
HStem: -15 155<291.49 436.728> 393 161<359.395 433.911> 805 20G<308.5 586>
VStem: 44 195<192.626 335.074> 492 188<195.396 335.281>
LayerCount: 2
Fore
SplineSet
239 265 m 0
 239 193 291 140 364 140 c 0
 437 140 492 193 492 265 c 0
 492 339 435 393 364 393 c 0
 295 393 239 339 239 265 c 0
368 825 m 1
 586 825 l 1
 358 542 l 1
 358 542 378 554 416 554 c 0
 529 554 680 457 680 265 c 0
 680 70 523 -15 374 -15 c 0
 189 -15 44 107 44 265 c 0
 44 410 249 665 368 825 c 1
EndSplineSet
EndChar

StartChar: seven
Encoding: 55 55 24
Width: 740
Flags: W
HStem: 0 21G<40 306> 660 165<65 420>
LayerCount: 2
Fore
SplineSet
698 825 m 1
 698 770 l 1
 512 513 350 257 262 0 c 1
 40 0 l 1
 143 227 226 459 420 660 c 1
 65 660 l 1
 65 825 l 1
 698 825 l 1
EndSplineSet
EndChar

StartChar: eight
Encoding: 56 56 25
Width: 707
Flags: W
HStem: -15 162<285.672 413.898> 357 156<292.286 413.238> 698 142<293.583 410.739>
VStem: 43 204<188.05 317.331> 79 181<545.158 665.079> 443 178<542.712 666.752> 457 204<189.042 316.343>
LayerCount: 2
Fore
SplineSet
247 252 m 0xf2
 247 191 289 147 351 147 c 0
 411 147 457 191 457 252 c 0
 457 314 409 357 351 357 c 0
 292 357 247 314 247 252 c 0xf2
443 605 m 0xec
 443 658 407 698 353 698 c 0
 300 698 260 658 260 605 c 0
 260 550 302 513 353 513 c 0
 406 513 443 550 443 605 c 0xec
621 632 m 0
 621 541 577 481 515 445 c 1
 598 407 661 335 661 222 c 0
 661 83 508 -15 353 -15 c 0
 193 -15 43 83 43 222 c 0xf2
 43 335 104 407 187 445 c 1
 124 481 79 541 79 632 c 0
 79 754 215 840 351 840 c 0
 492 840 621 754 621 632 c 0
EndSplineSet
EndChar

StartChar: nine
Encoding: 57 57 26
Width: 726
Flags: W
HStem: 0 21G<139 415.5> 271 161<290.25 366.707> 685 155<287.931 428.979>
VStem: 45 188<489.719 629.604> 485 195<489.926 632.374>
LayerCount: 2
Fore
SplineSet
485 560 m 0
 485 632 433 685 360 685 c 0
 287 685 233 632 233 560 c 0
 233 486 289 432 360 432 c 0
 429 432 485 486 485 560 c 0
356 0 m 1
 139 0 l 1
 367 283 l 1
 367 283 346 271 308 271 c 0
 195 271 45 368 45 560 c 0
 45 755 202 840 351 840 c 0
 536 840 680 718 680 560 c 0
 680 415 475 160 356 0 c 1
EndSplineSet
EndChar

StartChar: colon
Encoding: 58 58 27
Width: 280
Flags: W
HStem: 0 176<83.1876 193.672> 298 176<83.1876 193.672>
VStem: 54 170<30.6549 145.345 328.655 443.345>
LayerCount: 2
Fore
SplineSet
54 88 m 0
 54 136 92 176 138 176 c 0
 184 176 224 136 224 88 c 0
 224 40 184 0 138 0 c 0
 92 0 54 40 54 88 c 0
54 386 m 0
 54 434 92 474 138 474 c 0
 184 474 224 434 224 386 c 0
 224 338 184 298 138 298 c 0
 92 298 54 338 54 386 c 0
EndSplineSet
EndChar

StartChar: semicolon
Encoding: 59 59 28
Width: 275
Flags: W
HStem: 298 176<78.7577 189.242>
VStem: 49 170<328.655 443.345>
LayerCount: 2
Fore
SplineSet
49 386 m 0
 49 434 88 474 134 474 c 0
 180 474 219 434 219 386 c 0
 219 338 180 298 134 298 c 0
 88 298 49 338 49 386 c 0
55 -104 m 1
 180 15 11 166 133 166 c 0
 181 166 219 128 219 80 c 0
 219 -11 155 -85 93 -136 c 1
 55 -104 l 1
EndSplineSet
EndChar

StartChar: less
Encoding: 60 60 29
Width: 652
Flags: W
LayerCount: 2
Fore
SplineSet
48 475 m 1
 596 697 l 1
 596 555 l 1
 238 415 l 1
 596 277 l 1
 596 135 l 1
 48 357 l 1
 48 475 l 1
EndSplineSet
EndChar

StartChar: equal
Encoding: 61 61 30
Width: 629
Flags: W
HStem: 218 153<57 569> 458 153<57 569>
LayerCount: 2
Fore
SplineSet
57 371 m 1
 569 371 l 1
 569 218 l 1
 57 218 l 1
 57 371 l 1
57 611 m 1
 569 611 l 1
 569 458 l 1
 57 458 l 1
 57 611 l 1
EndSplineSet
EndChar

StartChar: greater
Encoding: 62 62 31
Width: 652
Flags: W
LayerCount: 2
Fore
SplineSet
54 277 m 1
 412 415 l 1
 54 555 l 1
 54 697 l 1
 600 475 l 1
 600 357 l 1
 54 135 l 1
 54 277 l 1
EndSplineSet
EndChar

StartChar: question
Encoding: 63 63 32
Width: 636
Flags: W
HStem: 0 176<250.758 361.242> 643 157<239.016 361.129>
VStem: 221 170<30.6549 145.345 230 354.533> 386 204<505.077 617.496>
LayerCount: 2
Fore
SplineSet
421 362 m 1xd0
 384 335 387 323 386 230 c 1xd0
 221 230 l 1xe0
 221 382 224 420 268 448 c 0
 329 487 386 490 386 561 c 0
 386 609 350 643 305 643 c 0
 233 643 198 583 187 540 c 1
 40 611 l 1
 40 616 83 800 306 800 c 0
 456 800 590 702 590 561 c 0
 590 463 517 403 421 362 c 1xd0
221 88 m 0xe0
 221 136 260 176 306 176 c 0
 352 176 391 136 391 88 c 0
 391 40 352 0 306 0 c 0
 260 0 221 40 221 88 c 0xe0
EndSplineSet
EndChar

StartChar: at
Encoding: 64 64 33
Width: 973
Flags: W
HStem: -15 142<382.548 613.593> 202 123<423.93 534.738> 223 133<693 794.614> 487 119<425.286 538.706> 709 131<385.356 620.791>
VStem: 47 146<308.451 518.217> 257 139<351.462 459.123> 804 119<363.073 540.381>
LayerCount: 2
Fore
SplineSet
396 405 m 0xdf
 396 359 432 325 485 325 c 0
 535 325 572 359 572 405 c 0
 572 452 532 487 485 487 c 0
 435 487 396 452 396 405 c 0xdf
749 356 m 0xbf
 792 356 804 368 804 442 c 0
 804 599 671 709 497 709 c 0
 327 709 193 576 193 413 c 0
 193 250 330 127 497 127 c 0
 629 127 684 195 684 195 c 1
 800 118 l 1
 800 118 713 -15 497 -15 c 0
 253 -15 47 159 47 413 c 0
 47 667 253 840 497 840 c 0
 731 840 923 678 923 442 c 0
 923 286 818 223 720 223 c 0xbf
 666 223 614 241 581 269 c 1
 556 222 499 202 446 202 c 0xdf
 336 202 257 291 257 403 c 0
 257 516 336 606 446 606 c 0
 755 606 681 356 749 356 c 0xbf
EndSplineSet
EndChar

StartChar: A
Encoding: 65 65 34
Width: 918
Flags: W
HStem: 0 21G<39 248.273 669.485 879> 165 165<365 551> 805 20G<362.952 553.097>
LayerCount: 2
Fore
SplineSet
545 825 m 1
 879 0 l 1
 677 0 l 1
 615 165 l 1
 301 165 l 1
 241 0 l 1
 39 0 l 1
 371 825 l 1
 545 825 l 1
551 330 m 1
 457 570 l 1
 365 330 l 1
 551 330 l 1
EndSplineSet
EndChar

StartChar: B
Encoding: 66 66 35
Width: 706
Flags: W
HStem: 0 142<259 408.981> 346 126<259 394.299> 676 145<259 394.203>
VStem: 62 197<142 346 472 676> 427 201<503.848 642.489> 454 201<183.256 300.72>
LayerCount: 2
Fore
SplineSet
259 472 m 1xf8
 283 472 l 2
 358 472 427 477 427 574 c 0
 427 671 358 676 283 676 c 2
 259 676 l 1
 259 472 l 1xf8
259 346 m 1
 259 142 l 1
 283 142 l 2
 358 142 454 147 454 244 c 0xf4
 454 341 324 346 283 346 c 2
 259 346 l 1
560 419 m 1
 619 378 655 315 655 232 c 0xf4
 655 79 533 0 372 0 c 2
 62 0 l 1
 62 821 l 1
 372 821 l 2
 533 821 628 739 628 586 c 0xf8
 628 516 603 459 560 419 c 1
EndSplineSet
EndChar

StartChar: C
Encoding: 67 67 36
Width: 779
Flags: W
HStem: -15 185<408.068 649.272> 655 185<407.924 649.272>
VStem: 47 204<316.166 507.757>
LayerCount: 2
Fore
SplineSet
733 25 m 1
 733 25 674 -15 495 -15 c 0
 262 -15 47 175 47 411 c 0
 47 648 261 840 495 840 c 0
 674 840 733 800 733 800 c 1
 693 615 l 1
 693 615 619 655 523 655 c 0
 334 655 251 523 251 413 c 0
 251 302 334 170 523 170 c 0
 619 170 693 210 693 210 c 1
 733 25 l 1
EndSplineSet
EndChar

StartChar: D
Encoding: 68 68 37
Width: 769
Flags: W
HStem: 0 168<250 383.575> 657 168<250 383.575>
VStem: 62 188<168 657> 516 201<293.486 531.414>
LayerCount: 2
Fore
SplineSet
516 412 m 0
 516 556 453 657 250 657 c 1
 250 168 l 1
 453 168 516 268 516 412 c 0
62 825 m 1
 302 825 l 2
 528 825 717 653 717 413 c 0
 717 172 529 0 302 0 c 2
 62 0 l 1
 62 825 l 1
EndSplineSet
EndChar

StartChar: E
Encoding: 69 69 38
Width: 589
Flags: W
HStem: 0 165<250 534> 331 165<250 522> 660 165<250 534>
VStem: 62 188<165 331 496 660>
LayerCount: 2
Fore
SplineSet
534 825 m 1
 534 660 l 1
 250 660 l 1
 250 496 l 1
 522 496 l 1
 522 331 l 1
 250 331 l 1
 250 165 l 1
 534 165 l 1
 534 0 l 1
 62 0 l 1
 62 825 l 1
 534 825 l 1
EndSplineSet
EndChar

StartChar: F
Encoding: 70 70 39
Width: 588
Flags: W
HStem: 0 21G<62 250> 331 165<250 518> 660 165<250 540>
VStem: 62 188<0 331 496 660>
LayerCount: 2
Fore
SplineSet
540 825 m 1
 540 660 l 1
 250 660 l 1
 250 496 l 1
 518 496 l 1
 518 331 l 1
 250 331 l 1
 250 0 l 1
 62 0 l 1
 62 825 l 1
 540 825 l 1
EndSplineSet
EndChar

StartChar: G
Encoding: 71 71 40
Width: 891
Flags: W
HStem: -15 173<378.047 551.429> 0 21G<772.941 830> 317 145<469 639> 670 170<376.746 555.532>
VStem: 47 203<303.615 521.624> 733 97<31.5464 94>
LayerCount: 2
Fore
SplineSet
830 462 m 1xbc
 830 0 l 1x7c
 733 34 l 1
 738 94 l 1
 669 18 569 -15 449 -15 c 0
 227 -15 47 176 47 412 c 0
 47 649 217 840 449 840 c 0
 594 840 695 786 767 699 c 1
 644 564 l 1
 596 641 533 670 460 670 c 0
 344 670 250 555 250 412 c 0
 250 272 344 158 460 158 c 0
 550 158 639 216 639 317 c 1
 469 317 l 1
 435 462 l 1
 830 462 l 1xbc
EndSplineSet
EndChar

StartChar: H
Encoding: 72 72 41
Width: 720
Flags: W
HStem: 0 21G<62 250 468 656> 318 188<250 468> 805 20G<62 250 468 656>
VStem: 62 188<0 318 506 825> 468 188<0 318 506 825>
LayerCount: 2
Fore
SplineSet
656 825 m 1
 656 0 l 1
 468 0 l 1
 468 318 l 1
 250 318 l 1
 250 0 l 1
 62 0 l 1
 62 825 l 1
 250 825 l 1
 250 506 l 1
 468 506 l 1
 468 825 l 1
 656 825 l 1
EndSplineSet
EndChar

StartChar: I
Encoding: 73 73 42
Width: 314
Flags: W
HStem: 0 21G<62 250> 805 20G<62 250>
VStem: 62 188<0 825>
LayerCount: 2
Fore
SplineSet
250 825 m 1
 250 0 l 1
 62 0 l 1
 62 825 l 1
 250 825 l 1
EndSplineSet
EndChar

StartChar: J
Encoding: 74 74 43
Width: 580
Flags: W
HStem: -15 180<95.7156 293.656> 805 20G<330 518>
VStem: 330 188<203.518 825>
LayerCount: 2
Fore
SplineSet
518 825 m 1
 518 233 l 2
 518 71 425 -15 260 -15 c 0
 142 -15 40 -5 40 -5 c 1
 100 175 l 1
 100 175 186 165 234 165 c 0
 288 165 330 198 330 281 c 2
 330 825 l 1
 518 825 l 1
EndSplineSet
EndChar

StartChar: K
Encoding: 75 75 44
Width: 850
Flags: W
HStem: 0 21G<62 250 539.489 814> 805 20G<62 250 520.01 762>
VStem: 62 188<0 825>
LayerCount: 2
Fore
SplineSet
814 0 m 1
 554 0 l 1
 250 419 l 1
 250 0 l 1
 62 0 l 1
 62 825 l 1
 250 825 l 1
 250 419 l 1
 534 825 l 1
 762 825 l 1
 464 419 l 1
 814 0 l 1
EndSplineSet
EndChar

StartChar: L
Encoding: 76 76 45
Width: 583
Flags: W
HStem: 0 165<250 534> 805 20G<62 250>
VStem: 62 188<165 825>
LayerCount: 2
Fore
SplineSet
250 825 m 1
 250 165 l 1
 534 165 l 1
 534 0 l 1
 62 0 l 1
 62 825 l 1
 250 825 l 1
EndSplineSet
EndChar

StartChar: M
Encoding: 77 77 46
Width: 1025
Flags: W
HStem: 0 21G<62 249.115 773.924 961> 805 20G<62 335.731 686.353 961>
VStem: 62 187<0 523> 774 187<0 523>
LayerCount: 2
Fore
SplineSet
560 5 m 1
 462 5 l 1
 252 523 l 1
 249 0 l 1
 62 0 l 1
 62 825 l 1
 328 825 l 1
 512 349 l 1
 694 825 l 1
 961 825 l 1
 961 0 l 1
 774 0 l 1
 772 523 l 1
 560 5 l 1
EndSplineSet
EndChar

StartChar: N
Encoding: 78 78 47
Width: 832
Flags: W
HStem: 0 21G<62 250 743.566 768> 805 20G<62 86.2824 579.906 768>
VStem: 62 188<0 424> 578 190<400 825>
LayerCount: 2
Fore
SplineSet
62 0 m 1
 62 825 l 1
 578 400 l 1
 580 825 l 1
 768 825 l 1
 768 0 l 1
 250 424 l 1
 250 0 l 1
 62 0 l 1
EndSplineSet
EndChar

StartChar: O
Encoding: 79 79 48
Width: 930
Flags: W
HStem: -15 198<377.025 548.866> 642 198<377.025 548.866>
VStem: 47 205<315.937 509.94> 673 205<315.937 509.94>
LayerCount: 2
Fore
SplineSet
252 413 m 0
 252 288 345 183 463 183 c 0
 581 183 673 288 673 413 c 0
 673 538 581 642 463 642 c 0
 345 642 252 538 252 413 c 0
47 413 m 0
 47 645 231 840 463 840 c 0
 695 840 878 645 878 413 c 0
 878 181 695 -15 463 -15 c 0
 231 -15 47 181 47 413 c 0
EndSplineSet
EndChar

StartChar: P
Encoding: 80 80 49
Width: 690
Flags: W
HStem: 0 21G<62 250> 306 150<250 382.872> 675 150<250 388.875>
VStem: 62 188<0 306 456 675> 446 198<505.336 626.183>
LayerCount: 2
Fore
SplineSet
250 456 m 1
 342 458 446 468 446 565 c 0
 446 656 359 675 250 675 c 1
 250 456 l 1
62 825 m 1
 364 825 l 1
 563 820 644 698 644 571 c 0
 644 318 362 307 250 306 c 1
 250 0 l 1
 62 0 l 1
 62 825 l 1
EndSplineSet
EndChar

StartChar: Q
Encoding: 81 81 50
Width: 985
Flags: W
HStem: -15 198<377.025 525.825> 0 21G<703 949> 642 198<377.025 548.866>
VStem: 47 205<315.937 509.94> 673 205<309.782 509.94>
LayerCount: 2
Fore
SplineSet
949 0 m 1x78
 723 0 l 1x78
 677 46 l 1
 615 7 542 -15 463 -15 c 0xb8
 231 -15 47 181 47 413 c 0
 47 645 231 840 463 840 c 0
 695 840 878 645 878 413 c 0
 878 318 847 230 795 158 c 1
 949 0 l 1x78
252 413 m 0
 252 288 345 183 463 183 c 0xb8
 486 183 508 187 528 194 c 1
 439 282 l 1
 565 394 l 1
 650 307 l 1
 665 339 673 375 673 413 c 0
 673 538 581 642 463 642 c 0
 345 642 252 538 252 413 c 0
EndSplineSet
EndChar

StartChar: R
Encoding: 82 82 51
Width: 756
Flags: W
HStem: 0 21G<62 250 498.948 720> 675 150<250 388.875>
VStem: 62 188<0 306 456 675> 446 198<505.682 626.183>
LayerCount: 2
Fore
SplineSet
62 825 m 1
 364 825 l 1
 563 820 644 698 644 571 c 0
 644 446 576 380 493 345 c 1
 720 0 l 1
 512 0 l 1
 311 308 l 1
 288 307 267 306 250 306 c 1
 250 0 l 1
 62 0 l 1
 62 825 l 1
250 456 m 1
 342 458 446 468 446 565 c 0
 446 656 359 675 250 675 c 1
 250 456 l 1
EndSplineSet
EndChar

StartChar: S
Encoding: 83 83 52
Width: 712
Flags: W
VStem: 111 184<561.323 638.491> 455 206<192.369 290.833>
LayerCount: 2
Fore
SplineSet
133 252 m 1
 243 175 455 117 455 240 c 0
 455 371 111 399 111 588 c 0
 111 765 305 950 637 762 c 1
 561 612 l 1
 438 719 295 664 295 595 c 0
 295 505 661 481 661 251 c 0
 661 54 379 -145 39 94 c 1
 133 252 l 1
EndSplineSet
EndChar

StartChar: T
Encoding: 84 84 53
Width: 669
Flags: W
HStem: 0 21G<239 427> 660 165<43 239 427 623>
VStem: 239 188<0 660>
LayerCount: 2
Fore
SplineSet
43 660 m 1
 43 825 l 1
 623 825 l 1
 623 660 l 1
 427 660 l 1
 427 0 l 1
 239 0 l 1
 239 660 l 1
 43 660 l 1
EndSplineSet
EndChar

StartChar: U
Encoding: 85 85 54
Width: 762
Flags: W
HStem: -15 185<295.929 464.071> 805 20G<58 246 514 702>
VStem: 58 188<229.657 825> 514 188<229.657 825>
LayerCount: 2
Fore
SplineSet
702 825 m 1
 702 293 l 2
 702 89 590 -15 380 -15 c 0
 170 -15 58 89 58 293 c 2
 58 825 l 1
 246 825 l 1
 246 348 l 2
 246 210 288 170 380 170 c 0
 472 170 514 210 514 348 c 2
 514 825 l 1
 702 825 l 1
EndSplineSet
EndChar

StartChar: V
Encoding: 86 86 55
Width: 915
Flags: W
HStem: 0 21G<374.612 539.388> 805 20G<37 256.675 657.325 877>
LayerCount: 2
Fore
SplineSet
383 0 m 1
 37 825 l 1
 249 825 l 1
 457 283 l 1
 665 825 l 1
 877 825 l 1
 531 0 l 1
 383 0 l 1
EndSplineSet
EndChar

StartChar: W
Encoding: 87 87 56
Width: 1228
Flags: W
HStem: 0 21G<267.279 486.702 739.298 958.721> 805 20G<37 251.947 537.7 690.3 975.982 1189>
LayerCount: 2
Fore
SplineSet
745 0 m 1
 613 463 l 1
 481 0 l 1
 273 0 l 1
 37 825 l 1
 247 825 l 1
 387 259 l 1
 393 259 l 1
 543 825 l 1
 685 825 l 1
 835 259 l 1
 839 259 l 1
 981 825 l 1
 1189 825 l 1
 953 0 l 1
 745 0 l 1
EndSplineSet
EndChar

StartChar: X
Encoding: 88 88 57
Width: 944
Flags: W
HStem: 0 21G<38 285.885 646.115 904> 805 20G<38 286.984 645.016 904>
LayerCount: 2
Fore
SplineSet
904 825 m 1
 582 418 l 1
 904 0 l 1
 661 0 l 1
 466 262 l 1
 271 0 l 1
 38 0 l 1
 350 418 l 1
 38 825 l 1
 271 825 l 1
 466 581 l 1
 661 825 l 1
 904 825 l 1
EndSplineSet
EndChar

StartChar: Y
Encoding: 89 89 58
Width: 878
Flags: W
HStem: 0 21G<330 545> 805 20G<36 269.235 608.889 840>
VStem: 330 215<0 319>
LayerCount: 2
Fore
SplineSet
620 825 m 1
 840 825 l 1
 545 319 l 1
 545 0 l 1
 330 0 l 1
 330 319 l 1
 36 825 l 1
 258 825 l 1
 440 501 l 1
 620 825 l 1
EndSplineSet
EndChar

StartChar: Z
Encoding: 90 90 59
Width: 813
Flags: W
HStem: 0 165<366 699> 660 165<145 446>
LayerCount: 2
Fore
SplineSet
775 825 m 1
 366 165 l 1
 699 165 l 1
 748 0 l 1
 38 0 l 1
 446 660 l 1
 145 660 l 1
 96 825 l 1
 775 825 l 1
EndSplineSet
EndChar

StartChar: bracketleft
Encoding: 91 91 60
Width: 427
Flags: W
HStem: -260 117<214 383> 743 117<214 383>
VStem: 61 322<-260 -143 743 860> 61 153<-143 743>
LayerCount: 2
Fore
SplineSet
61 860 m 1xe0
 383 860 l 1
 383 743 l 1xe0
 214 743 l 1
 214 -143 l 1xd0
 383 -143 l 1
 383 -260 l 1
 61 -260 l 1
 61 860 l 1xe0
EndSplineSet
EndChar

StartChar: backslash
Encoding: 92 92 61
Width: 638
Flags: W
LayerCount: 2
Fore
SplineSet
36 860 m 1
 189 860 l 1
 601 -120 l 1
 448 -120 l 1
 36 860 l 1
EndSplineSet
EndChar

StartChar: bracketright
Encoding: 93 93 62
Width: 427
Flags: W
HStem: -260 117<41 209> 743 117<41 209>
VStem: 41 322<-260 -143 743 860> 209 154<-143 743>
LayerCount: 2
Fore
SplineSet
41 -143 m 1xe0
 209 -143 l 1
 209 743 l 1xd0
 41 743 l 1
 41 860 l 1
 363 860 l 1
 363 -260 l 1
 41 -260 l 1
 41 -143 l 1xe0
EndSplineSet
EndChar

StartChar: asciicircum
Encoding: 94 94 63
Width: 601
Flags: W
HStem: 605 235
LayerCount: 2
Fore
SplineSet
390 605 m 1
 298 714 l 1
 206 605 l 1
 46 605 l 1
 252 840 l 1
 344 840 l 1
 552 605 l 1
 390 605 l 1
EndSplineSet
EndChar

StartChar: underscore
Encoding: 95 95 64
Width: 639
Flags: W
HStem: -100 85<62 575>
LayerCount: 2
Fore
SplineSet
62 -15 m 1
 575 -15 l 1
 575 -100 l 1
 62 -100 l 1
 62 -15 l 1
EndSplineSet
EndChar

StartChar: grave
Encoding: 96 96 65
Width: 388
Flags: W
HStem: 587 253
VStem: 44 294
LayerCount: 2
Fore
SplineSet
135 840 m 1
 338 664 l 1
 282 587 l 1
 44 725 l 1
 135 840 l 1
EndSplineSet
EndChar

StartChar: a
Encoding: 97 97 66
Width: 712
Flags: W
HStem: -15 151<289.058 404.277> 0 21G<475 650> 377 151<290.146 425.195>
VStem: 51 188<186.537 325.882> 475 175<0 58 180.338 330.189>
LayerCount: 2
Fore
SplineSet
239 256 m 0xb8
 239 186 287 136 359 136 c 0
 428 136 477 186 477 256 c 0
 477 327 425 377 359 377 c 0
 292 377 239 327 239 256 c 0xb8
650 454 m 2
 650 0 l 1
 475 0 l 1x78
 475 58 l 1
 437 16 375 -15 305 -15 c 0
 155 -15 51 106 51 256 c 0
 51 406 155 528 305 528 c 0
 374 528 650 541 650 454 c 2
EndSplineSet
EndChar

StartChar: b
Encoding: 98 98 67
Width: 714
Flags: W
HStem: -15 151<278.96 418.443> 0 21G<57 136.077> 377 151<278.828 415.929>
VStem: 57 175<181.699 331.301 526 850> 57 76<0 51.6898> 469 188<186.537 325.882>
LayerCount: 2
Fore
SplineSet
469 256 m 0xb4
 469 327 416 377 349 377 c 0
 291 377 243 339 232 282 c 1
 232 231 l 1
 242 174 289 136 349 136 c 0
 421 136 469 186 469 256 c 0xb4
57 850 m 1
 234 850 l 1
 233 526 l 1
 302 530 372 528 402 528 c 0
 552 528 657 406 657 256 c 0
 657 106 552 -15 402 -15 c 0xb4
 272 -15 192 13 141 52 c 1
 133 46 133 0 133 0 c 1
 57 0 l 1x6c
 57 850 l 1
EndSplineSet
EndChar

StartChar: c
Encoding: 99 99 68
Width: 552
Flags: W
HStem: -15 145<292.374 451.309> 383 145<292.259 449.899>
VStem: 50 188<186.422 325.466>
LayerCount: 2
Fore
SplineSet
506 31 m 1
 506 31 448 -15 334 -15 c 0
 186 -15 50 105 50 255 c 0
 50 406 185 528 334 528 c 0
 448 528 506 480 506 480 c 1
 446 359 l 1
 446 359 413 383 360 383 c 0
 293 383 238 327 238 257 c 0
 238 186 293 130 360 130 c 0
 413 130 446 154 446 154 c 1
 506 31 l 1
EndSplineSet
EndChar

StartChar: d
Encoding: 100 100 69
Width: 714
Flags: W
HStem: -15 151<295.557 435.04> 0 21G<577.923 657> 377 151<298.071 435.172>
VStem: 57 188<186.537 325.882> 482 175<181.699 331.301 526 850> 581 76<0 51.6898>
LayerCount: 2
Fore
SplineSet
245 256 m 0xb8
 245 186 293 136 365 136 c 0
 425 136 472 174 482 231 c 1
 482 282 l 1
 471 339 423 377 365 377 c 0
 298 377 245 327 245 256 c 0xb8
657 850 m 1
 657 0 l 1
 581 0 l 1x74
 581 0 581 46 573 52 c 1
 522 13 442 -15 312 -15 c 0
 162 -15 57 106 57 256 c 0
 57 406 162 528 312 528 c 0
 342 528 412 530 481 526 c 1
 480 850 l 1
 657 850 l 1
EndSplineSet
EndChar

StartChar: e
Encoding: 101 101 70
Width: 659
Flags: W
HStem: -15 21G<254.5 389> 227 90<239 434> 413 115<275.837 395.427>
VStem: 50 184<169.341 227 317 360.092>
LayerCount: 2
Fore
SplineSet
239 317 m 1
 434 317 l 1
 426 371 389 413 337 413 c 0
 276 413 242 364 239 317 c 1
470 173 m 1
 598 119 l 1
 540 22 446 -15 332 -15 c 0
 177 -15 50 107 50 256 c 0
 50 406 177 528 332 528 c 0
 488 528 607 418 607 227 c 1
 234 227 l 1
 234 141 357 60 470 173 c 1
EndSplineSet
EndChar

StartChar: f
Encoding: 102 102 71
Width: 500
Flags: W
HStem: 0 21G<117 294> 450 135<43 117 294 411> 718 157<310.02 408.669>
VStem: 117 177<0 450 585 704.458>
LayerCount: 2
Fore
SplineSet
117 585 m 1
 117 777 177 875 317 875 c 0
 407 875 463 829 463 829 c 1
 401 704 l 1
 401 704 378 718 349 718 c 0
 294 718 294 653 294 585 c 1
 411 585 l 1
 411 450 l 1
 294 450 l 1
 294 0 l 1
 117 0 l 1
 117 450 l 1
 43 450 l 1
 43 585 l 1
 117 585 l 1
EndSplineSet
EndChar

StartChar: g
Encoding: 103 103 72
Width: 669
Flags: W
HStem: -8 132<260.021 419.451>
LayerCount: 2
Fore
SplineSet
94 90 m 0
 94 142 139 155 92 225 c 1
 92 225 49 284 49 353 c 0
 49 481 148 553 300 554 c 0
 408 555 427 527 509 509 c 1
 561 504 567 522 587 534 c 1
 625 434 l 1
 606 398 544 411 544 411 c 1
 550 383 553 355 551 334 c 0
 545 281 500 164 351 158 c 0
 268 157 260 158 260 142 c 0
 260 126 289 124 338 124 c 0
 534 124 591 51 591 -42 c 0
 591 -155 488 -227 295 -230 c 0
 95 -233 65 -107 47 4 c 1
 139 -141 437 -132 430 -51 c 0
 426 -10 366 -8 261 -8 c 0
 171 -8 94 29 94 90 c 0
202 343 m 0
 205 293 250 259 302 264 c 0
 360 270 393 315 390 365 c 0
 387 415 345 450 290 444 c 0
 238 438 199 393 202 343 c 0
EndSplineSet
EndChar

StartChar: h
Encoding: 104 104 73
Width: 673
Flags: W
HStem: 0 21G<62 239 436 613> 390 138<302.861 401.575>
VStem: 62 177<0 346.049 459 860> 436 177<0 351.126>
LayerCount: 2
Fore
SplineSet
239 860 m 1
 239 459 l 1
 279 499 332 528 388 528 c 0
 482 528 613 481 613 338 c 2
 613 0 l 1
 436 0 l 1
 436 290 l 2
 436 341 401 390 344 390 c 0
 291 390 239 341 239 290 c 2
 239 0 l 1
 62 0 l 1
 62 860 l 1
 239 860 l 1
EndSplineSet
EndChar

StartChar: i
Encoding: 105 105 74
Width: 303
Flags: W
HStem: 0 21G<60 240> 497 20G<60 240> 587 176<94.1876 204.672>
VStem: 60 180<0 517 624.319 725.681>
LayerCount: 2
Fore
SplineSet
65 675 m 0
 65 723 103 763 149 763 c 0
 195 763 235 723 235 675 c 0
 235 627 195 587 149 587 c 0
 103 587 65 627 65 675 c 0
60 0 m 1
 60 517 l 1
 240 517 l 1
 240 0 l 1
 60 0 l 1
EndSplineSet
EndChar

StartChar: j
Encoding: 106 106 75
Width: 368
Flags: W
HStem: 497 20G<129 306> 587 176<162.758 273.242>
VStem: 129 177<16.2356 517 622.606 727.394>
LayerCount: 2
Fore
SplineSet
129 517 m 1
 306 517 l 1
 306 90 l 2
 306 -49 230 -150 100 -150 c 0
 69 -150 15 -25 43 -14 c 0
 80 1 129 -2 129 84 c 2
 129 517 l 1
133 675 m 0
 133 723 172 763 218 763 c 0
 264 763 303 723 303 675 c 0
 303 627 264 587 218 587 c 0
 172 587 133 627 133 675 c 0
EndSplineSet
EndChar

StartChar: k
Encoding: 107 107 76
Width: 709
Flags: W
HStem: 0 21G<62 239 424 672> 493 20G<398 648>
VStem: 62 177<0 205 334 860>
LayerCount: 2
Fore
SplineSet
648 513 m 1
 404 268 l 1
 672 0 l 1
 444 0 l 1
 239 205 l 1
 239 0 l 1
 62 0 l 1
 62 860 l 1
 239 860 l 1
 239 334 l 1
 418 513 l 1
 648 513 l 1
EndSplineSet
EndChar

StartChar: l
Encoding: 108 108 77
Width: 371
Flags: W
HStem: 0 21G<198 278.5> 805 20G<58 234.135>
VStem: 60 178<187.331 825>
LayerCount: 2
Fore
SplineSet
263 0 m 0
 133 0 60 86 60 225 c 2
 58 825 l 1
 234 825 l 1
 238 234 l 2
 238 169 310 164 321 163 c 0
 351 161 294 0 263 0 c 0
EndSplineSet
EndChar

StartChar: m
Encoding: 109 109 78
Width: 1059
Flags: W
HStem: 0 21G<60 244 442 622 822 999> 384 144<276.275 411.65 651.756 787.866> 500 20G<60 200>
VStem: 60 184<0 349.74> 442 180<0 353.362> 822 177<0 346.738>
LayerCount: 2
Fore
SplineSet
244 0 m 1xdc
 60 0 l 1
 60 520 l 1
 200 520 l 1xbc
 200 491 l 1
 234 514 279 528 344 528 c 0
 425 528 483 526 532 461 c 1
 591 526 639 528 720 528 c 0
 912 528 999 459 999 287 c 2
 999 0 l 1
 822 0 l 1
 822 244 l 2
 822 345 794 384 720 384 c 0
 659 384 630 358 622 291 c 1
 622 0 l 1
 442 0 l 1
 442 291 l 1
 434 358 405 384 344 384 c 0
 270 384 244 345 244 244 c 2
 244 0 l 1xdc
EndSplineSet
EndChar

StartChar: n
Encoding: 110 110 79
Width: 683
Flags: W
HStem: 0 21G<60 244 446 623> 384 144<277.575 413.462> 500 20G<60 200>
VStem: 60 184<0 349.74> 446 177<0 346.738>
LayerCount: 2
Fore
SplineSet
244 0 m 1xd8
 60 0 l 1
 60 520 l 1
 200 520 l 1xb8
 200 491 l 1
 234 514 281 528 346 528 c 0
 538 528 623 459 623 287 c 2
 623 0 l 1
 446 0 l 1
 446 244 l 2
 446 345 420 384 346 384 c 0
 272 384 244 345 244 244 c 2
 244 0 l 1xd8
EndSplineSet
EndChar

StartChar: o
Encoding: 111 111 80
Width: 712
Flags: W
HStem: -15 155<285.859 424.891> 373 155<287.078 423.683>
VStem: 50 182<194.152 318.033> 477 182<194.152 318.033>
LayerCount: 2
Fore
SplineSet
232 256 m 0
 232 194 288 140 355 140 c 0
 422 140 477 194 477 256 c 0
 477 318 422 373 355 373 c 0
 288 373 232 318 232 256 c 0
50 256 m 0
 50 401 189 528 356 528 c 0
 523 528 659 401 659 256 c 0
 659 111 523 -15 356 -15 c 0
 189 -15 50 111 50 256 c 0
EndSplineSet
EndChar

StartChar: p
Encoding: 112 112 81
Width: 713
Flags: W
HStem: -15 151<277.828 415.926> 377 151<278.312 417.942> 493 20G<56 135.077>
VStem: 56 175<-270 -13 181.699 331.301> 56 76<461.31 513> 468 188<187.118 326.463>
LayerCount: 2
Fore
SplineSet
468 257 m 0xd4
 468 327 420 377 348 377 c 0
 288 377 241 339 231 282 c 1
 231 231 l 1
 242 174 290 136 348 136 c 0
 415 136 468 186 468 257 c 0xd4
56 -270 m 1
 56 513 l 1
 132 513 l 1xac
 132 513 132 467 140 461 c 1
 191 500 272 528 402 528 c 0
 552 528 656 407 656 257 c 0
 656 107 552 -15 402 -15 c 0
 372 -15 301 -17 232 -13 c 1
 234 -270 l 1
 56 -270 l 1
EndSplineSet
EndChar

StartChar: q
Encoding: 113 113 82
Width: 713
Flags: W
HStem: -15 151<298.068 434.602> 377 151<291.622 434.608> 493 20G<576.923 657>
VStem: 56 188<187.118 326.463> 480 177<-270 -13 179.726 333.274> 580 77<461.31 513>
LayerCount: 2
Fore
SplineSet
244 257 m 0xd0
 244 186 297 136 364 136 c 0
 422 136 471 174 482 231 c 1
 482 282 l 1
 472 339 424 377 364 377 c 0
 292 377 244 327 244 257 c 0xd0
657 -270 m 1xb8
 480 -270 l 1
 480 -13 l 1
 411 -17 342 -15 312 -15 c 0
 162 -15 56 107 56 257 c 0
 56 407 162 528 312 528 c 0xd8
 442 528 521 500 572 461 c 1
 580 467 580 513 580 513 c 1
 657 513 l 1xb4
 657 -270 l 1xb8
EndSplineSet
EndChar

StartChar: r
Encoding: 114 114 83
Width: 553
Flags: W
HStem: 0 21G<60 237> 374 154<297.473 424.928> 493 20G<60 237>
VStem: 60 177<0 331.421 439 513>
LayerCount: 2
Fore
SplineSet
237 513 m 1xb0
 237 439 l 2
 237 475 307 528 379 528 c 0
 463 528 508 496 508 496 c 1
 434 346 l 1
 434 346 401 374 342 374 c 0xd0
 250 374 237 283 237 270 c 2
 237 0 l 1
 60 0 l 1
 60 513 l 1
 237 513 l 1xb0
EndSplineSet
EndChar

StartChar: s
Encoding: 115 115 84
Width: 528
Flags: W
VStem: 293 187<124.339 192.399>
LayerCount: 2
Fore
SplineSet
111 175 m 1
 231 85 293 119 293 153 c 0
 293 231 75 261 75 363 c 0
 75 460 216 602 471 488 c 1
 413 372 l 1
 277 434 245 397 245 373 c 0
 245 311 480 283 480 160 c 0
 480 9 226 -87 39 54 c 1
 111 175 l 1
EndSplineSet
EndChar

StartChar: t
Encoding: 116 116 85
Width: 469
Flags: W
HStem: -15 159<224.5 386.317> 378 135<46 120 297 405>
VStem: 120 177<150.794 378 513 704>
LayerCount: 2
Fore
SplineSet
120 513 m 1
 120 704 l 1
 297 704 l 1
 297 513 l 1
 405 513 l 1
 405 378 l 1
 297 378 l 1
 297 215 l 2
 297 167 309 144 337 144 c 0
 360 144 381 160 381 160 c 1
 425 17 l 1
 425 17 368 -15 295 -15 c 0
 154 -15 120 90 120 181 c 2
 120 378 l 1
 46 378 l 1
 46 513 l 1
 120 513 l 1
EndSplineSet
EndChar

StartChar: u
Encoding: 117 117 86
Width: 673
Flags: W
HStem: -15 144<267.336 402.664> 493 20G<57 234 436 613>
VStem: 57 177<166.262 513> 436 177<166.262 513>
LayerCount: 2
Fore
SplineSet
234 513 m 1
 234 269 l 2
 234 168 261 129 335 129 c 0
 409 129 436 168 436 269 c 2
 436 513 l 1
 613 513 l 1
 613 226 l 2
 613 54 527 -15 335 -15 c 0
 143 -15 57 54 57 226 c 2
 57 513 l 1
 234 513 l 1
EndSplineSet
EndChar

StartChar: v
Encoding: 118 118 87
Width: 752
Flags: W
HStem: 0 21G<304.24 445.682> 493 20G<39 258.032 490.111 709>
LayerCount: 2
Fore
SplineSet
249 513 m 1
 375 234 l 1
 499 513 l 1
 709 513 l 1
 435 0 l 1
 315 0 l 1
 39 513 l 1
 249 513 l 1
EndSplineSet
EndChar

StartChar: w
Encoding: 119 119 88
Width: 1108
Flags: W
HStem: 0 21G<304.24 443.906 662.094 801.682> 493 20G<39 252.097 482.191 621.953 852.047 1065>
LayerCount: 2
Fore
SplineSet
435 0 m 1
 315 0 l 1
 39 513 l 1
 243 513 l 1
 369 236 l 1
 491 513 l 1
 613 513 l 1
 737 236 l 1
 861 513 l 1
 1065 513 l 1
 791 0 l 1
 671 0 l 1
 553 265 l 1
 435 0 l 1
EndSplineSet
EndChar

StartChar: x
Encoding: 120 120 89
Width: 731
Flags: W
HStem: 0 21G<38 267.586 462.414 692> 493 20G<69 290.958 439.042 661>
LayerCount: 2
Fore
SplineSet
692 0 m 1
 478 0 l 1
 365 145 l 1
 252 0 l 1
 38 0 l 1
 257 268 l 1
 69 513 l 1
 276 513 l 1
 365 394 l 1
 454 513 l 1
 661 513 l 1
 473 268 l 1
 692 0 l 1
EndSplineSet
EndChar

StartChar: y
Encoding: 121 121 90
Width: 754
Flags: W
HStem: -260 21G<105 319.427> 493 20G<39 253.875 498.722 712>
LayerCount: 2
Fore
SplineSet
508 513 m 1
 712 513 l 1
 309 -260 l 1
 105 -260 l 1
 282 80 l 1
 39 513 l 1
 243 513 l 1
 386 250 l 1
 508 513 l 1
EndSplineSet
EndChar

StartChar: z
Encoding: 122 122 91
Width: 634
Flags: W
HStem: 0 135<337 571> 378 135<81 293>
LayerCount: 2
Fore
SplineSet
591 513 m 1
 337 135 l 1
 571 135 l 1
 571 0 l 1
 39 0 l 1
 293 378 l 1
 81 378 l 1
 81 513 l 1
 591 513 l 1
EndSplineSet
EndChar

StartChar: braceleft
Encoding: 123 123 92
Width: 412
Flags: W
HStem: -260 128<291.463 369> 253 94<43 100.369> 732 128<291.463 369>
VStem: 113 153<-104.163 239.006 360.551 704.163>
CounterMasks: 1 e0
LayerCount: 2
Fore
SplineSet
113 188 m 0
 113 234 86 253 43 253 c 1
 43 347 l 1
 86 347 113 366 113 412 c 0
 113 774 96 860 369 860 c 1
 369 732 l 1
 253 732 266 694 266 407 c 0
 266 350 239 318 205 300 c 1
 239 282 266 249 266 193 c 0
 266 -94 253 -132 369 -132 c 1
 369 -260 l 1
 96 -260 113 -174 113 188 c 0
EndSplineSet
EndChar

StartChar: bar
Encoding: 124 124 93
Width: 278
Flags: W
HStem: 0 21G<61 214>
VStem: 61 153<0 860>
LayerCount: 2
Fore
SplineSet
61 0 m 1
 61 860 l 1
 214 860 l 1
 214 0 l 1
 61 0 l 1
EndSplineSet
EndChar

StartChar: braceright
Encoding: 125 125 94
Width: 413
Flags: W
HStem: -260 128<41 118.537> 253 94<309.631 367> 732 128<41 118.537>
VStem: 144 153<-104.163 239.006 360.551 704.163>
CounterMasks: 1 e0
LayerCount: 2
Fore
SplineSet
297 188 m 0
 297 -174 314 -260 41 -260 c 1
 41 -132 l 1
 157 -132 144 -94 144 193 c 0
 144 249 171 282 205 300 c 1
 171 318 144 350 144 407 c 0
 144 694 157 732 41 732 c 1
 41 860 l 1
 314 860 297 774 297 412 c 0
 297 366 324 347 367 347 c 1
 367 253 l 1
 324 253 297 234 297 188 c 0
EndSplineSet
EndChar

StartChar: asciitilde
Encoding: 126 126 95
Width: 671
Flags: W
HStem: 303 140<383.875 493.818> 388 140<176.116 285.417> 501 20G<507.462 551.716>
LayerCount: 2
Fore
SplineSet
445 303 m 0xa0
 342 303 287 388 225 388 c 0
 167 388 141 310 141 310 c 1
 47 391 l 1
 47 391 113 528 225 528 c 0x40
 292 528 400 443 445 443 c 0
 503 443 529 521 529 521 c 1
 621 440 l 1
 621 440 557 303 445 303 c 0xa0
EndSplineSet
EndChar

StartChar: exclamdown
Encoding: 161 161 97
Width: 278
Flags: W
HStem: -260 21G<49 226> 380 176<84.7577 195.242>
VStem: 55 170<-260 -227.222 410.655 525.345> 73 129<157.917 330>
LayerCount: 2
Fore
SplineSet
49 -260 m 1xd0
 73 330 l 1
 202 330 l 1
 226 -260 l 1
 49 -260 l 1xd0
55 468 m 0xe0
 55 516 94 556 140 556 c 0
 186 556 225 516 225 468 c 0
 225 420 186 380 140 380 c 0
 94 380 55 420 55 468 c 0xe0
EndSplineSet
EndChar

StartChar: cent
Encoding: 162 162 98
Width: 546
Flags: W
HStem: 383 144<348.755 437.605>
VStem: 45 188<185.149 326.562> 247 101<527 617> 270 101<-110 -12>
LayerCount: 2
Fore
SplineSet
270 -129 m 1xd0
 270 -8 l 1xd0
 147 18 45 125 45 255 c 0
 45 375 130 477 240 513 c 1
 247 617 l 1
 348 636 l 1
 348 527 l 1xe0
 449 522 501 480 501 480 c 1
 441 359 l 1
 441 359 408 383 355 383 c 0
 288 383 233 327 233 257 c 0
 233 186 288 130 355 130 c 0
 408 130 441 154 441 154 c 1
 501 31 l 1
 501 31 458 -1 378 -12 c 1
 371 -110 l 1
 270 -129 l 1xd0
EndSplineSet
EndChar

StartChar: sterling
Encoding: 163 163 99
Width: 744
Flags: W
HStem: -15 144<379.8 542.14> 0 21G<47 183.326> 289 98<47 149 341.341 503> 689 152<319.773 438.358>
VStem: 97 186<445.637 648.091>
LayerCount: 2
Fore
SplineSet
353 164 m 0x78
 367 148 425 129 499 129 c 0
 556 129 565 201 565 201 c 1
 703 133 l 1
 703 133 679 -15 519 -15 c 0xb8
 395 -15 303 43 209 43 c 0
 168 43 161 0 161 0 c 1
 47 0 l 1
 47 54 103 178 193 178 c 0
 231 178 201 259 185 289 c 1
 47 289 l 1
 47 387 l 1
 149 387 l 1
 121 431 97 483 97 558 c 0
 97 714 192 841 377 841 c 0
 611 841 651 651 651 651 c 1
 493 574 l 1
 493 574 474 689 377 689 c 0
 315 689 283 634 283 558 c 0
 283 476 309 436 331 387 c 1
 503 387 l 1
 503 289 l 1
 349 289 l 1
 327 239 333 186 353 164 c 0x78
EndSplineSet
EndChar

StartChar: currency
Encoding: 164 164 100
Width: 908
Flags: W
HStem: -9 21G<140.079 181.542> 22 178<374.851 540.221> 614 178<375.543 541.491>
VStem: 84 184<313.68 501.419> 647 185<313.296 501.169>
LayerCount: 2
Fore
SplineSet
268 408 m 0
 268 296 352 200 458 200 c 0
 564 200 647 296 647 408 c 0
 647 520 564 614 458 614 c 0
 352 614 268 520 268 408 c 0
252 87 m 1
 163 -9 l 1
 61 80 l 1
 155 182 l 1
 110 246 84 324 84 408 c 0
 84 482 104 551 140 610 c 1
 38 705 l 1
 127 807 l 1
 230 712 l 1
 293 762 372 792 458 792 c 0
 539 792 613 765 674 721 c 1
 764 818 l 1
 866 729 l 1
 767 623 l 1
 808 561 832 487 832 408 c 0
 832 330 808 256 768 194 c 1
 865 104 l 1
 776 2 l 1
 676 95 l 1
 615 49 540 22 458 22 c 0
 381 22 311 47 252 87 c 1
EndSplineSet
EndChar

StartChar: yen
Encoding: 165 165 101
Width: 879
Flags: W
HStem: 0 21G<331 546> 107 130<192 331 546 691> 298 130<192 268 609 691> 805 20G<37 268.235 608.827 840>
VStem: 331 215<0 107 237 298>
LayerCount: 2
Fore
SplineSet
620 825 m 1
 840 825 l 1
 609 428 l 1
 691 428 l 1
 691 298 l 1
 546 298 l 1
 546 237 l 1
 691 237 l 1
 691 107 l 1
 546 107 l 1
 546 0 l 1
 331 0 l 1
 331 107 l 1
 192 107 l 1
 192 237 l 1
 331 237 l 1
 331 298 l 1
 192 298 l 1
 192 428 l 1
 268 428 l 1
 37 825 l 1
 257 825 l 1
 439 501 l 1
 620 825 l 1
EndSplineSet
EndChar

StartChar: brokenbar
Encoding: 166 166 102
Width: 275
Flags: W
HStem: 0 21G<60 213> 528 21G<60 213>
VStem: 60 153<0 332 528 860>
LayerCount: 2
Fore
SplineSet
60 0 m 1
 60 332 l 1
 213 332 l 1
 213 0 l 1
 60 0 l 1
60 528 m 1
 60 860 l 1
 213 860 l 1
 213 528 l 1
 60 528 l 1
EndSplineSet
EndChar

StartChar: section
Encoding: 167 167 103
Width: 679
Flags: W
HStem: -275 148<246.26 376.952> 692 148<296.721 404.093>
VStem: 89 195<598.359 680.608> 391 197<-112.968 -33.3181>
LayerCount: 2
Fore
SplineSet
380 176 m 0
 422 154 470 219 469 260 c 1
 460 312 350 364 296 389 c 0
 248 411 199 352 208 305 c 1
 211 256 307 214 380 176 c 0
309 -275 m 0
 76 -275 44 -84 44 -84 c 1
 204 -50 l 1
 204 -50 227 -127 309 -127 c 0
 370 -127 391 -101 391 -72 c 0
 391 -31 328 -2 241 38 c 0
 120 95 44 162 44 276 c 1
 48 351 95 419 178 456 c 1
 118 499 89 549 89 631 c 0
 89 739 167 840 347 840 c 0
 560 840 588 661 588 661 c 1
 428 627 l 1
 428 627 423 692 347 692 c 0
 305 692 284 668 284 637 c 0
 284 597 349 567 436 527 c 0
 557 470 633 403 633 289 c 1
 629 214 582 146 499 109 c 1
 558 65 588 15 588 -66 c 0
 588 -152 529 -275 309 -275 c 0
EndSplineSet
EndChar

StartChar: diaeresis
Encoding: 168 168 104
Width: 522
Flags: W
HStem: 607 184<83.4006 200.599 319.401 436.599>
VStem: 50 184<640.401 757.599> 286 184<640.401 757.599>
LayerCount: 2
Fore
SplineSet
378 791 m 0
 429 791 470 750 470 699 c 0
 470 648 429 607 378 607 c 0
 327 607 286 648 286 699 c 0
 286 750 327 791 378 791 c 0
142 791 m 0
 193 791 234 750 234 699 c 0
 234 648 193 607 142 607 c 0
 91 607 50 648 50 699 c 0
 50 750 91 791 142 791 c 0
EndSplineSet
EndChar

StartChar: copyright
Encoding: 169 169 105
Width: 952
Flags: W
HStem: -15 114<363.574 584.901> 206 107<454.942 588.624> 516 108<454.942 589.835> 726 114<363.574 584.901>
VStem: 47 114<301.574 522.901> 275 141<351.257 476.684> 788 114<301.574 522.901>
LayerCount: 2
Fore
SplineSet
514 516 m 0
 460 516 416 471 416 415 c 0
 416 357 460 313 514 313 c 0
 552 313 575 326 580 329 c 1
 595 297 609 271 624 239 c 1
 624 239 570 206 493 206 c 0
 380 206 275 298 275 413 c 0
 275 530 380 624 493 624 c 0
 578 624 621 592 624 589 c 1
 581 500 l 1
 581 500 547 516 514 516 c 0
161 412 m 0
 161 240 302 99 474 99 c 0
 647 99 788 240 788 412 c 0
 788 585 647 726 474 726 c 0
 302 726 161 585 161 412 c 0
47 412 m 0
 47 648 239 840 474 840 c 0
 710 840 902 648 902 412 c 0
 902 177 710 -15 474 -15 c 0
 239 -15 47 177 47 412 c 0
EndSplineSet
EndChar

StartChar: ordfeminine
Encoding: 170 170 106
Width: 466
Flags: W
HStem: 504 91<180.063 276.202> 513 21G<303 408> 739 91<180.607 284.597>
VStem: 48 113<614.4 719.198> 303 105<513 548 612.921 721.429>
LayerCount: 2
Fore
SplineSet
161 667 m 0xb8
 161 625 190 595 233 595 c 0
 274 595 304 625 304 667 c 0
 304 710 273 739 233 739 c 0
 193 739 161 710 161 667 c 0xb8
408 785 m 2
 408 513 l 1
 303 513 l 1x78
 303 548 l 1
 280 523 243 504 201 504 c 0
 111 504 48 577 48 667 c 0
 48 757 111 830 201 830 c 0
 242 830 408 837 408 785 c 2
EndSplineSet
EndChar

StartChar: guillemotleft
Encoding: 171 171 107
Width: 628
Flags: W
HStem: 508 20G<221.48 262.753 471.48 512.753>
LayerCount: 2
Fore
SplineSet
487 28 m 1
 293 278 l 1
 487 528 l 1
 581 455 l 1
 443 278 l 1
 581 101 l 1
 487 28 l 1
237 28 m 1
 43 278 l 1
 237 528 l 1
 331 455 l 1
 193 278 l 1
 331 101 l 1
 237 28 l 1
EndSplineSet
EndChar

StartChar: logicalnot
Encoding: 172 172 108
Width: 626
Flags: W
HStem: 288 85<54 491>
VStem: 491 76<197 288>
LayerCount: 2
Fore
SplineSet
567 197 m 1
 491 197 l 1
 491 288 l 1
 54 288 l 1
 54 373 l 1
 567 373 l 1
 567 197 l 1
EndSplineSet
EndChar

StartChar: uni00AD
Encoding: 173 173 109
Width: 373
Flags: W
HStem: 232 153<56 314>
VStem: 56 258<232 385>
LayerCount: 2
Fore
SplineSet
56 385 m 1
 314 385 l 1
 314 232 l 1
 56 232 l 1
 56 385 l 1
EndSplineSet
EndChar

StartChar: registered
Encoding: 174 174 110
Width: 546
Flags: W
HStem: 392 60<191.742 352.857> 588 38<245 260> 681 38<245 292.396> 780 60<191.742 352.857>
VStem: 48 60<533.586 697.233> 198 47<512 588 626 681> 294 50<628.743 677.583> 436 60<536.132 694.665>
LayerCount: 2
Fore
SplineSet
198 719 m 1
 273 719 l 2
 323 718 344 687 344 655 c 0
 344 624 326 607 305 598 c 1
 362 512 l 1
 310 512 l 1
 260 589 l 1
 254 589 249 588 245 588 c 1
 245 512 l 1
 198 512 l 1
 198 719 l 1
245 626 m 1
 268 626 294 629 294 653 c 0
 294 676 272 681 245 681 c 1
 245 626 l 1
108 615 m 0
 108 525 181 452 270 452 c 0
 362 452 436 525 436 615 c 0
 436 706 362 780 270 780 c 0
 181 780 108 706 108 615 c 0
48 615 m 0
 48 739 148 840 270 840 c 0
 395 840 496 739 496 615 c 0
 496 492 395 392 270 392 c 0
 148 392 48 492 48 615 c 0
EndSplineSet
EndChar

StartChar: macron
Encoding: 175 175 111
Width: 519
Flags: W
HStem: 634 120<54 462>
LayerCount: 2
Fore
SplineSet
54 754 m 1
 462 754 l 1
 462 634 l 1
 54 634 l 1
 54 754 l 1
EndSplineSet
EndChar

StartChar: degree
Encoding: 176 176 112
Width: 313
Flags: W
HStem: 669 59<119.585 190.777> 816 59<119.585 190.777>
VStem: 50 63<734.561 809.439> 198 63<734.561 809.439>
LayerCount: 2
Fore
SplineSet
113 772 m 0
 113 749 133 728 156 728 c 0
 179 728 198 749 198 772 c 0
 198 795 179 816 156 816 c 0
 133 816 113 795 113 772 c 0
50 772 m 0
 50 827 98 875 156 875 c 0
 214 875 261 827 261 772 c 0
 261 717 214 669 156 669 c 0
 98 669 50 717 50 772 c 0
EndSplineSet
EndChar

StartChar: plusminus
Encoding: 177 177 113
Width: 623
Flags: W
HStem: 0 153<54 567> 363 153<54 234 387 567>
VStem: 234 153<208 363 516 671>
LayerCount: 2
Fore
SplineSet
54 153 m 1
 567 153 l 1
 567 0 l 1
 54 0 l 1
 54 153 l 1
387 208 m 1
 234 208 l 1
 234 363 l 1
 54 363 l 1
 54 516 l 1
 234 516 l 1
 234 671 l 1
 387 671 l 1
 387 516 l 1
 567 516 l 1
 567 363 l 1
 387 363 l 1
 387 208 l 1
EndSplineSet
EndChar

StartChar: uni00B2
Encoding: 178 178 114
Width: 351
Flags: W
HStem: 513 64<179 298> 778 62<133.011 205.183>
VStem: 213 85<678.95 771.899>
LayerCount: 2
Fore
SplineSet
167 778 m 0
 132 778 110 717 110 717 c 1
 49 747 l 1
 49 747 80 840 167 840 c 0
 278 840 292 768 292 727 c 0
 292 652 179 577 179 577 c 1
 298 577 l 1
 298 513 l 1
 47 513 l 1
 47 531 l 1
 47 531 213 668 213 727 c 0
 213 739 210 778 167 778 c 0
EndSplineSet
EndChar

StartChar: uni00B3
Encoding: 179 179 115
Width: 329
Flags: W
HStem: 513 62<120.953 206.737> 660 47<147 197.666> 781 57<123.007 197.391>
VStem: 44 234
LayerCount: 2
Fore
SplineSet
59 769 m 1
 59 769 75 838 163 838 c 0
 223 838 266 800 266 747 c 0
 266 721 255 701 238 688 c 1
 262 673 278 649 278 616 c 0
 278 556 228 513 161 513 c 0
 64 513 44 590 44 590 c 1
 110 622 l 1
 110 622 114 575 161 575 c 0
 227 575 245 663 147 660 c 1
 147 707 l 1
 226 707 208 781 162 781 c 0
 122 781 115 742 115 742 c 1
 59 769 l 1
EndSplineSet
EndChar

StartChar: acute
Encoding: 180 180 116
Width: 387
Flags: W
HStem: 587 253
VStem: 47 294
LayerCount: 2
Fore
SplineSet
47 664 m 1
 249 840 l 1
 341 725 l 1
 103 587 l 1
 47 664 l 1
EndSplineSet
EndChar

StartChar: mu
Encoding: 181 181 117
Width: 673
Flags: W
HStem: -15 144<268.412 404.664> 493 20G<59 236 438 615>
VStem: 59 177<-133 -7 163.26 513> 438 177<166.262 513>
LayerCount: 2
Fore
SplineSet
236 269 m 2
 236 168 263 129 337 129 c 0
 411 129 438 168 438 269 c 2
 438 513 l 1
 615 513 l 1
 615 226 l 2
 615 54 529 -15 337 -15 c 0
 299 -15 266 -13 236 -7 c 1
 236 -133 l 1
 59 -133 l 1
 59 513 l 1
 236 513 l 1
 236 269 l 2
EndSplineSet
EndChar

StartChar: paragraph
Encoding: 182 182 118
Width: 734
Flags: W
HStem: 0 21G<403 506 567 670> 721 104<506 567>
VStem: 45 461<464.674 675.84> 403 103<0 306> 567 103<0 721>
LayerCount: 2
Fore
SplineSet
567 0 m 1xe8
 567 721 l 1
 506 721 l 1
 506 0 l 1
 403 0 l 1
 403 306 l 1xd8
 307 306 l 2
 146 306 45 431 45 571 c 0
 45 712 146 825 307 825 c 2
 670 825 l 1
 670 0 l 1
 567 0 l 1xe8
EndSplineSet
EndChar

StartChar: periodcentered
Encoding: 183 183 119
Width: 279
Flags: W
HStem: 251 176<83.3278 193.812>
VStem: 53 170<281.655 396.345>
LayerCount: 2
Fore
SplineSet
53 339 m 0
 53 387 93 427 139 427 c 0
 185 427 223 387 223 339 c 0
 223 291 185 251 139 251 c 0
 93 251 53 291 53 339 c 0
EndSplineSet
EndChar

StartChar: cedilla
Encoding: 184 184 120
Width: 400
Flags: W
HStem: -294 90<145.068 259.219> -120 57<222 254.421>
VStem: 46 306
LayerCount: 2
Fore
SplineSet
118 -157 m 1
 118 -157 154 -204 200 -204 c 0
 296 -204 284 -120 188 -120 c 0
 152 -120 136 -129 136 -129 c 1
 174 26 l 1
 244 4 l 1
 222 -63 l 1
 277 -63 352 -96 352 -165 c 0
 352 -228 311 -294 200 -294 c 0
 110 -294 46 -211 46 -211 c 1
 118 -157 l 1
EndSplineSet
EndChar

StartChar: uni00B9
Encoding: 185 185 121
Width: 226
Flags: W
HStem: 513 312<133 168>
VStem: 97 71<513 730>
LayerCount: 2
Fore
SplineSet
45 697 m 1
 45 768 l 1
 133 825 l 1
 168 825 l 1
 168 513 l 1
 97 513 l 1
 97 730 l 1
 45 697 l 1
EndSplineSet
EndChar

StartChar: ordmasculine
Encoding: 186 186 122
Width: 430
Flags: W
HStem: 504 93<168.171 260.75> 737 93<168.171 260.75>
VStem: 48 99<615.828 718.172> 281 99<615.828 718.172>
LayerCount: 2
Fore
SplineSet
147 667 m 0
 147 630 177 597 214 597 c 0
 251 597 281 630 281 667 c 0
 281 704 251 737 214 737 c 0
 177 737 147 704 147 667 c 0
48 667 m 0
 48 754 124 830 215 830 c 0
 306 830 380 754 380 667 c 0
 380 580 306 504 215 504 c 0
 124 504 48 580 48 667 c 0
EndSplineSet
EndChar

StartChar: guillemotright
Encoding: 187 187 123
Width: 628
Flags: W
HStem: 508 20G<111.795 152.68 361.795 402.68>
LayerCount: 2
Fore
SplineSet
295 101 m 1
 433 278 l 1
 295 455 l 1
 387 528 l 1
 583 278 l 1
 387 28 l 1
 295 101 l 1
137 528 m 1
 333 278 l 1
 137 28 l 1
 45 101 l 1
 183 278 l 1
 45 455 l 1
 137 528 l 1
EndSplineSet
EndChar

StartChar: onequarter
Encoding: 188 188 124
Width: 805
Flags: W
HStem: 0 21G<84 213.636 603 706> 101 96<517 603 706 761> 805 20G<148.091 231 552.364 682>
VStem: 122 109<345 680> 603 103<0 101 197 334>
LayerCount: 2
Fore
SplineSet
603 334 m 1
 602 334 l 1
 517 197 l 1
 603 197 l 1
 603 334 l 1
706 197 m 1
 761 197 l 1
 761 101 l 1
 706 101 l 1
 706 0 l 1
 603 0 l 1
 603 101 l 1
 367 101 l 1
 367 134 l 1
 598 480 l 1
 706 480 l 1
 706 197 l 1
682 825 m 1
 202 0 l 1
 84 0 l 1
 564 825 l 1
 682 825 l 1
43 628 m 1
 43 737 l 1
 179 825 l 1
 231 825 l 1
 231 345 l 1
 122 345 l 1
 122 680 l 1
 43 628 l 1
EndSplineSet
EndChar

StartChar: onehalf
Encoding: 189 189 125
Width: 877
Flags: W
HStem: 0 95<653 829> 391 91<595.407 685.709> 805 20G<148.091 231 552.364 682>
VStem: 122 109<345 680> 704 116<260.806 374.092>
LayerCount: 2
Fore
SplineSet
636 391 m 0
 585 391 552 301 552 301 c 1
 462 344 l 1
 462 344 508 482 636 482 c 0
 799 482 820 375 820 316 c 0
 820 205 653 95 653 95 c 1
 829 95 l 1
 829 0 l 1
 460 0 l 1
 460 27 l 1
 460 27 704 228 704 316 c 0
 704 333 700 391 636 391 c 0
682 825 m 1
 202 0 l 1
 84 0 l 1
 564 825 l 1
 682 825 l 1
43 628 m 1
 43 737 l 1
 179 825 l 1
 231 825 l 1
 231 345 l 1
 122 345 l 1
 122 680 l 1
 43 628 l 1
EndSplineSet
EndChar

StartChar: threequarters
Encoding: 190 190 126
Width: 902
Flags: W
HStem: 0 21G<188 317.636 700 803> 101 96<614 700 803 858> 342 92<160.342 271.21> 560 69<193 257.266> 740 85<165.642 260.133>
VStem: 700 103<0 101 197 334>
LayerCount: 2
Fore
SplineSet
62 723 m 1
 62 723 85 825 216 825 c 0
 305 825 369 768 369 689 c 0
 369 651 353 622 328 602 c 1
 364 580 387 544 387 495 c 0
 387 406 314 342 214 342 c 0
 70 342 39 457 39 457 c 1
 137 505 l 1
 137 505 144 434 214 434 c 0
 313 434 338 565 193 560 c 1
 193 629 l 1
 310 629 284 740 215 740 c 0
 156 740 145 682 145 682 c 1
 62 723 l 1
700 334 m 1
 699 334 l 1
 614 197 l 1
 700 197 l 1
 700 334 l 1
803 197 m 1
 858 197 l 1
 858 101 l 1
 803 101 l 1
 803 0 l 1
 700 0 l 1
 700 101 l 1
 464 101 l 1
 464 134 l 1
 695 480 l 1
 803 480 l 1
 803 197 l 1
786 825 m 1
 306 0 l 1
 188 0 l 1
 668 825 l 1
 786 825 l 1
EndSplineSet
EndChar

StartChar: questiondown
Encoding: 191 191 127
Width: 635
Flags: W
HStem: -15 157<272.871 394.984> 609 176<272.758 383.242>
VStem: 44 204<167.504 279.923> 243 170<430.467 555 639.655 754.345>
LayerCount: 2
Fore
SplineSet
213 423 m 1xe0
 250 450 247 462 248 555 c 1xe0
 413 555 l 1xd0
 413 403 410 365 366 337 c 0
 305 298 248 295 248 224 c 0
 248 176 284 142 329 142 c 0
 401 142 436 202 447 245 c 1
 594 174 l 1
 594 169 551 -15 328 -15 c 0
 178 -15 44 83 44 224 c 0
 44 322 117 382 213 423 c 1xe0
413 697 m 0xd0
 413 649 374 609 328 609 c 0
 282 609 243 649 243 697 c 0
 243 745 282 785 328 785 c 0
 374 785 413 745 413 697 c 0xd0
EndSplineSet
EndChar

StartChar: Agrave
Encoding: 192 192 128
Width: 918
Flags: W
HStem: 0 21G<39 248.273 669.485 879> 165 165<365 551> 805 20G<362.952 553.097>
LayerCount: 2
Fore
SplineSet
314 1152 m 1
 517 976 l 1
 461 899 l 1
 223 1037 l 1
 314 1152 l 1
545 825 m 1
 879 0 l 1
 677 0 l 1
 615 165 l 1
 301 165 l 1
 241 0 l 1
 39 0 l 1
 371 825 l 1
 545 825 l 1
551 330 m 1
 457 570 l 1
 365 330 l 1
 551 330 l 1
EndSplineSet
EndChar

StartChar: Aacute
Encoding: 193 193 129
Width: 918
Flags: W
HStem: 0 21G<39 248.273 669.485 879> 165 165<365 551> 805 20G<362.952 553.097>
LayerCount: 2
Fore
SplineSet
400 976 m 1
 603 1152 l 1
 694 1037 l 1
 456 899 l 1
 400 976 l 1
545 825 m 1
 879 0 l 1
 677 0 l 1
 615 165 l 1
 301 165 l 1
 241 0 l 1
 39 0 l 1
 371 825 l 1
 545 825 l 1
551 330 m 1
 457 570 l 1
 365 330 l 1
 551 330 l 1
EndSplineSet
EndChar

StartChar: Acircumflex
Encoding: 194 194 130
Width: 918
Flags: W
HStem: 0 21G<39 248.273 669.485 879> 165 165<365 551> 805 20G<362.952 553.097>
LayerCount: 2
Fore
SplineSet
236 990 m 1
 457 1152 l 1
 678 990 l 1
 610 899 l 1
 457 1011 l 1
 304 899 l 1
 236 990 l 1
545 825 m 1
 879 0 l 1
 677 0 l 1
 615 165 l 1
 301 165 l 1
 241 0 l 1
 39 0 l 1
 371 825 l 1
 545 825 l 1
551 330 m 1
 457 570 l 1
 365 330 l 1
 551 330 l 1
EndSplineSet
EndChar

StartChar: Atilde
Encoding: 195 195 131
Width: 918
Flags: W
HStem: 0 21G<39 248.273 669.485 879> 165 165<365 551> 805 20G<362.952 553.097> 927 126<477.845 575.732> 973 126<342.268 449.382>
LayerCount: 2
Fore
SplineSet
374 973 m 0xe8
 342 973 329 927 329 927 c 1
 228 927 l 1xf0
 228 927 254 1099 364 1099 c 0xe8
 403 1099 503 1053 544 1053 c 0xf0
 576 1053 589 1099 589 1099 c 1
 690 1099 l 1xe8
 690 1099 664 927 554 927 c 0xf0
 515 927 438 973 374 973 c 0xe8
545 825 m 1
 879 0 l 1
 677 0 l 1
 615 165 l 1
 301 165 l 1
 241 0 l 1
 39 0 l 1
 371 825 l 1
 545 825 l 1
551 330 m 1
 457 570 l 1
 365 330 l 1
 551 330 l 1
EndSplineSet
EndChar

StartChar: Adieresis
Encoding: 196 196 132
Width: 918
Flags: W
HStem: 0 21G<39 248.273 669.485 879> 165 165<365 551> 805 20G<362.952 553.097> 919 184<281.401 398.599 518.401 635.599>
VStem: 248 184<952.401 1069.6> 485 184<952.401 1069.6>
LayerCount: 2
Fore
SplineSet
577 1103 m 0
 628 1103 669 1062 669 1011 c 0
 669 960 628 919 577 919 c 0
 526 919 485 960 485 1011 c 0
 485 1062 526 1103 577 1103 c 0
340 1103 m 0
 391 1103 432 1062 432 1011 c 0
 432 960 391 919 340 919 c 0
 289 919 248 960 248 1011 c 0
 248 1062 289 1103 340 1103 c 0
545 825 m 1
 879 0 l 1
 677 0 l 1
 615 165 l 1
 301 165 l 1
 241 0 l 1
 39 0 l 1
 371 825 l 1
 545 825 l 1
551 330 m 1
 457 570 l 1
 365 330 l 1
 551 330 l 1
EndSplineSet
EndChar

StartChar: Aring
Encoding: 197 197 133
Width: 918
Flags: W
HStem: 0 21G<39 248.273 669.485 879> 165 165<365 551> 805 20G<362.952 553.097> 902 79<412.729 504.743> 1107 80<413.824 504.521>
VStem: 298 100<996.459 1092.06> 520 100<996.459 1092.06>
LayerCount: 2
Fore
SplineSet
398 1045 m 0
 398 1010 423 981 459 981 c 0
 494 981 520 1010 520 1045 c 0
 520 1079 493 1107 459 1107 c 0
 426 1107 398 1079 398 1045 c 0
298 1045 m 0
 298 1128 369 1187 459 1187 c 0
 550 1187 620 1128 620 1045 c 0
 620 961 553 902 459 902 c 0
 363 902 298 961 298 1045 c 0
545 825 m 1
 879 0 l 1
 677 0 l 1
 615 165 l 1
 301 165 l 1
 241 0 l 1
 39 0 l 1
 371 825 l 1
 545 825 l 1
551 330 m 1
 457 570 l 1
 365 330 l 1
 551 330 l 1
EndSplineSet
EndChar

StartChar: AE
Encoding: 198 198 134
Width: 1264
Flags: W
HStem: 0 165<855 1210> 165 165<461 620> 331 165<855 1195> 660 165<855 1210>
VStem: 620 235<330 331 496 635>
LayerCount: 2
Fore
SplineSet
620 635 m 1x78
 461 330 l 1
 620 330 l 1
 620 635 l 1x78
378 165 m 1
 291 0 l 1
 38 0 l 1
 510 825 l 1
 1210 825 l 1
 1210 660 l 1
 855 660 l 1
 855 496 l 1
 1195 496 l 1
 1195 331 l 1
 855 331 l 1
 855 165 l 1
 1210 165 l 1
 1210 0 l 1
 620 0 l 1xb8
 620 165 l 1
 378 165 l 1
EndSplineSet
EndChar

StartChar: Ccedilla
Encoding: 199 199 135
Width: 778
Flags: W
HStem: -294 90<339.068 453.219> -120 57<417 448.52> -15 185<431.327 648.498> 655 185<407.445 648.498>
VStem: 47 204<316.701 507.757>
LayerCount: 2
Fore
SplineSet
494 -15 m 0
 474 -15 454 -14 434 -11 c 1
 417 -63 l 1
 472 -63 546 -96 546 -165 c 0
 546 -228 505 -294 394 -294 c 0
 304 -294 240 -211 240 -211 c 1
 312 -157 l 1
 312 -157 348 -204 394 -204 c 0
 490 -204 478 -120 382 -120 c 0
 346 -120 331 -129 331 -129 c 1
 362 5 l 1
 186 60 47 220 47 411 c 0
 47 648 260 840 494 840 c 0
 673 840 732 800 732 800 c 1
 692 615 l 1
 692 615 619 655 523 655 c 0
 334 655 251 523 251 413 c 0
 251 302 334 170 523 170 c 0
 619 170 692 210 692 210 c 1
 732 25 l 1
 732 25 673 -15 494 -15 c 0
EndSplineSet
EndChar

StartChar: Egrave
Encoding: 200 200 136
Width: 588
Flags: W
HStem: 0 165<249 533> 331 165<249 521> 660 165<249 533>
VStem: 61 188<165 331 496 660>
LayerCount: 2
Fore
SplineSet
533 825 m 1
 533 660 l 1
 249 660 l 1
 249 496 l 1
 521 496 l 1
 521 331 l 1
 249 331 l 1
 249 165 l 1
 533 165 l 1
 533 0 l 1
 61 0 l 1
 61 825 l 1
 533 825 l 1
145 1152 m 1
 349 976 l 1
 293 899 l 1
 55 1037 l 1
 145 1152 l 1
EndSplineSet
EndChar

StartChar: Eacute
Encoding: 201 201 137
Width: 588
Flags: W
HStem: 0 165<249 533> 331 165<249 521> 660 165<249 533>
VStem: 61 188<165 331 496 660>
LayerCount: 2
Fore
SplineSet
533 825 m 1
 533 660 l 1
 249 660 l 1
 249 496 l 1
 521 496 l 1
 521 331 l 1
 249 331 l 1
 249 165 l 1
 533 165 l 1
 533 0 l 1
 61 0 l 1
 61 825 l 1
 533 825 l 1
173 976 m 1
 376 1152 l 1
 467 1037 l 1
 229 899 l 1
 173 976 l 1
EndSplineSet
EndChar

StartChar: Ecircumflex
Encoding: 202 202 138
Width: 587
Flags: W
HStem: 0 165<249 533> 331 165<249 521> 660 165<249 533>
VStem: 61 188<165 331 496 660>
LayerCount: 2
Fore
SplineSet
533 825 m 1
 533 660 l 1
 249 660 l 1
 249 496 l 1
 521 496 l 1
 521 331 l 1
 249 331 l 1
 249 165 l 1
 533 165 l 1
 533 0 l 1
 61 0 l 1
 61 825 l 1
 533 825 l 1
70 990 m 1
 291 1152 l 1
 512 990 l 1
 444 899 l 1
 291 1011 l 1
 138 899 l 1
 70 990 l 1
EndSplineSet
EndChar

StartChar: Edieresis
Encoding: 203 203 139
Width: 588
Flags: W
HStem: 0 165<249 533> 331 165<249 521> 660 165<249 533> 919 184<113.401 230.599 350.401 467.599>
VStem: 61 188<165 331 496 660> 80 184<952.401 1069.6> 317 184<952.401 1069.6>
LayerCount: 2
Fore
SplineSet
533 825 m 1xfa
 533 660 l 1
 249 660 l 1
 249 496 l 1
 521 496 l 1
 521 331 l 1
 249 331 l 1
 249 165 l 1
 533 165 l 1
 533 0 l 1
 61 0 l 1
 61 825 l 1
 533 825 l 1xfa
409 1103 m 0
 460 1103 501 1062 501 1011 c 0
 501 960 460 919 409 919 c 0
 358 919 317 960 317 1011 c 0
 317 1062 358 1103 409 1103 c 0
172 1103 m 0
 223 1103 264 1062 264 1011 c 0
 264 960 223 919 172 919 c 0
 121 919 80 960 80 1011 c 0xf6
 80 1062 121 1103 172 1103 c 0
EndSplineSet
EndChar

StartChar: Igrave
Encoding: 204 204 140
Width: 428
Flags: W
HStem: 0 21G<176 364> 805 20G<176 364>
VStem: 176 188<0 825>
LayerCount: 2
Fore
SplineSet
364 825 m 1
 364 0 l 1
 176 0 l 1
 176 825 l 1
 364 825 l 1
125 1152 m 1
 328 976 l 1
 272 899 l 1
 34 1037 l 1
 125 1152 l 1
EndSplineSet
EndChar

StartChar: Iacute
Encoding: 205 205 141
Width: 386
Flags: W
HStem: 0 21G<61 249> 805 20G<61 249>
VStem: 61 188<0 825>
LayerCount: 2
Fore
SplineSet
249 825 m 1
 249 0 l 1
 61 0 l 1
 61 825 l 1
 249 825 l 1
57 976 m 1
 260 1152 l 1
 351 1037 l 1
 113 899 l 1
 57 976 l 1
EndSplineSet
EndChar

StartChar: Icircumflex
Encoding: 206 206 142
Width: 511
Flags: W
HStem: 0 21G<161 349> 805 20G<161 349>
VStem: 161 188<0 825>
LayerCount: 2
Fore
SplineSet
349 825 m 1
 349 0 l 1
 161 0 l 1
 161 825 l 1
 349 825 l 1
34 990 m 1
 255 1152 l 1
 476 990 l 1
 408 899 l 1
 255 1011 l 1
 102 899 l 1
 34 990 l 1
EndSplineSet
EndChar

StartChar: Idieresis
Encoding: 207 207 143
Width: 491
Flags: W
HStem: 0 21G<150 338> 805 20G<150 338> 919 184<67.4006 184.599 305.401 422.599>
VStem: 34 184<952.401 1069.6> 150 188<0 825> 272 184<952.401 1069.6>
LayerCount: 2
Fore
SplineSet
338 825 m 1xe8
 338 0 l 1
 150 0 l 1
 150 825 l 1
 338 825 l 1xe8
364 1103 m 0
 415 1103 456 1062 456 1011 c 0
 456 960 415 919 364 919 c 0
 313 919 272 960 272 1011 c 0xe4
 272 1062 313 1103 364 1103 c 0
126 1103 m 0
 177 1103 218 1062 218 1011 c 0
 218 960 177 919 126 919 c 0
 75 919 34 960 34 1011 c 0xf0
 34 1062 75 1103 126 1103 c 0
EndSplineSet
EndChar

StartChar: Eth
Encoding: 208 208 144
Width: 833
Flags: W
HStem: 0 168<314 447.575> 657 168<314 447.575>
VStem: 126 188<168 336 489 657> 580 201<293.486 531.414>
LayerCount: 2
Fore
SplineSet
580 412 m 0
 580 556 517 657 314 657 c 1
 314 489 l 1
 429 461 l 1
 429 372 l 1
 314 336 l 1
 314 168 l 1
 517 168 580 268 580 412 c 0
126 489 m 1
 126 825 l 1
 365 825 l 2
 591 825 781 653 781 413 c 0
 781 172 592 0 365 0 c 2
 126 0 l 1
 126 336 l 1
 44 372 l 1
 44 461 l 1
 126 489 l 1
EndSplineSet
EndChar

StartChar: Ntilde
Encoding: 209 209 145
Width: 831
Flags: W
HStem: 0 21G<61 249 742.566 767> 805 20G<61 85.2824 578.906 767> 927 126<432.845 530.732> 973 126<297.268 404.382>
VStem: 61 188<0 424> 577 190<400 825>
LayerCount: 2
Fore
SplineSet
329 973 m 0xdc
 297 973 284 927 284 927 c 1
 183 927 l 1xec
 183 927 209 1099 319 1099 c 0xdc
 358 1099 458 1053 499 1053 c 0xec
 531 1053 544 1099 544 1099 c 1
 645 1099 l 1xdc
 645 1099 619 927 509 927 c 0xec
 470 927 393 973 329 973 c 0xdc
61 0 m 1
 61 825 l 1
 577 400 l 1
 579 825 l 1
 767 825 l 1
 767 0 l 1
 249 424 l 1
 249 0 l 1
 61 0 l 1
EndSplineSet
EndChar

StartChar: Ograve
Encoding: 210 210 146
Width: 930
Flags: W
HStem: -15 198<377.025 548.866> 642 198<377.025 548.866>
VStem: 47 205<315.937 509.94> 673 205<315.937 509.94>
LayerCount: 2
Fore
SplineSet
252 413 m 0
 252 288 345 183 463 183 c 0
 581 183 673 288 673 413 c 0
 673 538 581 642 463 642 c 0
 345 642 252 538 252 413 c 0
47 413 m 0
 47 645 231 840 463 840 c 0
 695 840 878 645 878 413 c 0
 878 181 695 -15 463 -15 c 0
 231 -15 47 181 47 413 c 0
317 1152 m 1
 521 976 l 1
 465 899 l 1
 227 1037 l 1
 317 1152 l 1
EndSplineSet
EndChar

StartChar: Oacute
Encoding: 211 211 147
Width: 930
Flags: W
HStem: -15 198<377.025 548.866> 642 198<377.025 548.866>
VStem: 47 205<315.937 509.94> 673 205<315.937 509.94>
LayerCount: 2
Fore
SplineSet
252 413 m 0
 252 288 345 183 463 183 c 0
 581 183 673 288 673 413 c 0
 673 538 581 642 463 642 c 0
 345 642 252 538 252 413 c 0
47 413 m 0
 47 645 231 840 463 840 c 0
 695 840 878 645 878 413 c 0
 878 181 695 -15 463 -15 c 0
 231 -15 47 181 47 413 c 0
365 976 m 1
 567 1152 l 1
 659 1037 l 1
 421 899 l 1
 365 976 l 1
EndSplineSet
EndChar

StartChar: Ocircumflex
Encoding: 212 212 148
Width: 930
Flags: W
HStem: -15 198<377.025 548.866> 642 198<377.025 548.866>
VStem: 47 205<315.937 509.94> 673 205<315.937 509.94>
LayerCount: 2
Fore
SplineSet
252 413 m 0
 252 288 345 183 463 183 c 0
 581 183 673 288 673 413 c 0
 673 538 581 642 463 642 c 0
 345 642 252 538 252 413 c 0
47 413 m 0
 47 645 231 840 463 840 c 0
 695 840 878 645 878 413 c 0
 878 181 695 -15 463 -15 c 0
 231 -15 47 181 47 413 c 0
241 990 m 1
 463 1152 l 1
 683 990 l 1
 615 899 l 1
 463 1011 l 1
 309 899 l 1
 241 990 l 1
EndSplineSet
EndChar

StartChar: Otilde
Encoding: 213 213 149
Width: 930
Flags: W
HStem: -15 198<377.025 548.866> 642 198<377.025 548.866> 927 126<480.845 581.278> 973 126<345.507 452.382>
VStem: 47 205<315.937 509.94> 673 205<315.937 509.94>
LayerCount: 2
Fore
SplineSet
252 413 m 0xcc
 252 288 345 183 463 183 c 0
 581 183 673 288 673 413 c 0
 673 538 581 642 463 642 c 0
 345 642 252 538 252 413 c 0xcc
47 413 m 0
 47 645 231 840 463 840 c 0
 695 840 878 645 878 413 c 0
 878 181 695 -15 463 -15 c 0
 231 -15 47 181 47 413 c 0
377 973 m 0xdc
 345 973 333 927 333 927 c 1
 231 927 l 1xec
 231 927 257 1099 367 1099 c 0xdc
 406 1099 506 1053 547 1053 c 0xec
 579 1053 593 1099 593 1099 c 1
 693 1099 l 1xdc
 693 1099 667 927 557 927 c 0xec
 518 927 441 973 377 973 c 0xdc
EndSplineSet
EndChar

StartChar: Odieresis
Encoding: 214 214 150
Width: 930
Flags: W
HStem: -15 198<377.025 548.866> 642 198<377.025 548.866> 919 184<286.401 403.599 522.401 639.599>
VStem: 47 205<315.937 509.94> 253 184<952.401 1069.6> 489 184<952.401 1069.6> 673 205<315.937 509.94>
LayerCount: 2
Fore
SplineSet
252 413 m 0xfa
 252 288 345 183 463 183 c 0
 581 183 673 288 673 413 c 0
 673 538 581 642 463 642 c 0
 345 642 252 538 252 413 c 0xfa
47 413 m 0
 47 645 231 840 463 840 c 0
 695 840 878 645 878 413 c 0
 878 181 695 -15 463 -15 c 0
 231 -15 47 181 47 413 c 0
581 1103 m 0
 632 1103 673 1062 673 1011 c 0
 673 960 632 919 581 919 c 0
 530 919 489 960 489 1011 c 0xfc
 489 1062 530 1103 581 1103 c 0
345 1103 m 0
 396 1103 437 1062 437 1011 c 0
 437 960 396 919 345 919 c 0
 294 919 253 960 253 1011 c 0
 253 1062 294 1103 345 1103 c 0
EndSplineSet
EndChar

StartChar: multiply
Encoding: 215 215 151
Width: 612
Flags: W
LayerCount: 2
Fore
SplineSet
565 262 m 1
 458 154 l 1
 305 307 l 1
 152 154 l 1
 44 263 l 1
 196 415 l 1
 44 568 l 1
 152 675 l 1
 304 523 l 1
 457 675 l 1
 565 567 l 1
 412 414 l 1
 565 262 l 1
EndSplineSet
EndChar

StartChar: Oslash
Encoding: 216 216 152
Width: 930
Flags: W
HStem: -15 198<384.719 548.866> 642 198<377.025 541.281>
VStem: 47 205<311.586 509.94> 673 205<315.937 514.642>
LayerCount: 2
Fore
SplineSet
723 853 m 1
 835 767 l 1
 776 693 l 1
 840 617 878 519 878 413 c 0
 878 181 695 -15 463 -15 c 0
 388 -15 318 5 258 41 c 1
 203 -27 l 1
 91 59 l 1
 150 132 l 1
 86 208 47 307 47 413 c 0
 47 645 231 840 463 840 c 0
 538 840 608 819 668 784 c 1
 723 853 l 1
645 528 m 1
 384 200 l 1
 408 189 435 183 463 183 c 0
 581 183 673 288 673 413 c 0
 673 455 663 494 645 528 c 1
542 626 m 1
 518 637 491 642 463 642 c 0
 345 642 252 538 252 413 c 0
 252 371 263 331 281 297 c 1
 542 626 l 1
EndSplineSet
EndChar

StartChar: Ugrave
Encoding: 217 217 153
Width: 762
Flags: W
HStem: -15 185<295.929 464.071> 805 20G<58 246 514 702>
VStem: 58 188<229.657 825> 514 188<229.657 825>
LayerCount: 2
Fore
SplineSet
514 825 m 1
 702 825 l 1
 702 293 l 2
 702 89 590 -15 380 -15 c 0
 170 -15 58 89 58 293 c 2
 58 825 l 1
 246 825 l 1
 246 348 l 2
 246 210 288 170 380 170 c 0
 472 170 514 210 514 348 c 2
 514 825 l 1
236 1152 m 1
 438 976 l 1
 382 899 l 1
 144 1037 l 1
 236 1152 l 1
EndSplineSet
EndChar

StartChar: Uacute
Encoding: 218 218 154
Width: 762
Flags: W
HStem: -15 185<295.929 464.071> 805 20G<58 246 514 702>
VStem: 58 188<229.657 825> 514 188<229.657 825>
LayerCount: 2
Fore
SplineSet
514 825 m 1
 702 825 l 1
 702 293 l 2
 702 89 590 -15 380 -15 c 0
 170 -15 58 89 58 293 c 2
 58 825 l 1
 246 825 l 1
 246 348 l 2
 246 210 288 170 380 170 c 0
 472 170 514 210 514 348 c 2
 514 825 l 1
262 976 m 1
 466 1152 l 1
 556 1037 l 1
 318 899 l 1
 262 976 l 1
EndSplineSet
EndChar

StartChar: Ucircumflex
Encoding: 219 219 155
Width: 762
Flags: W
HStem: -15 185<295.929 464.071> 805 20G<58 246 514 702>
VStem: 58 188<229.657 825> 514 188<229.657 825>
LayerCount: 2
Fore
SplineSet
514 825 m 1
 702 825 l 1
 702 293 l 2
 702 89 590 -15 380 -15 c 0
 170 -15 58 89 58 293 c 2
 58 825 l 1
 246 825 l 1
 246 348 l 2
 246 210 288 170 380 170 c 0
 472 170 514 210 514 348 c 2
 514 825 l 1
160 990 m 1
 380 1152 l 1
 602 990 l 1
 534 899 l 1
 380 1011 l 1
 228 899 l 1
 160 990 l 1
EndSplineSet
EndChar

StartChar: Udieresis
Encoding: 220 220 156
Width: 762
Flags: W
HStem: -15 185<295.929 464.071> 805 20G<58 246 514 702> 919 184<203.401 320.599 439.401 556.599>
VStem: 58 188<229.657 825> 170 184<952.401 1069.6> 406 184<952.401 1069.6> 514 188<229.657 825>
LayerCount: 2
Fore
SplineSet
514 825 m 1xf2
 702 825 l 1
 702 293 l 2
 702 89 590 -15 380 -15 c 0
 170 -15 58 89 58 293 c 2
 58 825 l 1
 246 825 l 1
 246 348 l 2
 246 210 288 170 380 170 c 0
 472 170 514 210 514 348 c 2
 514 825 l 1xf2
498 1103 m 0
 549 1103 590 1062 590 1011 c 0
 590 960 549 919 498 919 c 0
 447 919 406 960 406 1011 c 0xe4
 406 1062 447 1103 498 1103 c 0
262 1103 m 0
 313 1103 354 1062 354 1011 c 0
 354 960 313 919 262 919 c 0
 211 919 170 960 170 1011 c 0xe8
 170 1062 211 1103 262 1103 c 0
EndSplineSet
EndChar

StartChar: Yacute
Encoding: 221 221 157
Width: 869
Flags: W
HStem: 0 21G<340 528> 805 20G<36 275.03 592.97 832>
VStem: 340 188<0 370>
LayerCount: 2
Fore
SplineSet
36 825 m 1
 262 825 l 1
 434 561 l 1
 606 825 l 1
 832 825 l 1
 528 370 l 1
 528 0 l 1
 340 0 l 1
 340 370 l 1
 36 825 l 1
316 976 m 1
 520 1152 l 1
 610 1037 l 1
 372 899 l 1
 316 976 l 1
EndSplineSet
EndChar

StartChar: Thorn
Encoding: 222 222 158
Width: 696
Flags: W
HStem: 0 21G<62 250> 153 150<250 391.71> 522 150<250 391.71> 805 20G<62 250>
VStem: 62 188<0 153 303 522 672 825> 442 203<348.07 478.687>
LayerCount: 2
Fore
SplineSet
250 303 m 1
 302 303 l 2
 376 303 442 329 442 412 c 0
 442 496 376 522 302 522 c 2
 250 522 l 1
 250 303 l 1
250 825 m 1
 250 672 l 1
 362 672 l 2
 523 672 645 589 645 418 c 0
 645 248 523 153 362 153 c 2
 250 153 l 1
 250 0 l 1
 62 0 l 1
 62 825 l 1
 250 825 l 1
EndSplineSet
EndChar

StartChar: germandbls
Encoding: 223 223 159
Width: 657
Flags: W
HStem: 0 21G<60.9692 229 272 300.793>
VStem: 61 168<0 707.774> 403 178<577.442 689.738> 428 178<189.522 312.551>
LayerCount: 2
Fore
SplineSet
581 638 m 1xe0
 581 535 535 484 473 444 c 1
 566 398 606 315 606 232 c 0
 606 -7 272 0 272 0 c 1
 272 142 l 1
 261 167 428 131 428 244 c 0xd0
 428 341 330 363 291 392 c 1
 291 509 l 2
 291 568 403 543 403 626 c 0
 402 718 338 733 272 724 c 0
 235 719 229 653 229 584 c 2
 229 0 l 1
 61 0 l 1
 60 650 l 2
 59 982 606 929 581 638 c 1xe0
EndSplineSet
EndChar

StartChar: agrave
Encoding: 224 224 160
Width: 709
Flags: W
HStem: -15 151<287.058 402.277> 0 21G<473 648> 377 151<288.146 423.195> 820 20G<205 243.955>
VStem: 49 188<186.537 325.882> 473 175<0 58 180.338 330.189>
LayerCount: 2
Fore
SplineSet
237 256 m 0xbc
 237 186 285 136 357 136 c 0
 426 136 475 186 475 256 c 0
 475 327 423 377 357 377 c 0
 290 377 237 327 237 256 c 0xbc
648 454 m 2
 648 0 l 1
 473 0 l 1x7c
 473 58 l 1
 435 16 373 -15 303 -15 c 0
 153 -15 49 106 49 256 c 0
 49 406 153 528 303 528 c 0
 372 528 648 541 648 454 c 2
221 840 m 1
 423 664 l 1
 367 587 l 1
 129 725 l 1
 221 840 l 1
EndSplineSet
EndChar

StartChar: aacute
Encoding: 225 225 161
Width: 710
Flags: W
HStem: -15 151<288.058 403.277> 0 21G<474 649> 377 151<289.146 424.195> 820 20G<488.818 527.652>
VStem: 50 188<186.537 325.882> 474 175<0 58 180.338 330.189>
LayerCount: 2
Fore
SplineSet
238 256 m 0xbc
 238 186 286 136 358 136 c 0
 427 136 476 186 476 256 c 0
 476 327 424 377 358 377 c 0
 291 377 238 327 238 256 c 0xbc
649 454 m 2
 649 0 l 1
 474 0 l 1x7c
 474 58 l 1
 436 16 374 -15 304 -15 c 0
 154 -15 50 106 50 256 c 0
 50 406 154 528 304 528 c 0
 373 528 649 541 649 454 c 2
308 664 m 1
 512 840 l 1
 602 725 l 1
 364 587 l 1
 308 664 l 1
EndSplineSet
EndChar

StartChar: acircumflex
Encoding: 226 226 162
Width: 709
Flags: W
HStem: -15 151<287.058 402.277> 0 21G<473 648> 377 151<288.146 423.195> 820 20G<337.84 392.407>
VStem: 49 188<186.537 325.882> 473 175<0 58 180.338 330.189>
LayerCount: 2
Fore
SplineSet
237 256 m 0xbc
 237 186 285 136 357 136 c 0
 426 136 475 186 475 256 c 0
 475 327 423 377 357 377 c 0
 290 377 237 327 237 256 c 0xbc
648 454 m 2
 648 0 l 1
 473 0 l 1x7c
 473 58 l 1
 435 16 373 -15 303 -15 c 0
 153 -15 49 106 49 256 c 0
 49 406 153 528 303 528 c 0
 372 528 648 541 648 454 c 2
145 678 m 1
 365 840 l 1
 587 678 l 1
 519 587 l 1
 365 699 l 1
 213 587 l 1
 145 678 l 1
EndSplineSet
EndChar

StartChar: atilde
Encoding: 227 227 163
Width: 710
Flags: W
HStem: -15 151<288.058 403.277> 0 21G<474 649> 377 151<289.146 424.195> 615 126<385.845 483.493> 661 126<247.722 357.382>
VStem: 50 188<186.537 325.882> 474 175<0 58 180.338 330.189>
LayerCount: 2
Fore
SplineSet
238 256 m 0xa6
 238 186 286 136 358 136 c 0
 427 136 476 186 476 256 c 0
 476 327 424 377 358 377 c 0
 291 377 238 327 238 256 c 0xa6
649 454 m 2
 649 0 l 1
 474 0 l 1x66
 474 58 l 1
 436 16 374 -15 304 -15 c 0
 154 -15 50 106 50 256 c 0
 50 406 154 528 304 528 c 0
 373 528 649 541 649 454 c 2
282 661 m 0x2e
 250 661 236 615 236 615 c 1
 136 615 l 1x36
 136 615 162 787 272 787 c 0x2e
 311 787 411 741 452 741 c 0x36
 484 741 496 787 496 787 c 1
 598 787 l 1x2e
 598 787 572 615 462 615 c 0x36
 423 615 346 661 282 661 c 0x2e
EndSplineSet
EndChar

StartChar: adieresis
Encoding: 228 228 164
Width: 709
Flags: W
HStem: -15 151<287.058 402.277> 0 21G<473 648> 377 151<288.146 423.195> 607 184<188.401 305.599 426.401 543.599>
VStem: 49 188<186.537 325.882> 155 184<640.401 757.599> 393 184<640.401 757.599> 473 175<0 58 180.338 330.189>
LayerCount: 2
Fore
SplineSet
237 256 m 0xb8
 237 186 285 136 357 136 c 0
 426 136 475 186 475 256 c 0
 475 327 423 377 357 377 c 0
 290 377 237 327 237 256 c 0xb8
648 454 m 2xb9
 648 0 l 1
 473 0 l 1x79
 473 58 l 1
 435 16 373 -15 303 -15 c 0
 153 -15 49 106 49 256 c 0
 49 406 153 528 303 528 c 0
 372 528 648 541 648 454 c 2xb9
485 791 m 0
 536 791 577 750 577 699 c 0
 577 648 536 607 485 607 c 0
 434 607 393 648 393 699 c 0x32
 393 750 434 791 485 791 c 0
247 791 m 0
 298 791 339 750 339 699 c 0
 339 648 298 607 247 607 c 0
 196 607 155 648 155 699 c 0x34
 155 750 196 791 247 791 c 0
EndSplineSet
EndChar

StartChar: aring
Encoding: 229 229 165
Width: 709
Flags: W
HStem: -15 151<287.058 402.277> 0 21G<473 648> 377 151<288.146 423.195> 590 79<321.025 411.055> 795 80<320.149 410.845>
VStem: 49 188<186.537 325.882> 205 100<683.975 780.539> 427 100<684.958 778.363> 473 175<0 58 180.338 330.189>
LayerCount: 2
Fore
SplineSet
237 256 m 0xbc
 237 186 285 136 357 136 c 0
 426 136 475 186 475 256 c 0
 475 327 423 377 357 377 c 0
 290 377 237 327 237 256 c 0xbc
648 454 m 2xbc80
 648 0 l 1
 473 0 l 1x7c80
 473 58 l 1
 435 16 373 -15 303 -15 c 0
 153 -15 49 106 49 256 c 0
 49 406 153 528 303 528 c 0
 372 528 648 541 648 454 c 2xbc80
305 733 m 0x3b
 305 698 329 669 365 669 c 0
 400 669 427 698 427 733 c 0
 427 767 399 795 365 795 c 0
 332 795 305 767 305 733 c 0x3b
205 733 m 0
 205 816 275 875 365 875 c 0
 456 875 527 816 527 733 c 0
 527 649 459 590 365 590 c 0
 269 590 205 649 205 733 c 0
EndSplineSet
EndChar

StartChar: ae
Encoding: 230 230 166
Width: 997
Flags: W
HStem: -15 141<613.192 765.915> -15 106<183.5 357.506> 207 94<172 354.08> 232 98<576 771> 387 141<154.156 347.061> 413 115<606.256 739.051>
VStem: 47 176<109.143 190.879>
LayerCount: 2
Fore
SplineSet
223 151 m 0x62
 223 115 255 91 302 91 c 0
 349 91 387 121 387 151 c 0
 387 181 349 207 302 207 c 0
 255 207 223 187 223 151 c 0x62
576 330 m 1x16
 771 330 l 1
 763 384 726 413 674 413 c 0
 613 413 579 377 576 330 c 1x16
136 357 m 1
 80 478 l 1
 80 478 144 528 275 528 c 0x6a
 337 528 425 513 487 464 c 1
 536 504 600 528 669 528 c 0
 825 528 944 436 944 256 c 0
 944 249 944 238 943 232 c 1
 571 232 l 1
 571 153 637 126 682 126 c 0
 739 126 764 137 807 183 c 1
 935 119 l 1
 877 22 783 -15 669 -15 c 0x96
 584 -15 508 21 456 79 c 1
 456 79 394 -15 237 -15 c 0
 130 -15 47 43 47 136 c 0
 47 228 114 301 230 301 c 0
 315 301 364 278 387 262 c 1
 387 299 l 2
 387 355 326 387 275 387 c 0x6a
 183 387 136 357 136 357 c 1
EndSplineSet
EndChar

StartChar: ccedilla
Encoding: 231 231 167
Width: 552
Flags: W
HStem: -294 90<222.068 336.219> -120 57<300 331.52> -15 145<313.118 451.309> 383 145<292.259 449.899>
VStem: 50 188<185.414 325.466>
LayerCount: 2
Fore
SplineSet
506 31 m 1
 506 31 448 -15 334 -15 c 0
 328 -15 322 -15 316 -14 c 1
 300 -63 l 1
 355 -63 429 -96 429 -165 c 0
 429 -228 388 -294 277 -294 c 0
 187 -294 123 -211 123 -211 c 1
 195 -157 l 1
 195 -157 231 -204 277 -204 c 0
 373 -204 361 -120 265 -120 c 0
 229 -120 214 -129 214 -129 c 1
 243 0 l 1
 135 36 50 136 50 255 c 0
 50 406 185 528 334 528 c 0
 448 528 506 480 506 480 c 1
 446 359 l 1
 446 359 413 383 360 383 c 0
 293 383 238 327 238 257 c 0
 238 186 293 130 360 130 c 0
 413 130 446 154 446 154 c 1
 506 31 l 1
EndSplineSet
EndChar

StartChar: egrave
Encoding: 232 232 168
Width: 656
Flags: W
HStem: -15 21G<253.5 388> 227 90<237 433> 413 115<274.337 390.717> 820 20G<165.348 204.182>
VStem: 49 184<169.341 227 317 360.092>
LayerCount: 2
Fore
SplineSet
237 317 m 1
 433 317 l 1
 425 371 387 413 335 413 c 0
 274 413 240 364 237 317 c 1
469 173 m 1
 597 119 l 1
 539 22 445 -15 331 -15 c 0
 176 -15 49 107 49 256 c 0
 49 406 176 528 331 528 c 0
 487 528 605 418 605 227 c 1
 233 227 l 1
 233 141 356 60 469 173 c 1
181 840 m 1
 385 664 l 1
 329 587 l 1
 91 725 l 1
 181 840 l 1
EndSplineSet
EndChar

StartChar: eacute
Encoding: 233 233 169
Width: 655
Flags: W
HStem: -15 21G<253.5 388> 227 90<237 433> 413 115<274.337 390.717> 820 20G<447.932 486.826>
VStem: 49 184<169.341 227 317 360.092>
LayerCount: 2
Fore
SplineSet
237 317 m 1
 433 317 l 1
 425 371 387 413 335 413 c 0
 274 413 240 364 237 317 c 1
469 173 m 1
 597 119 l 1
 539 22 445 -15 331 -15 c 0
 176 -15 49 107 49 256 c 0
 49 406 176 528 331 528 c 0
 487 528 605 418 605 227 c 1
 233 227 l 1
 233 141 356 60 469 173 c 1
268 664 m 1
 471 840 l 1
 562 725 l 1
 324 587 l 1
 268 664 l 1
EndSplineSet
EndChar

StartChar: ecircumflex
Encoding: 234 234 170
Width: 654
Flags: W
HStem: -15 21G<252.5 387> 227 90<236 432> 413 115<273.337 389.717> 820 20G<297.716 352.284>
VStem: 48 184<169.341 227 317 360.092>
LayerCount: 2
Fore
SplineSet
236 317 m 1
 432 317 l 1
 424 371 386 413 334 413 c 0
 273 413 239 364 236 317 c 1
468 173 m 1
 596 119 l 1
 538 22 444 -15 330 -15 c 0
 175 -15 48 107 48 256 c 0
 48 406 175 528 330 528 c 0
 486 528 604 418 604 227 c 1
 232 227 l 1
 232 141 355 60 468 173 c 1
104 678 m 1
 325 840 l 1
 546 678 l 1
 478 587 l 1
 325 699 l 1
 172 587 l 1
 104 678 l 1
EndSplineSet
EndChar

StartChar: edieresis
Encoding: 235 235 171
Width: 655
Flags: W
HStem: -15 21G<253.5 388> 227 90<237 433> 413 115<274.337 390.717> 607 184<150.401 267.599 386.401 503.599>
VStem: 49 184<169.341 227 317 360.092> 117 184<640.401 757.599> 353 184<640.401 757.599>
LayerCount: 2
Fore
SplineSet
237 317 m 1xf2
 433 317 l 1
 425 371 387 413 335 413 c 0
 274 413 240 364 237 317 c 1xf2
469 173 m 1
 597 119 l 1
 539 22 445 -15 331 -15 c 0
 176 -15 49 107 49 256 c 0
 49 406 176 528 331 528 c 0
 487 528 605 418 605 227 c 1
 233 227 l 1xfa
 233 141 356 60 469 173 c 1
445 791 m 0
 496 791 537 750 537 699 c 0
 537 648 496 607 445 607 c 0
 394 607 353 648 353 699 c 0
 353 750 394 791 445 791 c 0
209 791 m 0
 260 791 301 750 301 699 c 0
 301 648 260 607 209 607 c 0
 158 607 117 648 117 699 c 0xf6
 117 750 158 791 209 791 c 0
EndSplineSet
EndChar

StartChar: igrave
Encoding: 236 236 172
Width: 422
Flags: W
HStem: 0 21G<183 360> 493 20G<183 360> 820 20G<111.174 150.068>
VStem: 183 177<0 513>
LayerCount: 2
Fore
SplineSet
183 513 m 1
 360 513 l 1
 360 0 l 1
 183 0 l 1
 183 513 l 1
127 840 m 1
 330 664 l 1
 274 587 l 1
 36 725 l 1
 127 840 l 1
EndSplineSet
EndChar

StartChar: iacute
Encoding: 237 237 173
Width: 420
Flags: W
HStem: 0 21G<59 236> 493 20G<59 236> 820 20G<268.932 307.826>
VStem: 59 177<0 513>
LayerCount: 2
Fore
SplineSet
59 513 m 1
 236 513 l 1
 236 0 l 1
 59 0 l 1
 59 513 l 1
89 664 m 1
 292 840 l 1
 383 725 l 1
 145 587 l 1
 89 664 l 1
EndSplineSet
EndChar

StartChar: icircumflex
Encoding: 238 238 174
Width: 518
Flags: W
HStem: 0 21G<169 346> 493 20G<169 346> 820 20G<229.84 284.407>
VStem: 169 177<0 513>
LayerCount: 2
Fore
SplineSet
169 513 m 1
 346 513 l 1
 346 0 l 1
 169 0 l 1
 169 513 l 1
37 678 m 1
 257 840 l 1
 479 678 l 1
 411 587 l 1
 257 699 l 1
 105 587 l 1
 37 678 l 1
EndSplineSet
EndChar

StartChar: idieresis
Encoding: 239 239 175
Width: 502
Flags: W
HStem: 0 21G<162 339> 493 20G<162 339> 607 184<73.4006 190.599 309.401 426.599>
VStem: 40 184<640.401 757.599> 162 177<0 513> 276 184<640.401 757.599>
LayerCount: 2
Fore
SplineSet
162 513 m 1xe8
 339 513 l 1
 339 0 l 1
 162 0 l 1
 162 513 l 1xe8
368 791 m 0
 419 791 460 750 460 699 c 0
 460 648 419 607 368 607 c 0
 317 607 276 648 276 699 c 0xe4
 276 750 317 791 368 791 c 0
132 791 m 0
 183 791 224 750 224 699 c 0
 224 648 183 607 132 607 c 0
 81 607 40 648 40 699 c 0xf0
 40 750 81 791 132 791 c 0
EndSplineSet
EndChar

StartChar: eth
Encoding: 240 240 176
Width: 717
Flags: W
HStem: -15 151<283.868 424.31> 377 151<288.259 393.97>
VStem: 48 188<185.202 325.414> 476 188<185.493 321.741>
LayerCount: 2
Fore
SplineSet
236 256 m 0
 236 186 284 136 356 136 c 0
 425 136 476 186 476 256 c 2
 476 261 l 2
 473 329 420 377 356 377 c 0
 289 377 236 327 236 256 c 0
48 256 m 0
 48 424 196 528 306 528 c 0
 320 528 367 528 396 512 c 1
 363 559 322 597 280 627 c 1
 196 545 l 1
 120 622 l 1
 182 684 l 1
 119 714 70 725 70 725 c 1
 112 875 l 1
 112 875 197 856 300 803 c 1
 374 875 l 1
 450 797 l 1
 398 745 l 1
 532 651 664 498 664 256 c 0
 664 98 535 -15 358 -15 c 0
 173 -15 48 98 48 256 c 0
EndSplineSet
EndChar

StartChar: ntilde
Encoding: 241 241 177
Width: 681
Flags: W
HStem: 0 21G<59 243 445 622> 384 144<276.575 412.462> 500 20G<59 199> 615 126<348.845 446.493> 661 126<210.722 320.382>
VStem: 59 184<0 349.74> 445 177<0 346.738>
LayerCount: 2
Fore
SplineSet
245 661 m 0x8e
 213 661 199 615 199 615 c 1
 99 615 l 1x96
 99 615 125 787 235 787 c 0x8e
 274 787 374 741 415 741 c 0x96
 447 741 459 787 459 787 c 1
 561 787 l 1x8e
 561 787 535 615 425 615 c 0x96
 386 615 309 661 245 661 c 0x8e
243 0 m 1
 59 0 l 1
 59 520 l 1
 199 520 l 1xa6
 199 491 l 1
 233 514 280 528 345 528 c 0
 537 528 622 459 622 287 c 2
 622 0 l 1
 445 0 l 1
 445 244 l 2
 445 345 419 384 345 384 c 0xc6
 271 384 243 345 243 244 c 2
 243 0 l 1
EndSplineSet
EndChar

StartChar: ograve
Encoding: 242 242 178
Width: 709
Flags: W
HStem: -15 155<283.859 422.891> 373 155<285.078 421.683> 820 20G<191.174 230.068>
VStem: 48 182<194.152 318.033> 475 182<194.152 318.033>
LayerCount: 2
Fore
SplineSet
230 256 m 0
 230 194 286 140 353 140 c 0
 420 140 475 194 475 256 c 0
 475 318 420 373 353 373 c 0
 286 373 230 318 230 256 c 0
48 256 m 0
 48 401 187 528 354 528 c 0
 521 528 657 401 657 256 c 0
 657 111 521 -15 354 -15 c 0
 187 -15 48 111 48 256 c 0
207 840 m 1
 410 664 l 1
 354 587 l 1
 116 725 l 1
 207 840 l 1
EndSplineSet
EndChar

StartChar: oacute
Encoding: 243 243 179
Width: 710
Flags: W
HStem: -15 155<284.859 423.891> 373 155<286.078 422.683> 820 20G<434.932 473.826>
VStem: 49 182<194.152 318.033> 476 182<194.152 318.033>
LayerCount: 2
Fore
SplineSet
231 256 m 0
 231 194 287 140 354 140 c 0
 421 140 476 194 476 256 c 0
 476 318 421 373 354 373 c 0
 287 373 231 318 231 256 c 0
49 256 m 0
 49 401 188 528 355 528 c 0
 522 528 658 401 658 256 c 0
 658 111 522 -15 355 -15 c 0
 188 -15 49 111 49 256 c 0
255 664 m 1
 458 840 l 1
 549 725 l 1
 311 587 l 1
 255 664 l 1
EndSplineSet
EndChar

StartChar: ocircumflex
Encoding: 244 244 180
Width: 709
Flags: W
HStem: -15 155<283.859 422.891> 373 155<285.078 421.683> 820 20G<324.593 379.16>
VStem: 48 182<194.152 318.033> 475 182<194.152 318.033>
LayerCount: 2
Fore
SplineSet
230 256 m 0
 230 194 286 140 353 140 c 0
 420 140 475 194 475 256 c 0
 475 318 420 373 353 373 c 0
 286 373 230 318 230 256 c 0
48 256 m 0
 48 401 187 528 354 528 c 0
 521 528 657 401 657 256 c 0
 657 111 521 -15 354 -15 c 0
 187 -15 48 111 48 256 c 0
130 678 m 1
 352 840 l 1
 572 678 l 1
 504 587 l 1
 352 699 l 1
 198 587 l 1
 130 678 l 1
EndSplineSet
EndChar

StartChar: otilde
Encoding: 245 245 181
Width: 709
Flags: W
HStem: -15 155<283.859 422.891> 373 155<285.078 421.683> 615 126<370.845 468.732> 661 126<235.268 342.382>
VStem: 48 182<194.152 318.033> 475 182<194.152 318.033>
LayerCount: 2
Fore
SplineSet
230 256 m 0xcc
 230 194 286 140 353 140 c 0
 420 140 475 194 475 256 c 0
 475 318 420 373 353 373 c 0
 286 373 230 318 230 256 c 0xcc
48 256 m 0
 48 401 187 528 354 528 c 0
 521 528 657 401 657 256 c 0
 657 111 521 -15 354 -15 c 0
 187 -15 48 111 48 256 c 0
267 661 m 0xdc
 235 661 222 615 222 615 c 1
 121 615 l 1xec
 121 615 147 787 257 787 c 0xdc
 296 787 396 741 437 741 c 0xec
 469 741 482 787 482 787 c 1
 583 787 l 1xdc
 583 787 557 615 447 615 c 0xec
 408 615 331 661 267 661 c 0xdc
EndSplineSet
EndChar

StartChar: odieresis
Encoding: 246 246 182
Width: 709
Flags: W
HStem: -15 155<283.859 422.891> 373 155<285.078 421.683> 607 184<175.401 292.599 411.401 528.599>
VStem: 48 182<194.152 318.033> 142 184<640.401 757.599> 378 184<640.401 757.599> 475 182<194.152 318.033>
LayerCount: 2
Fore
SplineSet
230 256 m 0xf2
 230 194 286 140 353 140 c 0
 420 140 475 194 475 256 c 0
 475 318 420 373 353 373 c 0
 286 373 230 318 230 256 c 0xf2
48 256 m 0
 48 401 187 528 354 528 c 0
 521 528 657 401 657 256 c 0
 657 111 521 -15 354 -15 c 0
 187 -15 48 111 48 256 c 0
470 791 m 0
 521 791 562 750 562 699 c 0
 562 648 521 607 470 607 c 0
 419 607 378 648 378 699 c 0xe4
 378 750 419 791 470 791 c 0
234 791 m 0
 285 791 326 750 326 699 c 0
 326 648 285 607 234 607 c 0
 183 607 142 648 142 699 c 0xe8
 142 750 183 791 234 791 c 0
EndSplineSet
EndChar

StartChar: divide
Encoding: 247 247 183
Width: 617
Flags: W
HStem: 109 162<251.282 360.418> 338 153<50 563> 558 162<251.282 360.418>
VStem: 225 162<135.282 244.418 584.282 693.418>
CounterMasks: 1 e0
LayerCount: 2
Fore
SplineSet
305 271 m 0
 351 271 387 235 387 189 c 0
 387 145 351 109 305 109 c 0
 261 109 225 145 225 189 c 0
 225 235 261 271 305 271 c 0
50 491 m 1
 563 491 l 1
 563 338 l 1
 50 338 l 1
 50 491 l 1
305 720 m 0
 351 720 387 684 387 638 c 0
 387 594 351 558 305 558 c 0
 261 558 225 594 225 638 c 0
 225 684 261 720 305 720 c 0
EndSplineSet
EndChar

StartChar: oslash
Encoding: 248 248 184
Width: 680
Flags: W
HStem: -15 155<285.507 402.83> 373 155<277.226 391.366>
VStem: 62 165<226.503 322.413> 451 165<189.789 286.055>
LayerCount: 2
Fore
SplineSet
62 256 m 0
 62 401 188 528 340 528 c 0
 409 528 472 502 520 460 c 1
 578 507 l 1
 633 439 l 1
 577 393 l 1
 602 352 616 305 616 256 c 0
 616 111 492 -15 340 -15 c 0
 271 -15 207 12 158 54 c 1
 98 5 l 1
 42 73 l 1
 101 121 l 1
 77 161 62 207 62 256 c 0
393 357 m 1
 377 367 359 373 339 373 c 0
 278 373 227 318 227 256 c 0
 227 246 228 236 231 226 c 1
 393 357 l 1
446 287 m 1
 284 156 l 1
 300 146 319 140 339 140 c 0
 400 140 451 194 451 256 c 0
 451 267 449 277 446 287 c 1
EndSplineSet
EndChar

StartChar: ugrave
Encoding: 249 249 185
Width: 673
Flags: W
HStem: -15 144<266.336 401.866> 493 20G<56 233 436 613> 820 20G<174 212.955>
VStem: 56 177<166.262 513> 436 177<166.262 513>
LayerCount: 2
Fore
SplineSet
56 513 m 1
 233 513 l 1
 233 269 l 2
 233 168 260 129 334 129 c 0
 408 129 436 168 436 269 c 2
 436 513 l 1
 613 513 l 1
 613 226 l 2
 613 54 526 -15 334 -15 c 0
 142 -15 56 54 56 226 c 2
 56 513 l 1
190 840 m 1
 392 664 l 1
 336 587 l 1
 98 725 l 1
 190 840 l 1
EndSplineSet
EndChar

StartChar: uacute
Encoding: 250 250 186
Width: 673
Flags: W
HStem: -15 144<267.336 402.866> 493 20G<57 234 437 614> 820 20G<456.045 495>
VStem: 57 177<166.262 513> 437 177<166.262 513>
LayerCount: 2
Fore
SplineSet
57 513 m 1
 234 513 l 1
 234 269 l 2
 234 168 261 129 335 129 c 0
 409 129 437 168 437 269 c 2
 437 513 l 1
 614 513 l 1
 614 226 l 2
 614 54 527 -15 335 -15 c 0
 143 -15 57 54 57 226 c 2
 57 513 l 1
277 664 m 1
 479 840 l 1
 571 725 l 1
 333 587 l 1
 277 664 l 1
EndSplineSet
EndChar

StartChar: ucircumflex
Encoding: 251 251 187
Width: 671
Flags: W
HStem: -15 144<266.336 401.664> 493 20G<56 233 435 612> 820 20G<306.716 361.284>
VStem: 56 177<166.262 513> 435 177<166.262 513>
LayerCount: 2
Fore
SplineSet
56 513 m 1
 233 513 l 1
 233 269 l 2
 233 168 260 129 334 129 c 0
 408 129 435 168 435 269 c 2
 435 513 l 1
 612 513 l 1
 612 226 l 2
 612 54 526 -15 334 -15 c 0
 142 -15 56 54 56 226 c 2
 56 513 l 1
113 678 m 1
 334 840 l 1
 555 678 l 1
 487 587 l 1
 334 699 l 1
 181 587 l 1
 113 678 l 1
EndSplineSet
EndChar

StartChar: udieresis
Encoding: 252 252 188
Width: 673
Flags: W
HStem: -15 144<266.336 401.866> 493 20G<56 233 436 613> 607 184<157.401 274.599 393.401 510.599>
VStem: 56 177<166.262 513> 124 184<640.401 757.599> 360 184<640.401 757.599> 436 177<166.262 513>
LayerCount: 2
Fore
SplineSet
56 513 m 1xf2
 233 513 l 1
 233 269 l 2
 233 168 260 129 334 129 c 0
 408 129 436 168 436 269 c 2
 436 513 l 1
 613 513 l 1
 613 226 l 2
 613 54 526 -15 334 -15 c 0
 142 -15 56 54 56 226 c 2
 56 513 l 1xf2
452 791 m 0
 503 791 544 750 544 699 c 0
 544 648 503 607 452 607 c 0
 401 607 360 648 360 699 c 0xe4
 360 750 401 791 452 791 c 0
216 791 m 0
 267 791 308 750 308 699 c 0
 308 648 267 607 216 607 c 0
 165 607 124 648 124 699 c 0xe8
 124 750 165 791 216 791 c 0
EndSplineSet
EndChar

StartChar: yacute
Encoding: 253 253 189
Width: 751
Flags: W
HStem: -260 21G<104 318.427> 493 20G<38 252.875 497.722 711> 820 20G<456.932 495.826>
LayerCount: 2
Fore
SplineSet
507 513 m 1
 711 513 l 1
 308 -260 l 1
 104 -260 l 1
 281 80 l 1
 38 513 l 1
 242 513 l 1
 385 250 l 1
 507 513 l 1
277 664 m 1
 480 840 l 1
 571 725 l 1
 333 587 l 1
 277 664 l 1
EndSplineSet
EndChar

StartChar: thorn
Encoding: 254 254 190
Width: 714
Flags: W
HStem: -260 21G<62 237> -15 151<308.154 423.443> 377 151<302.387 422.356>
VStem: 62 175<-260 58 182.601 330.189 464 860> 474 188<186.537 325.882>
LayerCount: 2
Fore
SplineSet
474 256 m 0
 474 327 421 377 354 377 c 0
 288 377 235 327 235 256 c 0
 235 186 285 136 354 136 c 0
 426 136 474 186 474 256 c 0
237 -260 m 1
 62 -260 l 1
 62 860 l 1
 239 860 l 1
 239 464 l 1
 281 505 338 528 407 528 c 0
 557 528 662 406 662 256 c 0
 662 106 557 -15 407 -15 c 0
 337 -15 275 16 237 58 c 1
 237 -260 l 1
EndSplineSet
EndChar

StartChar: ydieresis
Encoding: 255 255 191
Width: 752
Flags: W
HStem: -260 21G<104 318.453> 493 20G<38 252.951 498.722 712> 607 184<197.401 314.599 435.401 552.599>
VStem: 164 184<640.401 757.599> 402 184<640.401 757.599>
LayerCount: 2
Fore
SplineSet
508 513 m 1
 712 513 l 1
 308 -260 l 1
 104 -260 l 1
 282 80 l 1
 38 513 l 1
 242 513 l 1
 386 250 l 1
 508 513 l 1
494 791 m 0
 545 791 586 750 586 699 c 0
 586 648 545 607 494 607 c 0
 443 607 402 648 402 699 c 0
 402 750 443 791 494 791 c 0
256 791 m 0
 307 791 348 750 348 699 c 0
 348 648 307 607 256 607 c 0
 205 607 164 648 164 699 c 0
 164 750 205 791 256 791 c 0
EndSplineSet
EndChar

StartChar: Amacron
Encoding: 256 256 192
Width: 918
Flags: W
HStem: 0 21G<39 248.273 669.485 879> 165 165<365 551> 805 20G<362.952 553.097> 946 120<251 659>
LayerCount: 2
Fore
SplineSet
251 1066 m 1
 659 1066 l 1
 659 946 l 1
 251 946 l 1
 251 1066 l 1
545 825 m 1
 879 0 l 1
 677 0 l 1
 615 165 l 1
 301 165 l 1
 241 0 l 1
 39 0 l 1
 371 825 l 1
 545 825 l 1
551 330 m 1
 457 570 l 1
 365 330 l 1
 551 330 l 1
EndSplineSet
EndChar

StartChar: amacron
Encoding: 257 257 193
Width: 710
Flags: W
HStem: -15 151<288.058 403.277> 0 21G<474 649> 377 151<289.146 424.195> 634 120<162 570>
VStem: 50 188<186.537 325.882> 474 175<0 58 180.338 330.189>
LayerCount: 2
Fore
SplineSet
238 256 m 0xbc
 238 186 286 136 358 136 c 0
 427 136 476 186 476 256 c 0
 476 327 424 377 358 377 c 0
 291 377 238 327 238 256 c 0xbc
649 454 m 2
 649 0 l 1
 474 0 l 1x7c
 474 58 l 1
 436 16 374 -15 304 -15 c 0
 154 -15 50 106 50 256 c 0
 50 406 154 528 304 528 c 0
 373 528 649 541 649 454 c 2
162 754 m 1
 570 754 l 1
 570 634 l 1
 162 634 l 1
 162 754 l 1
EndSplineSet
EndChar

StartChar: Abreve
Encoding: 258 258 194
Width: 918
Flags: W
HStem: 0 21G<39 248.273 669.485 879> 165 165<365 551> 805 20G<362.952 553.097> 940 109<395.741 522.259>
LayerCount: 2
Fore
SplineSet
564 1152 m 1
 690 1121 l 1
 678 1014 588 940 459 940 c 0
 330 940 240 1014 228 1121 c 1
 354 1152 l 1
 354 1152 365 1049 459 1049 c 0
 553 1049 564 1152 564 1152 c 1
545 825 m 1
 879 0 l 1
 677 0 l 1
 615 165 l 1
 301 165 l 1
 241 0 l 1
 39 0 l 1
 371 825 l 1
 545 825 l 1
551 330 m 1
 457 570 l 1
 365 330 l 1
 551 330 l 1
EndSplineSet
EndChar

StartChar: abreve
Encoding: 259 259 195
Width: 710
Flags: W
HStem: -15 151<288.058 403.277> 0 21G<474 649> 377 151<289.146 424.195> 628 109<302.886 429.404> 820 20G<180.71 282.194 451.417 553.29>
VStem: 50 188<186.537 325.882> 474 175<0 58 180.338 330.189>
LayerCount: 2
Fore
SplineSet
238 256 m 0xbe
 238 186 286 136 358 136 c 0
 427 136 476 186 476 256 c 0
 476 327 424 377 358 377 c 0
 291 377 238 327 238 256 c 0xbe
649 454 m 2
 649 0 l 1
 474 0 l 1x7e
 474 58 l 1
 436 16 374 -15 304 -15 c 0
 154 -15 50 106 50 256 c 0
 50 406 154 528 304 528 c 0
 373 528 649 541 649 454 c 2
472 840 m 1
 598 809 l 1
 586 702 495 628 366 628 c 0
 237 628 148 702 136 809 c 1
 262 840 l 1
 262 840 272 737 366 737 c 0
 460 737 472 840 472 840 c 1
EndSplineSet
EndChar

StartChar: Aogonek
Encoding: 260 260 196
Width: 918
Flags: W
HStem: -275 96<704.538 780.622> 0 21G<39 248.273> 165 165<365 551> 805 20G<362.952 553.097>
VStem: 597 103<-174.514 -84.794>
LayerCount: 2
Fore
SplineSet
551 330 m 1
 457 570 l 1
 365 330 l 1
 551 330 l 1
545 825 m 1
 879 0 l 1
 759 0 l 1
 759 0 700 -70 700 -140 c 0
 700 -165 720 -179 737 -179 c 0
 768 -179 788 -149 788 -149 c 1
 860 -203 l 1
 860 -203 815 -275 723 -275 c 0
 671 -275 597 -245 597 -158 c 0
 597 -101 647 -35 677 0 c 1
 615 165 l 1
 301 165 l 1
 241 0 l 1
 39 0 l 1
 371 825 l 1
 545 825 l 1
EndSplineSet
EndChar

StartChar: aogonek
Encoding: 261 261 197
Width: 713
Flags: W
HStem: -275 96<498.538 575.055> -15 151<289.058 404.277> 377 151<290.146 425.195>
VStem: 51 188<186.537 325.882> 391 103<-174.514 -87.6754> 475 175<0 58 180.338 330.189>
LayerCount: 2
Fore
SplineSet
475 0 m 1xf4
 475 58 l 1
 437 16 375 -15 305 -15 c 0
 155 -15 51 106 51 256 c 0
 51 406 155 528 305 528 c 0
 374 528 650 541 650 454 c 2
 650 0 l 1xf4
 555 0 l 1
 555 0 494 -70 494 -140 c 0
 494 -165 514 -179 531 -179 c 0
 562 -179 583 -149 583 -149 c 1
 655 -203 l 1
 655 -203 609 -275 517 -275 c 0
 465 -275 391 -245 391 -158 c 0xf8
 391 -101 445 -35 475 0 c 1xf4
239 256 m 0
 239 186 287 136 359 136 c 0
 428 136 477 186 477 256 c 0
 477 327 425 377 359 377 c 0
 292 377 239 327 239 256 c 0
EndSplineSet
EndChar

StartChar: Cacute
Encoding: 262 262 198
Width: 778
Flags: W
HStem: -15 185<407.589 648.498> 655 185<407.445 648.498>
VStem: 47 204<316.166 507.757>
LayerCount: 2
Fore
SplineSet
732 25 m 1
 732 25 673 -15 494 -15 c 0
 261 -15 47 175 47 411 c 0
 47 648 260 840 494 840 c 0
 673 840 732 800 732 800 c 1
 692 615 l 1
 692 615 619 655 523 655 c 0
 334 655 251 523 251 413 c 0
 251 302 334 170 523 170 c 0
 619 170 692 210 692 210 c 1
 732 25 l 1
295 976 m 1
 498 1152 l 1
 589 1037 l 1
 351 899 l 1
 295 976 l 1
EndSplineSet
EndChar

StartChar: cacute
Encoding: 263 263 199
Width: 553
Flags: W
HStem: -15 145<291.374 450.309> 383 145<291.259 448.899> 820 20G<396.932 435.826>
VStem: 49 188<186.422 325.466>
LayerCount: 2
Fore
SplineSet
505 31 m 1
 505 31 447 -15 333 -15 c 0
 185 -15 49 105 49 255 c 0
 49 406 184 528 333 528 c 0
 447 528 505 480 505 480 c 1
 445 359 l 1
 445 359 412 383 359 383 c 0
 292 383 237 327 237 257 c 0
 237 186 292 130 359 130 c 0
 412 130 445 154 445 154 c 1
 505 31 l 1
217 664 m 1
 420 840 l 1
 511 725 l 1
 273 587 l 1
 217 664 l 1
EndSplineSet
EndChar

StartChar: Ccircumflex
Encoding: 264 264 200
Width: 778
Flags: W
HStem: -15 185<407.589 648.498> 655 185<407.445 648.498>
VStem: 47 204<316.166 507.757>
LayerCount: 2
Fore
SplineSet
732 25 m 1
 732 25 673 -15 494 -15 c 0
 261 -15 47 175 47 411 c 0
 47 648 260 840 494 840 c 0
 673 840 732 800 732 800 c 1
 692 615 l 1
 692 615 619 655 523 655 c 0
 334 655 251 523 251 413 c 0
 251 302 334 170 523 170 c 0
 619 170 692 210 692 210 c 1
 732 25 l 1
224 976 m 1
 445 1138 l 1
 666 976 l 1
 598 885 l 1
 445 997 l 1
 292 885 l 1
 224 976 l 1
EndSplineSet
EndChar

StartChar: ccircumflex
Encoding: 265 265 201
Width: 553
Flags: W
HStem: -15 145<290.374 449.309> 383 145<290.259 447.899>
VStem: 48 188<186.422 325.466>
LayerCount: 2
Fore
SplineSet
504 31 m 1
 504 31 446 -15 332 -15 c 0
 184 -15 48 105 48 255 c 0
 48 406 183 528 332 528 c 0
 446 528 504 480 504 480 c 1
 444 359 l 1
 444 359 411 383 358 383 c 0
 291 383 236 327 236 257 c 0
 236 186 291 130 358 130 c 0
 411 130 444 154 444 154 c 1
 504 31 l 1
69 658 m 1
 290 820 l 1
 511 658 l 1
 443 567 l 1
 290 679 l 1
 137 567 l 1
 69 658 l 1
EndSplineSet
EndChar

StartChar: Cdotaccent
Encoding: 266 266 202
Width: 778
Flags: W
HStem: -15 185<407.589 648.498> 655 185<407.445 648.498> 919 184<383.401 500.599>
VStem: 47 204<316.166 507.757> 350 184<952.401 1069.6>
LayerCount: 2
Fore
SplineSet
732 25 m 1
 732 25 673 -15 494 -15 c 0
 261 -15 47 175 47 411 c 0
 47 648 260 840 494 840 c 0
 673 840 732 800 732 800 c 1
 692 615 l 1
 692 615 619 655 523 655 c 0
 334 655 251 523 251 413 c 0
 251 302 334 170 523 170 c 0
 619 170 692 210 692 210 c 1
 732 25 l 1
442 1103 m 0
 493 1103 534 1062 534 1011 c 0
 534 960 493 919 442 919 c 0
 391 919 350 960 350 1011 c 0
 350 1062 391 1103 442 1103 c 0
EndSplineSet
EndChar

StartChar: cdotaccent
Encoding: 267 267 203
Width: 550
Flags: W
HStem: -15 145<291.374 450.309> 383 145<291.259 448.899> 597 184<234.401 351.599>
VStem: 49 188<186.422 325.466> 201 184<630.401 747.599>
LayerCount: 2
Fore
SplineSet
505 31 m 1xf0
 505 31 447 -15 333 -15 c 0
 185 -15 49 105 49 255 c 0
 49 406 184 528 333 528 c 0
 447 528 505 480 505 480 c 1
 445 359 l 1
 445 359 412 383 359 383 c 0
 292 383 237 327 237 257 c 0
 237 186 292 130 359 130 c 0
 412 130 445 154 445 154 c 1
 505 31 l 1xf0
293 781 m 0
 344 781 385 740 385 689 c 0
 385 638 344 597 293 597 c 0
 242 597 201 638 201 689 c 0xe8
 201 740 242 781 293 781 c 0
EndSplineSet
EndChar

StartChar: Ccaron
Encoding: 268 268 204
Width: 778
Flags: W
HStem: -15 185<407.589 648.498> 655 185<407.445 648.498>
VStem: 47 204<316.166 507.757>
LayerCount: 2
Fore
SplineSet
732 25 m 1
 732 25 673 -15 494 -15 c 0
 261 -15 47 175 47 411 c 0
 47 648 260 840 494 840 c 0
 673 840 732 800 732 800 c 1
 692 615 l 1
 692 615 619 655 523 655 c 0
 334 655 251 523 251 413 c 0
 251 302 334 170 523 170 c 0
 619 170 692 210 692 210 c 1
 732 25 l 1
312 1152 m 1
 465 1040 l 1
 618 1152 l 1
 686 1061 l 1
 465 899 l 1
 244 1061 l 1
 312 1152 l 1
EndSplineSet
EndChar

StartChar: ccaron
Encoding: 269 269 205
Width: 552
Flags: W
HStem: -15 145<291.374 450.309> 383 145<291.259 448.899> 820 20G<117.055 159.321 410.679 452.945>
VStem: 49 188<186.422 325.466>
LayerCount: 2
Fore
SplineSet
505 31 m 1
 505 31 447 -15 333 -15 c 0
 185 -15 49 105 49 255 c 0
 49 406 184 528 333 528 c 0
 447 528 505 480 505 480 c 1
 445 359 l 1
 445 359 412 383 359 383 c 0
 292 383 237 327 237 257 c 0
 237 186 292 130 359 130 c 0
 412 130 445 154 445 154 c 1
 505 31 l 1
132 840 m 1
 285 728 l 1
 438 840 l 1
 506 749 l 1
 285 587 l 1
 64 749 l 1
 132 840 l 1
EndSplineSet
EndChar

StartChar: Dcaron
Encoding: 270 270 206
Width: 768
Flags: W
HStem: 0 168<249 382.575> 657 168<249 382.575>
VStem: 61 188<168 657> 515 201<293.486 531.414>
LayerCount: 2
Fore
SplineSet
515 412 m 0
 515 556 452 657 249 657 c 1
 249 168 l 1
 452 168 515 268 515 412 c 0
61 825 m 1
 300 825 l 2
 526 825 716 653 716 413 c 0
 716 172 527 0 300 0 c 2
 61 0 l 1
 61 825 l 1
208 1152 m 1
 361 1040 l 1
 514 1152 l 1
 582 1061 l 1
 361 899 l 1
 140 1061 l 1
 208 1152 l 1
EndSplineSet
EndChar

StartChar: dcaron
Encoding: 271 271 207
Width: 916
Flags: W
HStem: -15 151<288.557 428.04> 0 21G<570.923 650> 377 151<291.071 428.172> 513 21G<717.194 774.5>
VStem: 50 188<186.537 325.882> 475 175<181.699 331.301 526 850> 574 76<0 51.6898> 695 178<679.819 793.018>
LayerCount: 2
Fore
SplineSet
238 256 m 0xad
 238 186 286 136 358 136 c 0
 418 136 465 174 475 231 c 1
 475 282 l 1
 464 339 416 377 358 377 c 0
 291 377 238 327 238 256 c 0xad
650 850 m 1
 650 0 l 1
 574 0 l 1x6b
 574 0 574 46 566 52 c 1
 515 13 435 -15 305 -15 c 0
 155 -15 50 106 50 256 c 0
 50 406 155 528 305 528 c 0
 335 528 405 530 474 526 c 1
 473 850 l 1
 650 850 l 1
783 824 m 0
 833 824 873 784 873 734 c 0
 873 641 806 565 743 513 c 1x19
 703 544 l 1
 703 544 750 589 762 654 c 1
 724 663 695 694 695 734 c 0
 695 784 735 824 783 824 c 0
EndSplineSet
EndChar

StartChar: Dcroat
Encoding: 272 272 208
Width: 833
Flags: W
HStem: 0 168<314 447.575> 657 168<314 447.575>
VStem: 126 188<168 336 489 657> 580 201<293.486 531.414>
LayerCount: 2
Fore
SplineSet
580 412 m 0
 580 556 517 657 314 657 c 1
 314 489 l 1
 429 461 l 1
 429 372 l 1
 314 336 l 1
 314 168 l 1
 517 168 580 268 580 412 c 0
126 489 m 1
 126 825 l 1
 365 825 l 2
 591 825 781 653 781 413 c 0
 781 172 592 0 365 0 c 2
 126 0 l 1
 126 336 l 1
 44 372 l 1
 44 461 l 1
 126 489 l 1
EndSplineSet
EndChar

StartChar: dcroat
Encoding: 273 273 209
Width: 768
Flags: W
HStem: -15 151<288.557 428.04> 0 21G<570.923 650> 377 151<291.071 428.172> 628 114<348 473 650 724>
VStem: 50 188<186.537 325.882> 475 175<181.699 331.301 526 628 742 850> 574 76<0 51.6898>
LayerCount: 2
Fore
SplineSet
238 256 m 0xbc
 238 186 286 136 358 136 c 0
 418 136 465 174 475 231 c 1
 475 282 l 1
 464 339 416 377 358 377 c 0
 291 377 238 327 238 256 c 0xbc
473 742 m 1
 473 850 l 1
 650 850 l 1
 650 742 l 1
 724 742 l 1
 724 628 l 1
 650 628 l 1xbc
 650 0 l 1
 574 0 l 1x7a
 574 0 574 46 566 52 c 1
 515 13 435 -15 305 -15 c 0
 155 -15 50 106 50 256 c 0
 50 406 155 528 305 528 c 0
 335 528 405 530 474 526 c 1
 474 628 l 1
 348 628 l 1
 348 742 l 1
 473 742 l 1
EndSplineSet
EndChar

StartChar: Emacron
Encoding: 274 274 210
Width: 588
Flags: W
HStem: 0 165<249 533> 331 165<249 521> 660 165<249 533> 946 120<87 495>
VStem: 61 188<165 331 496 660>
LayerCount: 2
Fore
SplineSet
533 825 m 1
 533 660 l 1
 249 660 l 1
 249 496 l 1
 521 496 l 1
 521 331 l 1
 249 331 l 1
 249 165 l 1
 533 165 l 1
 533 0 l 1
 61 0 l 1
 61 825 l 1
 533 825 l 1
87 1066 m 1
 495 1066 l 1
 495 946 l 1
 87 946 l 1
 87 1066 l 1
EndSplineSet
EndChar

StartChar: emacron
Encoding: 275 275 211
Width: 656
Flags: W
HStem: -15 21G<253.5 388> 227 90<237 433> 413 115<274.337 390.717> 634 120<123 531>
VStem: 49 184<169.341 227 317 360.092>
LayerCount: 2
Fore
SplineSet
237 317 m 1
 433 317 l 1
 425 371 387 413 335 413 c 0
 274 413 240 364 237 317 c 1
469 173 m 1
 597 119 l 1
 539 22 445 -15 331 -15 c 0
 176 -15 49 107 49 256 c 0
 49 406 176 528 331 528 c 0
 487 528 605 418 605 227 c 1
 233 227 l 1
 233 141 356 60 469 173 c 1
123 754 m 1
 531 754 l 1
 531 634 l 1
 123 634 l 1
 123 754 l 1
EndSplineSet
EndChar

StartChar: Ebreve
Encoding: 276 276 212
Width: 588
Flags: W
HStem: 0 165<249 533> 331 165<249 521> 660 165<249 533> 913 109<239.596 366.114>
VStem: 61 188<165 331 496 660>
LayerCount: 2
Fore
SplineSet
533 825 m 1
 533 660 l 1
 249 660 l 1
 249 496 l 1
 521 496 l 1
 521 331 l 1
 249 331 l 1
 249 165 l 1
 533 165 l 1
 533 0 l 1
 61 0 l 1
 61 825 l 1
 533 825 l 1
407 1125 m 1
 533 1094 l 1
 521 987 432 913 303 913 c 0
 174 913 83 987 71 1094 c 1
 197 1125 l 1
 197 1125 209 1022 303 1022 c 0
 397 1022 407 1125 407 1125 c 1
EndSplineSet
EndChar

StartChar: ebreve
Encoding: 277 277 213
Width: 655
Flags: W
HStem: -15 21G<253.5 388> 227 90<237 433> 413 115<274.337 390.717> 595 109<267.596 394.114>
VStem: 49 184<169.341 227 317 360.092>
LayerCount: 2
Fore
SplineSet
237 317 m 1
 433 317 l 1
 425 371 387 413 335 413 c 0
 274 413 240 364 237 317 c 1
469 173 m 1
 597 119 l 1
 539 22 445 -15 331 -15 c 0
 176 -15 49 107 49 256 c 0
 49 406 176 528 331 528 c 0
 487 528 605 418 605 227 c 1
 233 227 l 1
 233 141 356 60 469 173 c 1
435 807 m 1
 561 776 l 1
 549 669 460 595 331 595 c 0
 202 595 111 669 99 776 c 1
 225 807 l 1
 225 807 237 704 331 704 c 0
 425 704 435 807 435 807 c 1
EndSplineSet
EndChar

StartChar: Edotaccent
Encoding: 278 278 214
Width: 588
Flags: W
HStem: 0 165<249 533> 331 165<249 521> 660 165<249 533> 919 184<232.401 349.599>
VStem: 61 188<165 331 496 660> 199 184<952.401 1069.6>
LayerCount: 2
Fore
SplineSet
533 825 m 1xf8
 533 660 l 1
 249 660 l 1
 249 496 l 1
 521 496 l 1
 521 331 l 1
 249 331 l 1
 249 165 l 1
 533 165 l 1
 533 0 l 1
 61 0 l 1
 61 825 l 1
 533 825 l 1xf8
291 1103 m 0
 342 1103 383 1062 383 1011 c 0
 383 960 342 919 291 919 c 0
 240 919 199 960 199 1011 c 0xf4
 199 1062 240 1103 291 1103 c 0
EndSplineSet
EndChar

StartChar: edotaccent
Encoding: 279 279 215
Width: 656
Flags: W
HStem: -15 21G<253.5 388> 227 90<237 433> 413 115<274.337 390.717> 607 184<268.401 385.599>
VStem: 49 184<169.341 227 317 360.092> 235 184<640.401 757.599>
LayerCount: 2
Fore
SplineSet
237 317 m 1
 433 317 l 1
 425 371 387 413 335 413 c 0
 274 413 240 364 237 317 c 1
469 173 m 1
 597 119 l 1
 539 22 445 -15 331 -15 c 0
 176 -15 49 107 49 256 c 0
 49 406 176 528 331 528 c 0
 487 528 605 418 605 227 c 1
 233 227 l 1
 233 141 356 60 469 173 c 1
327 791 m 0
 378 791 419 750 419 699 c 0
 419 648 378 607 327 607 c 0
 276 607 235 648 235 699 c 0
 235 750 276 791 327 791 c 0
EndSplineSet
EndChar

StartChar: Eogonek
Encoding: 280 280 216
Width: 588
Flags: W
HStem: -275 96<381.538 457.622> 0 165<249 354 419.878 533> 331 165<249 521> 660 165<249 533>
VStem: 61 188<165 331 496 660> 274 103<-174.514 -85.3714>
LayerCount: 2
Fore
SplineSet
533 825 m 1
 533 660 l 1
 249 660 l 1
 249 496 l 1
 521 496 l 1
 521 331 l 1
 249 331 l 1
 249 165 l 1
 533 165 l 1
 533 0 l 1
 436 0 l 1
 436 0 377 -70 377 -140 c 0
 377 -165 397 -179 414 -179 c 0
 445 -179 465 -149 465 -149 c 1
 537 -203 l 1
 537 -203 492 -275 400 -275 c 0
 348 -275 274 -245 274 -158 c 0
 274 -103 324 -36 354 0 c 1
 61 0 l 1
 61 825 l 1
 533 825 l 1
EndSplineSet
EndChar

StartChar: eogonek
Encoding: 281 281 217
Width: 658
Flags: W
HStem: -275 96<391.538 467.622> 227 90<238 434> 413 115<275.337 391.717>
VStem: 50 184<169.341 227 317 360.092> 284 103<-174.514 -85.314>
LayerCount: 2
Fore
SplineSet
446 0 m 1
 446 0 387 -70 387 -140 c 0
 387 -165 407 -179 424 -179 c 0
 455 -179 475 -149 475 -149 c 1
 547 -203 l 1
 547 -203 502 -275 410 -275 c 0
 358 -275 284 -245 284 -158 c 0
 284 -110 322 -53 352 -15 c 1
 332 -15 l 2
 177 -15 50 107 50 256 c 0
 50 406 177 528 332 528 c 0
 488 528 606 418 606 227 c 1
 234 227 l 1
 234 141 357 60 470 173 c 1
 598 119 l 1
 561 57 508 19 446 0 c 1
238 317 m 1
 434 317 l 1
 426 371 388 413 336 413 c 0
 275 413 241 364 238 317 c 1
EndSplineSet
EndChar

StartChar: Ecaron
Encoding: 282 282 218
Width: 587
Flags: W
HStem: 0 165<249 533> 331 165<249 521> 660 165<249 533>
VStem: 61 188<165 331 496 660>
LayerCount: 2
Fore
SplineSet
533 825 m 1
 533 660 l 1
 249 660 l 1
 249 496 l 1
 521 496 l 1
 521 331 l 1
 249 331 l 1
 249 165 l 1
 533 165 l 1
 533 0 l 1
 61 0 l 1
 61 825 l 1
 533 825 l 1
138 1152 m 1
 291 1040 l 1
 444 1152 l 1
 512 1061 l 1
 291 899 l 1
 70 1061 l 1
 138 1152 l 1
EndSplineSet
EndChar

StartChar: ecaron
Encoding: 283 283 219
Width: 655
Flags: W
HStem: -15 21G<253.5 388> 227 90<237 433> 413 115<274.337 390.717> 820 20G<158.055 200.321 451.679 493.945>
VStem: 49 184<169.341 227 317 360.092>
LayerCount: 2
Fore
SplineSet
237 317 m 1
 433 317 l 1
 425 371 387 413 335 413 c 0
 274 413 240 364 237 317 c 1
469 173 m 1
 597 119 l 1
 539 22 445 -15 331 -15 c 0
 176 -15 49 107 49 256 c 0
 49 406 176 528 331 528 c 0
 487 528 605 418 605 227 c 1
 233 227 l 1
 233 141 356 60 469 173 c 1
173 840 m 1
 326 728 l 1
 479 840 l 1
 547 749 l 1
 326 587 l 1
 105 749 l 1
 173 840 l 1
EndSplineSet
EndChar

StartChar: Gcircumflex
Encoding: 284 284 220
Width: 891
Flags: W
HStem: -15 173<378.047 551.429> 0 21G<772.941 830> 317 145<469 639> 670 170<376.746 555.532>
VStem: 47 203<303.615 521.624> 733 97<31.5464 94>
LayerCount: 2
Fore
SplineSet
830 462 m 1xbc
 830 0 l 1x7c
 733 34 l 1
 738 94 l 1
 669 18 569 -15 449 -15 c 0
 227 -15 47 176 47 412 c 0
 47 649 217 840 449 840 c 0
 594 840 695 786 767 699 c 1
 644 564 l 1
 596 641 533 670 460 670 c 0
 344 670 250 555 250 412 c 0
 250 272 344 158 460 158 c 0
 550 158 639 216 639 317 c 1
 469 317 l 1
 435 462 l 1
 830 462 l 1xbc
220 974 m 1
 441 1136 l 1
 662 974 l 1
 594 883 l 1
 441 995 l 1
 288 883 l 1
 220 974 l 1
EndSplineSet
EndChar

StartChar: gcircumflex
Encoding: 285 285 221
Width: 707
Flags: W
HStem: -275 154<255.281 419.209> -15 151<287.557 427.613> 377 151<288.644 465.035>
VStem: 49 188<186.537 325.882> 476 173<-66.5173 37 184.912 364.616>
LayerCount: 2
Fore
SplineSet
649 256 m 2
 649 -14 l 2
 649 -186 522 -275 347 -275 c 0
 240 -275 117 -251 63 -126 c 1
 208 -55 l 1
 227 -86 270 -121 347 -121 c 0
 396 -121 472 -92 472 -1 c 2
 472 37 l 1
 434 -5 374 -15 304 -15 c 0
 154 -15 49 106 49 256 c 0
 49 406 154 528 304 528 c 0
 596 528 649 528 649 256 c 2
237 256 m 0
 237 186 285 136 357 136 c 0
 426 136 476 186 476 256 c 2
 476 318 l 2
 475 365 463 377 357 377 c 0
 290 377 237 327 237 256 c 0
163 688 m 1
 383 850 l 1
 605 688 l 1
 537 597 l 1
 383 709 l 1
 231 597 l 1
 163 688 l 1
EndSplineSet
EndChar

StartChar: Gbreve
Encoding: 286 286 222
Width: 891
Flags: W
HStem: -15 173<378.047 551.429> 0 21G<772.941 830> 317 145<469 639> 670 170<376.746 555.532> 911 109<387.886 514.404>
VStem: 47 203<303.615 521.624> 733 97<31.5464 94>
LayerCount: 2
Fore
SplineSet
830 462 m 1xbe
 830 0 l 1x7e
 733 34 l 1
 738 94 l 1
 669 18 569 -15 449 -15 c 0
 227 -15 47 176 47 412 c 0
 47 649 217 840 449 840 c 0
 594 840 695 786 767 699 c 1
 644 564 l 1
 596 641 533 670 460 670 c 0
 344 670 250 555 250 412 c 0
 250 272 344 158 460 158 c 0
 550 158 639 216 639 317 c 1
 469 317 l 1
 435 462 l 1
 830 462 l 1xbe
557 1123 m 1
 683 1092 l 1
 671 985 580 911 451 911 c 0
 322 911 233 985 221 1092 c 1
 347 1123 l 1
 347 1123 357 1020 451 1020 c 0
 545 1020 557 1123 557 1123 c 1
EndSplineSet
EndChar

StartChar: gbreve
Encoding: 287 287 223
Width: 709
Flags: W
HStem: -275 154<258.095 419.451> -15 151<284.622 428.282> 377 151<289.143 465.535> 598 109<289.596 416.114>
VStem: 49 188<186.537 325.882> 473 177<-67.4509 37 180.338 364.616>
LayerCount: 2
Fore
SplineSet
650 256 m 2
 650 -14 l 2
 650 -186 522 -275 347 -275 c 0
 240 -275 117 -251 63 -126 c 1
 209 -55 l 1
 228 -86 270 -121 347 -121 c 0
 396 -121 473 -92 473 -1 c 2
 473 37 l 1
 435 -5 375 -15 305 -15 c 0
 155 -15 49 106 49 256 c 0
 49 406 155 528 305 528 c 0
 597 528 650 528 650 256 c 2
237 256 m 0
 237 186 285 136 357 136 c 0
 426 136 477 186 477 256 c 0
 477 264 476 311 476 318 c 0
 475 365 463 377 357 377 c 0
 290 377 237 327 237 256 c 0
457 810 m 1
 583 779 l 1
 571 672 482 598 353 598 c 0
 224 598 133 672 121 779 c 1
 247 810 l 1
 247 810 259 707 353 707 c 0
 447 707 457 810 457 810 c 1
EndSplineSet
EndChar

StartChar: Gdotaccent
Encoding: 288 288 224
Width: 891
Flags: W
HStem: -15 173<378.047 551.429> 0 21G<772.941 830> 317 145<469 639> 670 170<376.746 555.532> 919 184<388.401 505.599>
VStem: 47 203<303.615 521.624> 355 184<952.401 1069.6> 733 97<31.5464 94>
LayerCount: 2
Fore
SplineSet
830 462 m 1xbf
 830 0 l 1x7f
 733 34 l 1
 738 94 l 1
 669 18 569 -15 449 -15 c 0
 227 -15 47 176 47 412 c 0
 47 649 217 840 449 840 c 0
 594 840 695 786 767 699 c 1
 644 564 l 1
 596 641 533 670 460 670 c 0
 344 670 250 555 250 412 c 0
 250 272 344 158 460 158 c 0
 550 158 639 216 639 317 c 1
 469 317 l 1
 435 462 l 1
 830 462 l 1xbf
447 1103 m 0
 498 1103 539 1062 539 1011 c 0
 539 960 498 919 447 919 c 0
 396 919 355 960 355 1011 c 0
 355 1062 396 1103 447 1103 c 0
EndSplineSet
EndChar

StartChar: gdotaccent
Encoding: 289 289 225
Width: 710
Flags: W
HStem: -275 154<259.095 420.451> -15 151<285.622 429.282> 377 151<290.143 466.535> 600 184<298.401 415.599>
VStem: 50 188<186.537 325.882> 265 184<633.401 750.599> 474 177<-67.4509 37 180.338 364.616>
LayerCount: 2
Fore
SplineSet
651 256 m 2
 651 -14 l 2
 651 -186 523 -275 348 -275 c 0
 241 -275 118 -251 64 -126 c 1
 210 -55 l 1
 229 -86 271 -121 348 -121 c 0
 397 -121 474 -92 474 -1 c 2
 474 37 l 1
 436 -5 376 -15 306 -15 c 0
 156 -15 50 106 50 256 c 0
 50 406 156 528 306 528 c 0
 598 528 651 528 651 256 c 2
238 256 m 0
 238 186 286 136 358 136 c 0
 427 136 478 186 478 256 c 0
 478 264 477 311 477 318 c 0
 476 365 464 377 358 377 c 0
 291 377 238 327 238 256 c 0
357 784 m 0
 408 784 449 743 449 692 c 0
 449 641 408 600 357 600 c 0
 306 600 265 641 265 692 c 0
 265 743 306 784 357 784 c 0
EndSplineSet
EndChar

StartChar: uni0122
Encoding: 290 290 226
Width: 891
Flags: W
HStem: -15 173<378.047 551.429> 0 21G<772.941 830> 317 145<469 639> 670 170<376.746 555.532>
VStem: 47 203<303.615 521.624> 361 178<-184.181 -70.982> 733 97<31.5464 94>
LayerCount: 2
Fore
SplineSet
830 462 m 1xbe
 830 0 l 1x7e
 733 34 l 1
 738 94 l 1
 669 18 569 -15 449 -15 c 0
 227 -15 47 176 47 412 c 0
 47 649 217 840 449 840 c 0
 594 840 695 786 767 699 c 1
 644 564 l 1
 596 641 533 670 460 670 c 0
 344 670 250 555 250 412 c 0
 250 272 344 158 460 158 c 0
 550 158 639 216 639 317 c 1
 469 317 l 1
 435 462 l 1
 830 462 l 1xbe
449 -40 m 0
 499 -40 539 -80 539 -130 c 0
 539 -223 472 -299 409 -351 c 1
 369 -320 l 1
 369 -320 416 -275 428 -210 c 1
 390 -201 361 -170 361 -130 c 0
 361 -80 401 -40 449 -40 c 0
EndSplineSet
EndChar

StartChar: uni0123
Encoding: 291 291 227
Width: 709
Flags: W
HStem: -275 154<258.095 419.451> -15 151<284.622 428.282> 377 151<289.143 465.535>
VStem: 49 188<186.537 325.882> 279 178<637.982 747.473> 473 177<-67.4509 37 180.338 364.616>
LayerCount: 2
Fore
SplineSet
650 256 m 2
 650 -14 l 2
 650 -186 522 -275 347 -275 c 0
 240 -275 117 -251 63 -126 c 1
 209 -55 l 1
 228 -86 270 -121 347 -121 c 0
 396 -121 473 -92 473 -1 c 2
 473 37 l 1
 435 -5 375 -15 305 -15 c 0
 155 -15 49 106 49 256 c 0
 49 406 155 528 305 528 c 0
 597 528 650 528 650 256 c 2
237 256 m 0
 237 186 285 136 357 136 c 0
 426 136 477 186 477 256 c 0
 477 264 476 311 476 318 c 0
 475 365 463 377 357 377 c 0
 290 377 237 327 237 256 c 0
369 607 m 0
 319 607 279 647 279 697 c 0
 279 790 346 866 409 918 c 1
 449 887 l 1
 449 887 401 842 389 777 c 1
 427 768 457 737 457 697 c 0
 457 647 417 607 369 607 c 0
EndSplineSet
EndChar

StartChar: Hcircumflex
Encoding: 292 292 228
Width: 767
Flags: W
HStem: 0 21G<61 249 515 703> 331 165<249 515> 805 20G<61 249 515 703>
VStem: 61 188<0 331 496 825> 515 188<0 331 496 825>
LayerCount: 2
Fore
SplineSet
249 331 m 1
 249 0 l 1
 61 0 l 1
 61 825 l 1
 249 825 l 1
 249 496 l 1
 515 496 l 1
 515 825 l 1
 703 825 l 1
 703 0 l 1
 515 0 l 1
 515 331 l 1
 249 331 l 1
164 976 m 1
 386 1138 l 1
 606 976 l 1
 538 885 l 1
 386 997 l 1
 232 885 l 1
 164 976 l 1
EndSplineSet
EndChar

StartChar: hcircumflex
Encoding: 293 293 229
Width: 672
Flags: W
HStem: 0 21G<61 238 435 612> 390 138<301.861 400.575>
VStem: 61 177<0 346.049 459 860> 435 177<0 351.126>
LayerCount: 2
Fore
SplineSet
238 860 m 1
 238 459 l 1
 278 499 331 528 387 528 c 0
 481 528 612 481 612 338 c 2
 612 0 l 1
 435 0 l 1
 435 290 l 2
 435 341 400 390 343 390 c 0
 290 390 238 341 238 290 c 2
 238 0 l 1
 61 0 l 1
 61 860 l 1
 238 860 l 1
111 1018 m 1
 333 1180 l 1
 553 1018 l 1
 485 927 l 1
 333 1039 l 1
 179 927 l 1
 111 1018 l 1
EndSplineSet
EndChar

StartChar: Hbar
Encoding: 294 294 230
Width: 947
Flags: W
HStem: 0 21G<159 347 613 801> 310 165<347 613> 542 177<41 159 347 613 801 901> 805 20G<159 347 613 801>
VStem: 159 188<0 310 475 542 719 825> 613 188<0 310 475 542 719 825>
LayerCount: 2
Fore
SplineSet
347 310 m 1
 347 0 l 1
 159 0 l 1
 159 542 l 1
 41 542 l 1
 41 719 l 1
 159 719 l 1
 159 825 l 1
 347 825 l 1
 347 719 l 1
 613 719 l 1
 613 825 l 1
 801 825 l 1
 801 719 l 1
 901 719 l 1
 901 542 l 1
 801 542 l 1
 801 0 l 1
 613 0 l 1
 613 310 l 1
 347 310 l 1
347 542 m 1
 347 475 l 1
 613 475 l 1
 613 542 l 1
 347 542 l 1
EndSplineSet
EndChar

StartChar: hbar
Encoding: 295 295 231
Width: 765
Flags: W
HStem: 0 21G<155 332 529 706> 390 138<395.861 494.575> 608 139<41 155 332 642>
VStem: 155 177<0 346.049 459 608 747 860> 529 177<0 351.126>
LayerCount: 2
Fore
SplineSet
332 608 m 1
 332 459 l 1
 372 499 425 528 481 528 c 0
 575 528 706 481 706 338 c 2
 706 0 l 1
 529 0 l 1
 529 290 l 2
 529 341 494 390 437 390 c 0
 384 390 332 341 332 290 c 2
 332 0 l 1
 155 0 l 1
 155 608 l 1
 41 608 l 1
 41 747 l 1
 155 747 l 1
 155 860 l 1
 332 860 l 1
 332 747 l 1
 642 747 l 1
 642 608 l 1
 332 608 l 1
EndSplineSet
EndChar

StartChar: Itilde
Encoding: 296 296 232
Width: 531
Flags: W
HStem: 0 21G<170 358> 805 20G<170 358> 885 126<283.845 381.732> 931 126<148.268 255.382>
VStem: 170 188<0 825>
LayerCount: 2
Fore
SplineSet
180 931 m 0xd8
 148 931 135 885 135 885 c 1
 34 885 l 1xe8
 34 885 60 1057 170 1057 c 0xd8
 209 1057 309 1011 350 1011 c 0xe8
 382 1011 395 1057 395 1057 c 1
 496 1057 l 1xd8
 496 1057 470 885 360 885 c 0xe8
 321 885 244 931 180 931 c 0xd8
358 825 m 1
 358 0 l 1
 170 0 l 1
 170 825 l 1
 358 825 l 1
EndSplineSet
EndChar

StartChar: itilde
Encoding: 297 297 233
Width: 539
Flags: W
HStem: 0 21G<180 357> 493 20G<180 357> 578 126<286.845 384.732> 624 126<151.268 258.382>
VStem: 180 177<0 513>
LayerCount: 2
Fore
SplineSet
183 624 m 0xd8
 151 624 138 578 138 578 c 1
 37 578 l 1xe8
 37 578 63 750 173 750 c 0xd8
 212 750 312 704 353 704 c 0xe8
 385 704 398 750 398 750 c 1
 499 750 l 1xd8
 499 750 473 578 363 578 c 0xe8
 324 578 247 624 183 624 c 0xd8
180 513 m 1
 357 513 l 1
 357 0 l 1
 180 0 l 1
 180 513 l 1
EndSplineSet
EndChar

StartChar: Imacron
Encoding: 298 298 234
Width: 478
Flags: W
HStem: 0 21G<144 332> 805 20G<144 332> 946 120<34 442>
VStem: 144 188<0 825>
LayerCount: 2
Fore
SplineSet
332 825 m 1
 332 0 l 1
 144 0 l 1
 144 825 l 1
 332 825 l 1
34 1066 m 1
 442 1066 l 1
 442 946 l 1
 34 946 l 1
 34 1066 l 1
EndSplineSet
EndChar

StartChar: imacron
Encoding: 299 299 235
Width: 495
Flags: W
HStem: 0 21G<157 334> 493 20G<157 334> 634 120<41 449>
VStem: 157 177<0 513>
LayerCount: 2
Fore
SplineSet
157 513 m 1
 334 513 l 1
 334 0 l 1
 157 0 l 1
 157 513 l 1
41 754 m 1
 449 754 l 1
 449 634 l 1
 41 634 l 1
 41 754 l 1
EndSplineSet
EndChar

StartChar: Ibreve
Encoding: 300 300 236
Width: 531
Flags: W
HStem: 0 21G<167 355> 805 20G<167 355> 919 109<201.741 328.259>
VStem: 167 188<0 825>
LayerCount: 2
Fore
SplineSet
355 825 m 1
 355 0 l 1
 167 0 l 1
 167 825 l 1
 355 825 l 1
370 1131 m 1
 496 1100 l 1
 484 993 394 919 265 919 c 0
 136 919 46 993 34 1100 c 1
 160 1131 l 1
 160 1131 171 1028 265 1028 c 0
 359 1028 370 1131 370 1131 c 1
EndSplineSet
EndChar

StartChar: ibreve
Encoding: 301 301 237
Width: 540
Flags: W
HStem: 0 21G<176 353> 493 20G<176 353> 604 109<206.596 333.114>
VStem: 176 177<0 513>
LayerCount: 2
Fore
SplineSet
176 513 m 1
 353 513 l 1
 353 0 l 1
 176 0 l 1
 176 513 l 1
374 816 m 1
 500 785 l 1
 488 678 399 604 270 604 c 0
 141 604 50 678 38 785 c 1
 164 816 l 1
 164 816 176 713 270 713 c 0
 364 713 374 816 374 816 c 1
EndSplineSet
EndChar

StartChar: Iogonek
Encoding: 302 302 238
Width: 340
Flags: W
HStem: -275 96<147.538 224.055> 805 20G<68 256>
VStem: 40 103<-174.514 -85.3714> 68 188<0 825>
LayerCount: 2
Fore
SplineSet
256 825 m 1xd0
 256 0 l 1xd0
 202 0 l 1
 202 0 143 -70 143 -140 c 0
 143 -165 163 -179 180 -179 c 0
 211 -179 232 -149 232 -149 c 1
 304 -203 l 1
 304 -203 258 -275 166 -275 c 0
 114 -275 40 -245 40 -158 c 0xe0
 40 -103 90 -36 120 0 c 1
 68 0 l 1
 68 825 l 1
 256 825 l 1xd0
EndSplineSet
EndChar

StartChar: iogonek
Encoding: 303 303 239
Width: 337
Flags: W
HStem: -275 96<146.538 222.622> 493 20G<70 247> 620 210<98.1725 223.828>
VStem: 39 103<-174.514 -84.794> 56 210<662.172 787.828> 70 177<0 513>
LayerCount: 2
Fore
SplineSet
39 -158 m 0xf0
 39 -101 89 -35 119 0 c 1
 70 0 l 1
 70 513 l 1
 247 513 l 1
 247 0 l 1xe4
 201 0 l 1
 201 0 142 -70 142 -140 c 0
 142 -165 162 -179 179 -179 c 0
 210 -179 230 -149 230 -149 c 1
 302 -203 l 1
 302 -203 257 -275 165 -275 c 0
 113 -275 39 -245 39 -158 c 0xf0
161 830 m 0
 219 830 266 783 266 725 c 0
 266 667 219 620 161 620 c 0
 103 620 56 667 56 725 c 0xe8
 56 783 103 830 161 830 c 0
EndSplineSet
EndChar

StartChar: Idotaccent
Encoding: 304 304 240
Width: 313
Flags: W
HStem: 0 21G<61 249> 805 20G<61 249> 905 210<92.5335 218.189>
VStem: 51 210<947.172 1072.83> 61 188<0 825>
LayerCount: 2
Fore
SplineSet
249 825 m 1xe8
 249 0 l 1
 61 0 l 1
 61 825 l 1
 249 825 l 1xe8
155 1115 m 0
 213 1115 261 1068 261 1010 c 0
 261 952 213 905 155 905 c 0
 97 905 51 952 51 1010 c 0xf0
 51 1068 97 1115 155 1115 c 0
EndSplineSet
EndChar

StartChar: dotlessi
Encoding: 305 305 241
Width: 301
Flags: W
HStem: 0 21G<60 237> 493 20G<60 237>
VStem: 60 177<0 513>
LayerCount: 2
Fore
SplineSet
60 0 m 1
 60 513 l 1
 237 513 l 1
 237 0 l 1
 60 0 l 1
EndSplineSet
EndChar

StartChar: IJ
Encoding: 306 306 242
Width: 769
Flags: W
HStem: -15 180<364.151 483.436> 805 20G<62 250 519 707>
VStem: 62 188<-15 825> 519 188<203.518 825>
LayerCount: 2
Fore
SplineSet
707 825 m 1
 707 233 l 2
 707 71 615 -15 450 -15 c 0
 332 -15 257 64 257 64 c 1
 317 221 l 1
 317 221 376 165 424 165 c 0
 478 165 519 198 519 281 c 2
 519 825 l 1
 707 825 l 1
250 825 m 1
 250 -15 l 1
 62 -15 l 1
 62 825 l 1
 250 825 l 1
EndSplineSet
EndChar

StartChar: ij
Encoding: 307 307 243
Width: 593
Flags: W
HStem: 0 21G<64 241> 493 20G<64 241 350 527> 620 210<92.8115 218.466 374.811 500.466>
VStem: 50 210<662.172 787.828> 64 177<0 513> 332 210<662.172 787.828> 350 177<18.2356 513>
LayerCount: 2
Fore
SplineSet
350 513 m 1xe2
 527 513 l 1
 527 92 l 2
 527 -47 450 -148 320 -148 c 0
 289 -148 235 -23 263 -12 c 0
 300 3 350 0 350 86 c 2
 350 513 l 1xe2
438 830 m 0
 496 830 542 783 542 725 c 0
 542 667 496 620 438 620 c 0
 380 620 332 667 332 725 c 0xe4
 332 783 380 830 438 830 c 0
241 513 m 1xe8
 241 0 l 1
 64 0 l 1
 64 513 l 1
 241 513 l 1xe8
50 725 m 0xf0
 50 783 98 830 156 830 c 0
 214 830 260 783 260 725 c 0
 260 667 214 620 156 620 c 0
 98 620 50 667 50 725 c 0xf0
EndSplineSet
EndChar

StartChar: Jcircumflex
Encoding: 308 308 244
Width: 650
Flags: W
HStem: -15 180<147.151 266.436> 805 20G<302 490>
VStem: 302 188<203.518 825>
LayerCount: 2
Fore
SplineSet
490 825 m 1
 490 233 l 2
 490 71 398 -15 233 -15 c 0
 115 -15 40 64 40 64 c 1
 100 221 l 1
 100 221 159 165 207 165 c 0
 261 165 302 198 302 281 c 2
 302 825 l 1
 490 825 l 1
173 975 m 1
 394 1137 l 1
 615 975 l 1
 547 884 l 1
 394 996 l 1
 241 884 l 1
 173 975 l 1
EndSplineSet
EndChar

StartChar: jcircumflex
Encoding: 309 309 245
Width: 516
Flags: W
HStem: 493 20G<167 344> 815 20G<228.84 283.407>
VStem: 167 177<18.2356 513>
LayerCount: 2
Fore
SplineSet
167 513 m 1
 344 513 l 1
 344 92 l 2
 344 -47 268 -148 138 -148 c 0
 107 -148 52 -23 80 -12 c 0
 117 3 167 0 167 86 c 2
 167 513 l 1
36 673 m 1
 256 835 l 1
 478 673 l 1
 410 582 l 1
 256 694 l 1
 104 582 l 1
 36 673 l 1
EndSplineSet
EndChar

StartChar: uni0136
Encoding: 310 310 246
Width: 850
Flags: W
HStem: 0 21G<62 250 536.629 813> 805 20G<62 250 516.205 761>
VStem: 62 188<0 350 488 825> 306 178<-184.181 -70.982>
LayerCount: 2
Fore
SplineSet
394 -40 m 0
 444 -40 484 -80 484 -130 c 0
 484 -223 417 -299 354 -351 c 1
 314 -320 l 1
 314 -320 361 -275 373 -210 c 1
 335 -201 306 -170 306 -130 c 0
 306 -80 346 -40 394 -40 c 0
813 0 m 1
 554 0 l 1
 250 350 l 1
 250 0 l 1
 62 0 l 1
 62 825 l 1
 250 825 l 1
 250 488 l 1
 533 825 l 1
 761 825 l 1
 429 434 l 1
 813 0 l 1
EndSplineSet
EndChar

StartChar: uni0137
Encoding: 311 311 247
Width: 709
Flags: W
HStem: 0 21G<62 239 424 672> 493 20G<398 648>
VStem: 62 177<0 205 334 860> 236 178<-184.181 -70.982>
LayerCount: 2
Fore
SplineSet
324 -40 m 0xd0
 374 -40 414 -80 414 -130 c 0
 414 -223 347 -299 284 -351 c 1
 244 -320 l 1
 244 -320 291 -275 303 -210 c 1
 265 -201 236 -170 236 -130 c 0
 236 -80 276 -40 324 -40 c 0xd0
648 513 m 1
 404 268 l 1
 672 0 l 1
 444 0 l 1
 239 205 l 1
 239 0 l 1
 62 0 l 1
 62 860 l 1
 239 860 l 1
 239 334 l 1xe0
 418 513 l 1
 648 513 l 1
EndSplineSet
EndChar

StartChar: kgreenlandic
Encoding: 312 312 248
Width: 697
Flags: W
VStem: 60 150<2 282 392 662>
LayerCount: 2
Fore
SplineSet
660 2 m 1
 453 2 l 1
 210 282 l 1
 210 2 l 1
 60 2 l 1
 60 662 l 1
 210 662 l 1
 210 392 l 1
 436 662 l 1
 619 662 l 1
 353 349 l 1
 660 2 l 1
EndSplineSet
EndChar

StartChar: Lacute
Encoding: 313 313 249
Width: 581
Flags: W
HStem: 0 165<249 533> 805 20G<61 249>
VStem: 61 188<165 825>
LayerCount: 2
Fore
SplineSet
249 825 m 1
 249 165 l 1
 533 165 l 1
 533 0 l 1
 61 0 l 1
 61 825 l 1
 249 825 l 1
137 976 m 1
 339 1152 l 1
 431 1037 l 1
 193 899 l 1
 137 976 l 1
EndSplineSet
EndChar

StartChar: lacute
Encoding: 314 314 250
Width: 386
Flags: W
HStem: 0 21G<198 278.5> 805 20G<58 234.135>
VStem: 60 178<187.331 825>
LayerCount: 2
Fore
SplineSet
263 0 m 0
 133 0 60 86 60 225 c 2
 58 825 l 1
 234 825 l 1
 238 234 l 2
 238 169 310 164 321 163 c 0
 351 161 294 0 263 0 c 0
57 1011 m 1
 260 1187 l 1
 351 1072 l 1
 113 934 l 1
 57 1011 l 1
EndSplineSet
EndChar

StartChar: uni013B
Encoding: 315 315 251
Width: 581
Flags: W
HStem: 0 165<249 533> 805 20G<61 249>
VStem: 61 188<165 825> 193 178<-180.473 -70.982>
LayerCount: 2
Fore
SplineSet
281 -40 m 0xd0
 331 -40 371 -80 371 -130 c 0
 371 -223 304 -299 241 -351 c 1
 201 -320 l 1
 201 -320 249 -275 261 -210 c 1
 223 -201 193 -170 193 -130 c 0
 193 -80 233 -40 281 -40 c 0xd0
249 825 m 1xe0
 249 165 l 1
 533 165 l 1
 533 0 l 1
 61 0 l 1
 61 825 l 1
 249 825 l 1xe0
EndSplineSet
EndChar

StartChar: uni013C
Encoding: 316 316 252
Width: 371
Flags: W
HStem: 0 21G<198 278.5> 805 20G<58 234.135>
VStem: 60 178<187.331 825> 68 178<-184.181 -70.982>
LayerCount: 2
Fore
SplineSet
263 0 m 0xe0
 133 0 60 86 60 225 c 2
 58 825 l 1
 234 825 l 1
 238 234 l 2
 238 169 310 164 321 163 c 0
 351 161 294 0 263 0 c 0xe0
156 -40 m 0
 206 -40 246 -80 246 -130 c 0
 246 -223 179 -299 116 -351 c 1
 76 -320 l 1
 76 -320 123 -275 135 -210 c 1
 97 -201 68 -170 68 -130 c 0xd0
 68 -80 108 -40 156 -40 c 0
EndSplineSet
EndChar

StartChar: Lcaron
Encoding: 317 317 253
Width: 582
Flags: W
HStem: 0 165<250 534> 513 21G<352.194 409.5> 805 20G<62 250>
VStem: 62 188<165 825> 330 178<683.527 793.018>
LayerCount: 2
Fore
SplineSet
418 824 m 0
 468 824 508 784 508 734 c 0
 508 641 441 565 378 513 c 1
 338 544 l 1
 338 544 386 589 398 654 c 1
 360 663 330 694 330 734 c 0
 330 784 370 824 418 824 c 0
250 825 m 1
 250 165 l 1
 534 165 l 1
 534 0 l 1
 62 0 l 1
 62 825 l 1
 250 825 l 1
EndSplineSet
EndChar

StartChar: lcaron
Encoding: 318 318 254
Width: 502
Flags: W
HStem: 0 21G<198 278.5> 513 21G<303.194 360.5> 805 20G<58 234.135>
VStem: 60 178<187.331 825> 281 178<679.819 793.018>
LayerCount: 2
Fore
SplineSet
263 0 m 0
 133 0 60 86 60 225 c 2
 58 825 l 1
 234 825 l 1
 238 234 l 2
 238 169 310 164 321 163 c 0
 351 161 294 0 263 0 c 0
369 824 m 0
 419 824 459 784 459 734 c 0
 459 641 392 565 329 513 c 1
 289 544 l 1
 289 544 335 589 347 654 c 1
 309 663 281 694 281 734 c 0
 281 784 321 824 369 824 c 0
EndSplineSet
EndChar

StartChar: Ldot
Encoding: 319 319 255
Width: 582
Flags: W
HStem: 0 165<250 534> 383 184<365.401 482.599> 805 20G<62 250>
VStem: 62 188<165 825> 332 184<416.401 533.599>
LayerCount: 2
Fore
SplineSet
250 825 m 1
 250 165 l 1
 534 165 l 1
 534 0 l 1
 62 0 l 1
 62 825 l 1
 250 825 l 1
424 567 m 0
 475 567 516 526 516 475 c 0
 516 424 475 383 424 383 c 0
 373 383 332 424 332 475 c 0
 332 526 373 567 424 567 c 0
EndSplineSet
EndChar

StartChar: ldot
Encoding: 320 320 256
Width: 514
Flags: W
HStem: 0 21G<198 278.5> 383 184<316.401 433.599> 805 20G<58 234.135>
VStem: 60 178<187.331 825> 283 184<416.401 533.599>
LayerCount: 2
Fore
SplineSet
263 0 m 0
 133 0 60 86 60 225 c 2
 58 825 l 1
 234 825 l 1
 238 234 l 2
 238 169 310 164 321 163 c 0
 351 161 294 0 263 0 c 0
375 567 m 0
 426 567 467 526 467 475 c 0
 467 424 426 383 375 383 c 0
 324 383 283 424 283 475 c 0
 283 526 324 567 375 567 c 0
EndSplineSet
EndChar

StartChar: Lslash
Encoding: 321 321 257
Width: 646
Flags: W
HStem: 0 165<314 598> 805 20G<126 314>
VStem: 126 188<165 309 610 825>
LayerCount: 2
Fore
SplineSet
50 250 m 1
 50 403 l 1
 126 462 l 1
 126 825 l 1
 314 825 l 1
 314 610 l 1
 420 693 l 1
 420 540 l 1
 314 457 l 1
 314 165 l 1
 598 165 l 1
 598 0 l 1
 126 0 l 1
 126 309 l 1
 50 250 l 1
EndSplineSet
EndChar

StartChar: lslash
Encoding: 322 322 258
Width: 440
Flags: W
HStem: 0 21G<266 346.5> 805 20G<125 301.179>
VStem: 127 178<187.331 311 602 825>
LayerCount: 2
Fore
SplineSet
50 250 m 1
 50 403 l 1
 127 463 l 1
 125 825 l 1
 301 825 l 1
 303 602 l 1
 379 662 l 1
 379 509 l 1
 304 450 l 1
 305 234 l 2
 305 169 377 164 388 163 c 0
 418 161 362 0 331 0 c 0
 201 0 127 86 127 225 c 2
 127 311 l 1
 50 250 l 1
EndSplineSet
EndChar

StartChar: Nacute
Encoding: 323 323 259
Width: 831
Flags: W
HStem: 0 21G<61 249 742.566 767> 805 20G<61 85.2824 578.906 767>
VStem: 61 188<0 424> 577 190<400 825>
LayerCount: 2
Fore
SplineSet
267 976 m 1
 470 1152 l 1
 561 1037 l 1
 323 899 l 1
 267 976 l 1
61 0 m 1
 61 825 l 1
 577 400 l 1
 579 825 l 1
 767 825 l 1
 767 0 l 1
 249 424 l 1
 249 0 l 1
 61 0 l 1
EndSplineSet
EndChar

StartChar: nacute
Encoding: 324 324 260
Width: 680
Flags: W
HStem: 0 21G<59 243 445 622> 384 144<276.575 412.462> 500 20G<59 199> 820 20G<449.932 488.826>
VStem: 59 184<0 349.74> 445 177<0 346.738>
LayerCount: 2
Fore
SplineSet
243 0 m 1xdc
 59 0 l 1
 59 520 l 1
 199 520 l 1xbc
 199 491 l 1
 233 514 280 528 345 528 c 0
 537 528 622 459 622 287 c 2
 622 0 l 1
 445 0 l 1
 445 244 l 2
 445 345 419 384 345 384 c 0
 271 384 243 345 243 244 c 2
 243 0 l 1xdc
270 664 m 1
 473 840 l 1
 564 725 l 1
 326 587 l 1
 270 664 l 1
EndSplineSet
EndChar

StartChar: uni0145
Encoding: 325 325 261
Width: 832
Flags: W
HStem: 0 21G<62 250 743.566 768> 805 20G<62 86.2824 579.906 768>
VStem: 62 188<0 424> 326 178<-184.181 -70.982> 578 190<400 825>
LayerCount: 2
Fore
SplineSet
414 -40 m 0
 464 -40 504 -80 504 -130 c 0
 504 -223 437 -299 374 -351 c 1
 334 -320 l 1
 334 -320 381 -275 393 -210 c 1
 355 -201 326 -170 326 -130 c 0
 326 -80 366 -40 414 -40 c 0
62 0 m 1
 62 825 l 1
 578 400 l 1
 580 825 l 1
 768 825 l 1
 768 0 l 1
 250 424 l 1
 250 0 l 1
 62 0 l 1
EndSplineSet
EndChar

StartChar: uni0146
Encoding: 326 326 262
Width: 683
Flags: W
HStem: 0 21G<60 244 446 623> 384 144<277.575 413.462> 500 20G<60 200>
VStem: 60 184<0 349.74> 241 178<-184.181 -70.982> 446 177<0 346.738>
LayerCount: 2
Fore
SplineSet
244 0 m 1xd4
 60 0 l 1
 60 520 l 1
 200 520 l 1xb4
 200 491 l 1
 234 514 281 528 346 528 c 0
 538 528 623 459 623 287 c 2
 623 0 l 1
 446 0 l 1
 446 244 l 2
 446 345 420 384 346 384 c 0
 272 384 244 345 244 244 c 2
 244 0 l 1xd4
329 -40 m 0
 379 -40 419 -80 419 -130 c 0
 419 -223 352 -299 289 -351 c 1
 249 -320 l 1
 249 -320 296 -275 308 -210 c 1
 270 -201 241 -170 241 -130 c 0x8c
 241 -80 281 -40 329 -40 c 0
EndSplineSet
EndChar

StartChar: Ncaron
Encoding: 327 327 263
Width: 831
Flags: W
HStem: 0 21G<61 249 742.566 767> 805 20G<61 85.2824 578.906 767>
VStem: 61 188<0 424> 577 190<400 825>
LayerCount: 2
Fore
SplineSet
261 1152 m 1
 414 1040 l 1
 567 1152 l 1
 635 1061 l 1
 414 899 l 1
 193 1061 l 1
 261 1152 l 1
61 0 m 1
 61 825 l 1
 577 400 l 1
 579 825 l 1
 767 825 l 1
 767 0 l 1
 249 424 l 1
 249 0 l 1
 61 0 l 1
EndSplineSet
EndChar

StartChar: ncaron
Encoding: 328 328 264
Width: 680
Flags: W
HStem: 0 21G<59 243 445 622> 384 144<276.575 412.462> 500 20G<59 199> 820 20G<160.055 202.143 453.5 495.945>
VStem: 59 184<0 349.74> 445 177<0 346.738>
LayerCount: 2
Fore
SplineSet
243 0 m 1xdc
 59 0 l 1
 59 520 l 1
 199 520 l 1xbc
 199 491 l 1
 233 514 280 528 345 528 c 0
 537 528 622 459 622 287 c 2
 622 0 l 1
 445 0 l 1
 445 244 l 2
 445 345 419 384 345 384 c 0
 271 384 243 345 243 244 c 2
 243 0 l 1xdc
175 840 m 1
 327 728 l 1
 481 840 l 1
 549 749 l 1
 327 587 l 1
 107 749 l 1
 175 840 l 1
EndSplineSet
EndChar

StartChar: napostrophe
Encoding: 329 329 265
Width: 756
Flags: W
HStem: 0 21G<134 318 520 697> 384 144<351.575 487.462> 500 20G<134 274> 520 21G<84.3333 129.103>
VStem: 134 184<0 349.74> 520 177<0 346.738>
LayerCount: 2
Fore
SplineSet
318 0 m 1xcc
 134 0 l 1
 134 520 l 1
 274 520 l 1xac
 274 491 l 1
 308 514 355 528 420 528 c 0
 612 528 697 459 697 287 c 2
 697 0 l 1
 520 0 l 1
 520 244 l 2
 520 345 494 384 420 384 c 0
 346 384 318 345 318 244 c 2
 318 0 l 1xcc
35 580 m 1
 187 802 l 1
 304 714 l 1
 109 520 l 1x9c
 35 580 l 1
EndSplineSet
EndChar

StartChar: Eng
Encoding: 330 330 266
Width: 832
Flags: W
HStem: -279 110<446 508.696> 0 21G<62 250> 805 20G<62 86.2824 579.906 768>
VStem: 62 188<0 424> 578 190<400 825>
LayerCount: 2
Fore
SplineSet
62 0 m 1
 62 825 l 1
 578 400 l 1
 580 825 l 1
 768 825 l 1
 768 0 l 2
 768 -247 523 -275 430 -279 c 1
 446 -169 l 1
 640 -135 664 70 612 128 c 1
 250 424 l 1
 250 0 l 1
 62 0 l 1
EndSplineSet
EndChar

StartChar: eng
Encoding: 331 331 267
Width: 683
Flags: W
HStem: -279 117<301 356.279> 0 21G<60 244> 384 144<277.575 413.462> 500 20G<60 200>
VStem: 60 184<0 349.74> 446 177<-71.8808 346.738>
LayerCount: 2
Fore
SplineSet
623 287 m 2xec
 623 0 l 1
 618 -241 377 -275 285 -279 c 1
 301 -162 l 1
 348 -157 445 -103 446 7 c 2
 446 244 l 2
 446 345 420 384 346 384 c 0xec
 272 384 244 345 244 244 c 2
 244 0 l 1
 60 0 l 1
 60 520 l 1
 200 520 l 1xdc
 200 491 l 1
 234 514 281 528 346 528 c 0
 538 528 623 459 623 287 c 2xec
EndSplineSet
EndChar

StartChar: Omacron
Encoding: 332 332 268
Width: 930
Flags: W
HStem: -15 198<377.025 548.866> 642 198<377.025 548.866> 946 120<259 667>
VStem: 47 205<315.937 509.94> 673 205<315.937 509.94>
LayerCount: 2
Fore
SplineSet
252 413 m 0
 252 288 345 183 463 183 c 0
 581 183 673 288 673 413 c 0
 673 538 581 642 463 642 c 0
 345 642 252 538 252 413 c 0
47 413 m 0
 47 645 231 840 463 840 c 0
 695 840 878 645 878 413 c 0
 878 181 695 -15 463 -15 c 0
 231 -15 47 181 47 413 c 0
259 1066 m 1
 667 1066 l 1
 667 946 l 1
 259 946 l 1
 259 1066 l 1
EndSplineSet
EndChar

StartChar: omacron
Encoding: 333 333 269
Width: 710
Flags: W
HStem: -15 155<284.859 423.891> 373 155<286.078 422.683> 634 120<147 555>
VStem: 49 182<194.152 318.033> 476 182<194.152 318.033>
LayerCount: 2
Fore
SplineSet
231 256 m 0
 231 194 287 140 354 140 c 0
 421 140 476 194 476 256 c 0
 476 318 421 373 354 373 c 0
 287 373 231 318 231 256 c 0
49 256 m 0
 49 401 188 528 355 528 c 0
 522 528 658 401 658 256 c 0
 658 111 522 -15 355 -15 c 0
 188 -15 49 111 49 256 c 0
147 754 m 1
 555 754 l 1
 555 634 l 1
 147 634 l 1
 147 754 l 1
EndSplineSet
EndChar

StartChar: Obreve
Encoding: 334 334 270
Width: 930
Flags: W
HStem: -15 198<377.025 548.866> 642 198<377.025 548.866> 904 109<399.596 526.114>
VStem: 47 205<315.937 509.94> 673 205<315.937 509.94>
LayerCount: 2
Fore
SplineSet
252 413 m 0
 252 288 345 183 463 183 c 0
 581 183 673 288 673 413 c 0
 673 538 581 642 463 642 c 0
 345 642 252 538 252 413 c 0
47 413 m 0
 47 645 231 840 463 840 c 0
 695 840 878 645 878 413 c 0
 878 181 695 -15 463 -15 c 0
 231 -15 47 181 47 413 c 0
567 1116 m 1
 693 1085 l 1
 681 978 592 904 463 904 c 0
 334 904 243 978 231 1085 c 1
 357 1116 l 1
 357 1116 369 1013 463 1013 c 0
 557 1013 567 1116 567 1116 c 1
EndSplineSet
EndChar

StartChar: obreve
Encoding: 335 335 271
Width: 709
Flags: W
HStem: -15 155<283.859 422.891> 373 155<285.078 421.683> 594 109<288.741 415.259>
VStem: 48 182<194.152 318.033> 475 182<194.152 318.033>
LayerCount: 2
Fore
SplineSet
230 256 m 0
 230 194 286 140 353 140 c 0
 420 140 475 194 475 256 c 0
 475 318 420 373 353 373 c 0
 286 373 230 318 230 256 c 0
48 256 m 0
 48 401 187 528 354 528 c 0
 521 528 657 401 657 256 c 0
 657 111 521 -15 354 -15 c 0
 187 -15 48 111 48 256 c 0
457 806 m 1
 583 775 l 1
 571 668 481 594 352 594 c 0
 223 594 133 668 121 775 c 1
 247 806 l 1
 247 806 258 703 352 703 c 0
 446 703 457 806 457 806 c 1
EndSplineSet
EndChar

StartChar: Ohungarumlaut
Encoding: 336 336 272
Width: 930
Flags: W
HStem: -15 198<377.025 548.866> 642 198<377.025 548.866>
VStem: 47 205<315.937 509.94> 673 205<315.937 509.94>
LayerCount: 2
Fore
SplineSet
252 413 m 0
 252 288 345 183 463 183 c 0
 581 183 673 288 673 413 c 0
 673 538 581 642 463 642 c 0
 345 642 252 538 252 413 c 0
47 413 m 0
 47 645 231 840 463 840 c 0
 695 840 878 645 878 413 c 0
 878 181 695 -15 463 -15 c 0
 231 -15 47 181 47 413 c 0
467 976 m 1
 639 1172 l 1
 721 1068 l 1
 523 899 l 1
 467 976 l 1
255 976 m 1
 429 1172 l 1
 511 1068 l 1
 311 899 l 1
 255 976 l 1
EndSplineSet
EndChar

StartChar: ohungarumlaut
Encoding: 337 337 273
Width: 709
Flags: W
HStem: -15 155<283.859 422.891> 373 155<285.078 421.683>
VStem: 48 182<194.152 318.033> 475 182<194.152 318.033>
LayerCount: 2
Fore
SplineSet
230 256 m 0
 230 194 286 140 353 140 c 0
 420 140 475 194 475 256 c 0
 475 318 420 373 353 373 c 0
 286 373 230 318 230 256 c 0
48 256 m 0
 48 401 187 528 354 528 c 0
 521 528 657 401 657 256 c 0
 657 111 521 -15 354 -15 c 0
 187 -15 48 111 48 256 c 0
354 664 m 1
 527 860 l 1
 609 756 l 1
 410 587 l 1
 354 664 l 1
143 664 m 1
 316 860 l 1
 398 756 l 1
 199 587 l 1
 143 664 l 1
EndSplineSet
EndChar

StartChar: OE
Encoding: 338 338 274
Width: 1041
Flags: W
HStem: 0 165<389.11 514 702 986> 331 165<702 974> 660 165<389.371 514 702 986>
VStem: 47 201<293.486 531.414> 514 188<168 331 496 657>
LayerCount: 2
Fore
SplineSet
462 0 m 2
 235 0 47 172 47 413 c 0
 47 653 236 825 462 825 c 2
 986 825 l 1
 986 660 l 1
 702 660 l 1
 702 496 l 1
 974 496 l 1
 974 331 l 1
 702 331 l 1
 702 165 l 1
 986 165 l 1
 986 0 l 1
 462 0 l 2
248 412 m 0
 248 268 311 168 514 168 c 1
 514 657 l 1
 311 657 248 556 248 412 c 0
EndSplineSet
EndChar

StartChar: oe
Encoding: 339 339 275
Width: 1052
Flags: W
HStem: -15 155<264.116 390.661> 227 90<632 827> 373 155<265.226 389.562> 413 115<670.04 788.427>
VStem: 50 165<189.789 322.413>
LayerCount: 2
Fore
SplineSet
50 256 m 0xd8
 50 401 176 528 328 528 c 0xe8
 404 528 473 496 523 446 c 1
 574 497 646 528 725 528 c 0
 881 528 1000 418 1000 227 c 1
 627 227 l 1
 627 141 750 60 863 173 c 1
 991 119 l 1
 933 22 839 -15 725 -15 c 0
 646 -15 574 16 523 67 c 1
 473 17 404 -15 328 -15 c 0
 176 -15 50 111 50 256 c 0xd8
215 256 m 0
 215 194 266 140 327 140 c 0
 388 140 438 194 438 256 c 0
 438 318 388 373 327 373 c 0
 266 373 215 318 215 256 c 0
632 317 m 1
 827 317 l 1
 819 371 782 413 730 413 c 0xd8
 669 413 635 364 632 317 c 1
EndSplineSet
EndChar

StartChar: Racute
Encoding: 340 340 276
Width: 753
Flags: W
HStem: 0 21G<61 249 497.883 717> 675 150<249 387.875>
VStem: 61 188<0 306 456 675> 445 198<505.682 626.183>
LayerCount: 2
Fore
SplineSet
61 825 m 1
 361 825 l 1
 560 820 643 698 643 571 c 0
 643 446 574 380 491 345 c 1
 717 0 l 1
 511 0 l 1
 309 308 l 1
 286 307 266 306 249 306 c 1
 249 0 l 1
 61 0 l 1
 61 825 l 1
249 456 m 1
 341 458 445 468 445 565 c 0
 445 656 358 675 249 675 c 1
 249 456 l 1
211 976 m 1
 415 1152 l 1
 505 1037 l 1
 267 899 l 1
 211 976 l 1
EndSplineSet
EndChar

StartChar: racute
Encoding: 341 341 277
Width: 549
Flags: W
HStem: 0 21G<59 236> 374 154<296.473 423.928> 493 20G<59 236> 820 20G<327.818 366.652>
VStem: 59 177<0 331.421 439 513>
LayerCount: 2
Fore
SplineSet
236 513 m 1xb8
 236 439 l 2
 236 475 306 528 378 528 c 0
 462 528 507 496 507 496 c 1
 433 346 l 1
 433 346 400 374 341 374 c 0xd8
 249 374 236 283 236 270 c 2
 236 0 l 1
 59 0 l 1
 59 513 l 1
 236 513 l 1xb8
147 664 m 1
 351 840 l 1
 441 725 l 1
 203 587 l 1
 147 664 l 1
EndSplineSet
EndChar

StartChar: uni0156
Encoding: 342 342 278
Width: 757
Flags: W
HStem: 0 21G<62 250 498.948 720> 675 150<250 388.875>
VStem: 62 188<0 306 456 675> 272 178<-184.181 -70.982> 446 198<505.682 626.183>
LayerCount: 2
Fore
SplineSet
62 825 m 1xe8
 364 825 l 1
 563 820 644 698 644 571 c 0
 644 446 576 380 493 345 c 1
 720 0 l 1
 512 0 l 1
 311 308 l 1
 288 307 267 306 250 306 c 1
 250 0 l 1
 62 0 l 1
 62 825 l 1xe8
250 456 m 1
 342 458 446 468 446 565 c 0
 446 656 359 675 250 675 c 1
 250 456 l 1
360 -40 m 0
 410 -40 450 -80 450 -130 c 0
 450 -223 383 -299 320 -351 c 1
 280 -320 l 1
 280 -320 326 -275 338 -210 c 1
 300 -201 272 -170 272 -130 c 0xf0
 272 -80 312 -40 360 -40 c 0
EndSplineSet
EndChar

StartChar: uni0157
Encoding: 343 343 279
Width: 552
Flags: W
HStem: 0 21G<60 237> 374 154<297.473 424.928> 493 20G<60 237>
VStem: 60 177<-180.473 -70.982 0 331.421 439 513>
LayerCount: 2
Fore
SplineSet
237 513 m 1xb0
 237 439 l 2
 237 475 307 528 379 528 c 0
 463 528 508 496 508 496 c 1
 434 346 l 1
 434 346 401 374 342 374 c 0xd0
 250 374 237 283 237 270 c 2
 237 0 l 1
 60 0 l 1
 60 513 l 1
 237 513 l 1xb0
148 -40 m 0
 198 -40 238 -80 238 -130 c 0
 238 -223 171 -299 108 -351 c 1
 68 -320 l 1
 68 -320 116 -275 128 -210 c 1
 90 -201 60 -170 60 -130 c 0
 60 -80 100 -40 148 -40 c 0
EndSplineSet
EndChar

StartChar: Rcaron
Encoding: 344 344 280
Width: 753
Flags: W
HStem: 0 21G<61 249 497.883 717> 675 150<249 387.875>
VStem: 61 188<0 306 456 675> 445 198<505.682 626.183>
LayerCount: 2
Fore
SplineSet
61 825 m 1
 361 825 l 1
 560 820 643 698 643 571 c 0
 643 446 574 380 491 345 c 1
 717 0 l 1
 511 0 l 1
 309 308 l 1
 286 307 266 306 249 306 c 1
 249 0 l 1
 61 0 l 1
 61 825 l 1
249 456 m 1
 341 458 445 468 445 565 c 0
 445 656 358 675 249 675 c 1
 249 456 l 1
171 1152 m 1
 325 1040 l 1
 477 1152 l 1
 545 1061 l 1
 325 899 l 1
 103 1061 l 1
 171 1152 l 1
EndSplineSet
EndChar

StartChar: rcaron
Encoding: 345 345 281
Width: 552
Flags: W
HStem: 0 21G<62 239> 374 154<299.473 426.928> 493 20G<62 239> 820 20G<103.055 145.143 396.5 438.945>
VStem: 62 177<0 331.421 439 513>
LayerCount: 2
Fore
SplineSet
239 513 m 1xb8
 239 439 l 2
 239 475 309 528 381 528 c 0
 465 528 510 496 510 496 c 1
 436 346 l 1
 436 346 403 374 344 374 c 0xd8
 252 374 239 283 239 270 c 2
 239 0 l 1
 62 0 l 1
 62 513 l 1
 239 513 l 1xb8
118 840 m 1
 270 728 l 1
 424 840 l 1
 492 749 l 1
 270 587 l 1
 50 749 l 1
 118 840 l 1
EndSplineSet
EndChar

StartChar: Sacute
Encoding: 346 346 282
Width: 710
Flags: W
VStem: 110 184<561.323 638.491> 454 206<192.369 290.833>
LayerCount: 2
Fore
SplineSet
132 252 m 1
 242 175 454 117 454 240 c 0
 454 371 110 399 110 588 c 0
 110 765 304 950 636 762 c 1
 560 612 l 1
 437 719 294 664 294 595 c 0
 294 505 660 481 660 251 c 0
 660 54 378 -145 38 94 c 1
 132 252 l 1
204 976 m 1
 408 1152 l 1
 498 1037 l 1
 260 899 l 1
 204 976 l 1
EndSplineSet
EndChar

StartChar: sacute
Encoding: 347 347 283
Width: 526
Flags: W
HStem: 820 20G<334.045 373>
VStem: 293 187<124.339 192.399>
LayerCount: 2
Fore
SplineSet
111 175 m 1
 231 85 293 119 293 153 c 0
 293 231 75 261 75 363 c 0
 75 460 216 602 471 488 c 1
 413 372 l 1
 277 434 243 397 243 373 c 0
 243 311 480 283 480 160 c 0
 480 9 226 -87 39 54 c 1
 111 175 l 1
155 664 m 1
 357 840 l 1
 449 725 l 1
 211 587 l 1
 155 664 l 1
EndSplineSet
EndChar

StartChar: Scircumflex
Encoding: 348 348 284
Width: 710
Flags: W
VStem: 110 184<561.323 638.491> 454 206<192.369 290.833>
LayerCount: 2
Fore
SplineSet
132 252 m 1
 242 175 454 117 454 240 c 0
 454 371 110 399 110 588 c 0
 110 765 304 950 636 762 c 1
 560 612 l 1
 437 719 294 664 294 595 c 0
 294 505 660 481 660 251 c 0
 660 54 378 -145 38 94 c 1
 132 252 l 1
154 975 m 1
 374 1137 l 1
 596 975 l 1
 528 884 l 1
 374 996 l 1
 222 884 l 1
 154 975 l 1
EndSplineSet
EndChar

StartChar: scircumflex
Encoding: 349 349 285
Width: 530
Flags: W
VStem: 294 187<124.339 192.399>
LayerCount: 2
Fore
SplineSet
112 175 m 1
 232 85 294 119 294 153 c 0
 294 231 76 261 76 363 c 0
 76 460 217 602 472 488 c 1
 414 372 l 1
 278 434 244 397 244 373 c 0
 244 311 481 283 481 160 c 0
 481 9 227 -87 40 54 c 1
 112 175 l 1
42 654 m 1
 264 816 l 1
 484 654 l 1
 416 563 l 1
 264 675 l 1
 110 563 l 1
 42 654 l 1
EndSplineSet
EndChar

StartChar: Scedilla
Encoding: 350 350 286
Width: 711
Flags: W
VStem: 110 184<561.323 638.491> 262 178<-184.181 -70.982> 454 206<192.369 290.833>
LayerCount: 2
Fore
SplineSet
132 252 m 1xa0
 242 175 454 117 454 240 c 0
 454 371 110 399 110 588 c 0
 110 765 304 950 636 762 c 1
 560 612 l 1
 437 719 294 664 294 595 c 0
 294 505 660 481 660 251 c 0
 660 54 378 -145 38 94 c 1
 132 252 l 1xa0
350 -40 m 0
 400 -40 440 -80 440 -130 c 0
 440 -223 373 -299 310 -351 c 1
 270 -320 l 1
 270 -320 316 -275 328 -210 c 1
 290 -201 262 -170 262 -130 c 0x60
 262 -80 302 -40 350 -40 c 0
EndSplineSet
EndChar

StartChar: scedilla
Encoding: 351 351 287
Width: 528
Flags: W
VStem: 173 178<-184.181 -70.982> 293 187<124.339 192.399>
LayerCount: 2
Fore
SplineSet
111 175 m 1x40
 231 85 293 119 293 153 c 0
 293 231 75 261 75 363 c 0
 75 460 216 602 471 488 c 1
 413 372 l 1
 277 434 243 397 243 373 c 0
 243 311 480 283 480 160 c 0
 480 9 226 -87 39 54 c 1
 111 175 l 1x40
261 -40 m 0
 311 -40 351 -80 351 -130 c 0
 351 -223 284 -299 221 -351 c 1
 181 -320 l 1
 181 -320 227 -275 239 -210 c 1
 201 -201 173 -170 173 -130 c 0x80
 173 -80 213 -40 261 -40 c 0
EndSplineSet
EndChar

StartChar: Scaron
Encoding: 352 352 288
Width: 710
Flags: W
VStem: 110 184<561.323 638.491> 454 206<192.369 290.833>
LayerCount: 2
Fore
SplineSet
132 252 m 1
 242 175 454 117 454 240 c 0
 454 371 110 399 110 588 c 0
 110 765 304 950 636 762 c 1
 560 612 l 1
 437 719 294 664 294 595 c 0
 294 505 660 481 660 251 c 0
 660 54 378 -145 38 94 c 1
 132 252 l 1
198 1152 m 1
 352 1040 l 1
 504 1152 l 1
 572 1061 l 1
 352 899 l 1
 130 1061 l 1
 198 1152 l 1
EndSplineSet
EndChar

StartChar: scaron
Encoding: 353 353 289
Width: 530
Flags: W
HStem: 820 20G<95.0549 137.321 388.679 430.945>
VStem: 294 187<124.339 192.399>
LayerCount: 2
Fore
SplineSet
112 175 m 1
 232 85 294 119 294 153 c 0
 294 231 76 261 76 363 c 0
 76 460 217 602 472 488 c 1
 414 372 l 1
 278 434 244 397 244 373 c 0
 244 311 481 283 481 160 c 0
 481 9 227 -87 40 54 c 1
 112 175 l 1
110 840 m 1
 263 728 l 1
 416 840 l 1
 484 749 l 1
 263 587 l 1
 42 749 l 1
 110 840 l 1
EndSplineSet
EndChar

StartChar: uni0162
Encoding: 354 354 290
Width: 669
Flags: W
HStem: 0 21G<239 427> 660 165<43 239 427 623>
VStem: 245 178<-184.181 -70.982 0 660>
LayerCount: 2
Fore
SplineSet
43 660 m 1
 43 825 l 1
 623 825 l 1
 623 660 l 1
 427 660 l 1
 427 0 l 1
 239 0 l 1
 239 660 l 1
 43 660 l 1
333 -40 m 0
 383 -40 423 -80 423 -130 c 0
 423 -223 356 -299 293 -351 c 1
 253 -320 l 1
 253 -320 300 -275 312 -210 c 1
 274 -201 245 -170 245 -130 c 0
 245 -80 285 -40 333 -40 c 0
EndSplineSet
EndChar

StartChar: uni0163
Encoding: 355 355 291
Width: 468
Flags: W
HStem: -15 159<224.5 386.317> 378 135<46 120 297 405>
VStem: 120 177<150.794 378 513 704> 137 178<-184.181 -70.982>
LayerCount: 2
Fore
SplineSet
120 513 m 1xe0
 120 704 l 1
 297 704 l 1
 297 513 l 1
 405 513 l 1
 405 378 l 1
 297 378 l 1
 297 215 l 2
 297 167 309 144 337 144 c 0
 360 144 381 160 381 160 c 1
 425 17 l 1
 425 17 368 -15 295 -15 c 0
 154 -15 120 90 120 181 c 2
 120 378 l 1
 46 378 l 1
 46 513 l 1
 120 513 l 1xe0
225 -40 m 0
 275 -40 315 -80 315 -130 c 0
 315 -223 248 -299 185 -351 c 1
 145 -320 l 1
 145 -320 192 -275 204 -210 c 1
 166 -201 137 -170 137 -130 c 0xd0
 137 -80 177 -40 225 -40 c 0
EndSplineSet
EndChar

StartChar: Tcaron
Encoding: 356 356 292
Width: 872
Flags: W
HStem: 0 21G<239 427> 660 165<43 239 427 623>
VStem: 239 188<0 660> 654 178<793.819 907.018>
LayerCount: 2
Fore
SplineSet
43 660 m 1
 43 825 l 1
 623 825 l 1
 623 660 l 1
 427 660 l 1
 427 0 l 1
 239 0 l 1
 239 660 l 1
 43 660 l 1
742 938 m 0
 792 938 832 898 832 848 c 0
 832 755 765 679 702 627 c 1
 662 658 l 1
 662 658 709 703 721 768 c 1
 683 777 654 808 654 848 c 0
 654 898 694 938 742 938 c 0
EndSplineSet
EndChar

StartChar: tcaron
Encoding: 357 357 293
Width: 639
Flags: W
HStem: -15 159<224.5 386.317> 378 135<46 120 297 405> 513 21G<440.194 497.5>
VStem: 120 177<150.794 378 513 704> 418 178<679.819 793.018>
LayerCount: 2
Fore
SplineSet
120 513 m 1xd8
 120 704 l 1
 297 704 l 1
 297 513 l 1
 405 513 l 1
 405 378 l 1
 297 378 l 1
 297 215 l 2
 297 167 309 144 337 144 c 0
 360 144 381 160 381 160 c 1
 425 17 l 1
 425 17 368 -15 295 -15 c 0
 154 -15 120 90 120 181 c 2
 120 378 l 1
 46 378 l 1
 46 513 l 1
 120 513 l 1xd8
506 824 m 0
 556 824 596 784 596 734 c 0
 596 641 529 565 466 513 c 1xb8
 426 544 l 1
 426 544 473 589 485 654 c 1
 447 663 418 694 418 734 c 0
 418 784 458 824 506 824 c 0
EndSplineSet
EndChar

StartChar: Tbar
Encoding: 358 358 294
Width: 669
Flags: W
HStem: 0 21G<239 427> 338 177<112 239 427 563> 660 165<43 239 427 623>
VStem: 239 188<0 338 515 660>
LayerCount: 2
Fore
SplineSet
43 660 m 1
 43 825 l 1
 623 825 l 1
 623 660 l 1
 427 660 l 1
 427 515 l 1
 563 515 l 1
 563 338 l 1
 427 338 l 1
 427 0 l 1
 239 0 l 1
 239 338 l 1
 112 338 l 1
 112 515 l 1
 239 515 l 1
 239 660 l 1
 43 660 l 1
EndSplineSet
EndChar

StartChar: tbar
Encoding: 359 359 295
Width: 478
Flags: W
HStem: -15 159<231.5 393.317> 236 113<54 127 304 412> 411 135<53 127 304 412>
VStem: 53 359<236 349 411 546> 127 177<150.794 236 349 411 546 704>
LayerCount: 2
Fore
SplineSet
127 546 m 1xe8
 127 704 l 1
 304 704 l 1
 304 546 l 1xe8
 412 546 l 1
 412 411 l 1xf0
 304 411 l 1
 304 349 l 1xe8
 412 349 l 1
 412 236 l 1xf0
 304 236 l 1
 304 215 l 2
 304 167 316 144 344 144 c 0
 367 144 388 160 388 160 c 1
 432 17 l 1
 432 17 375 -15 302 -15 c 0
 161 -15 127 90 127 181 c 2
 127 236 l 1
 54 236 l 1
 54 349 l 1
 127 349 l 1
 127 411 l 1xe8
 53 411 l 1
 53 546 l 1xf0
 127 546 l 1xe8
EndSplineSet
EndChar

StartChar: Utilde
Encoding: 360 360 296
Width: 762
Flags: W
HStem: -15 185<295.929 464.071> 805 20G<58 246 514 702> 905 126<385.493 497.493> 951 126<261.722 376.507>
VStem: 58 188<229.657 825> 514 188<229.657 825>
LayerCount: 2
Fore
SplineSet
514 825 m 1xcc
 702 825 l 1
 702 293 l 2
 702 89 590 -15 380 -15 c 0
 170 -15 58 89 58 293 c 2
 58 825 l 1
 246 825 l 1
 246 348 l 2
 246 210 288 170 380 170 c 0
 472 170 514 210 514 348 c 2
 514 825 l 1xcc
372 932 m 1
 372 932 332 951 296 951 c 0xdc
 264 951 250 905 250 905 c 1
 150 905 l 1xec
 150 905 176 1077 286 1077 c 0xdc
 325 1077 390 1050 390 1050 c 1
 390 1050 430 1031 466 1031 c 0xec
 498 1031 510 1077 510 1077 c 1
 612 1077 l 1xdc
 612 1077 586 905 476 905 c 0xec
 437 905 372 932 372 932 c 1
EndSplineSet
EndChar

StartChar: utilde
Encoding: 361 361 297
Width: 672
Flags: W
HStem: -15 144<266.336 401.664> 493 20G<56 233 435 612> 605 126<340.493 452.732> 651 126<219.268 331.507>
VStem: 56 177<166.262 513> 435 177<166.262 513>
LayerCount: 2
Fore
SplineSet
56 513 m 1xcc
 233 513 l 1
 233 269 l 2
 233 168 260 129 334 129 c 0
 408 129 435 168 435 269 c 2
 435 513 l 1
 612 513 l 1
 612 226 l 2
 612 54 526 -15 334 -15 c 0
 142 -15 56 54 56 226 c 2
 56 513 l 1xcc
327 632 m 1
 327 632 287 651 251 651 c 0xdc
 219 651 206 605 206 605 c 1
 105 605 l 1xec
 105 605 131 777 241 777 c 0xdc
 280 777 345 750 345 750 c 1
 345 750 385 731 421 731 c 0xec
 453 731 466 777 466 777 c 1
 567 777 l 1xdc
 567 777 541 605 431 605 c 0xec
 392 605 327 632 327 632 c 1
EndSplineSet
EndChar

StartChar: Umacron
Encoding: 362 362 298
Width: 762
Flags: W
HStem: -15 185<295.929 464.071> 805 20G<58 246 514 702> 946 120<176 584>
VStem: 58 188<229.657 825> 514 188<229.657 825>
LayerCount: 2
Fore
SplineSet
514 825 m 1
 702 825 l 1
 702 293 l 2
 702 89 590 -15 380 -15 c 0
 170 -15 58 89 58 293 c 2
 58 825 l 1
 246 825 l 1
 246 348 l 2
 246 210 288 170 380 170 c 0
 472 170 514 210 514 348 c 2
 514 825 l 1
176 1066 m 1
 584 1066 l 1
 584 946 l 1
 176 946 l 1
 176 1066 l 1
EndSplineSet
EndChar

StartChar: umacron
Encoding: 363 363 299
Width: 673
Flags: W
HStem: -15 144<267.336 402.664> 493 20G<57 234 436 613> 634 120<131 539>
VStem: 57 177<166.262 513> 436 177<166.262 513>
LayerCount: 2
Fore
SplineSet
57 513 m 1
 234 513 l 1
 234 269 l 2
 234 168 261 129 335 129 c 0
 409 129 436 168 436 269 c 2
 436 513 l 1
 613 513 l 1
 613 226 l 2
 613 54 527 -15 335 -15 c 0
 143 -15 57 54 57 226 c 2
 57 513 l 1
131 754 m 1
 539 754 l 1
 539 634 l 1
 131 634 l 1
 131 754 l 1
EndSplineSet
EndChar

StartChar: Ubreve
Encoding: 364 364 300
Width: 762
Flags: W
HStem: -15 185<295.929 464.071> 805 20G<58 246 514 702> 892 109<316.886 443.404>
VStem: 58 188<229.657 825> 514 188<229.657 825>
LayerCount: 2
Fore
SplineSet
514 825 m 1
 702 825 l 1
 702 293 l 2
 702 89 590 -15 380 -15 c 0
 170 -15 58 89 58 293 c 2
 58 825 l 1
 246 825 l 1
 246 348 l 2
 246 210 288 170 380 170 c 0
 472 170 514 210 514 348 c 2
 514 825 l 1
486 1104 m 1
 612 1073 l 1
 600 966 509 892 380 892 c 0
 251 892 162 966 150 1073 c 1
 276 1104 l 1
 276 1104 286 1001 380 1001 c 0
 474 1001 486 1104 486 1104 c 1
EndSplineSet
EndChar

StartChar: ubreve
Encoding: 365 365 301
Width: 671
Flags: W
HStem: -15 144<266.336 401.664> 493 20G<56 233 435 612> 576 109<269.741 396.259>
VStem: 56 177<166.262 513> 435 177<166.262 513>
LayerCount: 2
Fore
SplineSet
56 513 m 1
 233 513 l 1
 233 269 l 2
 233 168 260 129 334 129 c 0
 408 129 435 168 435 269 c 2
 435 513 l 1
 612 513 l 1
 612 226 l 2
 612 54 526 -15 334 -15 c 0
 142 -15 56 54 56 226 c 2
 56 513 l 1
438 788 m 1
 564 757 l 1
 552 650 462 576 333 576 c 0
 204 576 114 650 102 757 c 1
 228 788 l 1
 228 788 239 685 333 685 c 0
 427 685 438 788 438 788 c 1
EndSplineSet
EndChar

StartChar: Uring
Encoding: 366 366 302
Width: 762
Flags: W
HStem: -15 185<295.929 464.071> 805 20G<58 246 514 702> 902 79<336.025 426.055> 1107 80<335.149 425.845>
VStem: 58 188<229.657 825> 220 100<995.975 1092.54> 442 100<996.958 1090.36> 514 188<229.657 825>
LayerCount: 2
Fore
SplineSet
702 825 m 1xf9
 702 293 l 2
 702 89 590 -15 380 -15 c 0
 170 -15 58 89 58 293 c 2
 58 825 l 1
 246 825 l 1
 246 348 l 2
 246 210 288 170 380 170 c 0
 472 170 514 210 514 348 c 2
 514 825 l 1
 702 825 l 1xf9
320 1045 m 0xf6
 320 1010 344 981 380 981 c 0
 415 981 442 1010 442 1045 c 0
 442 1079 414 1107 380 1107 c 0
 347 1107 320 1079 320 1045 c 0xf6
220 1045 m 0
 220 1128 290 1187 380 1187 c 0
 471 1187 542 1128 542 1045 c 0
 542 961 474 902 380 902 c 0
 284 902 220 961 220 1045 c 0
EndSplineSet
EndChar

StartChar: uring
Encoding: 367 367 303
Width: 672
Flags: W
HStem: -15 144<266.336 401.664> 493 20G<56 233 435 612> 590 79<287.729 379.743> 795 80<288.824 379.521>
VStem: 56 177<166.262 513> 173 100<684.459 780.057> 395 100<684.459 780.057> 435 177<166.262 513>
LayerCount: 2
Fore
SplineSet
233 513 m 1xf9
 233 269 l 2
 233 168 260 129 334 129 c 0
 408 129 435 168 435 269 c 2
 435 513 l 1
 612 513 l 1
 612 226 l 2
 612 54 526 -15 334 -15 c 0
 142 -15 56 54 56 226 c 2
 56 513 l 1
 233 513 l 1xf9
273 733 m 0xf6
 273 698 298 669 334 669 c 0
 369 669 395 698 395 733 c 0
 395 767 368 795 334 795 c 0
 301 795 273 767 273 733 c 0xf6
173 733 m 0
 173 816 244 875 334 875 c 0
 425 875 495 816 495 733 c 0
 495 649 428 590 334 590 c 0
 238 590 173 649 173 733 c 0
EndSplineSet
EndChar

StartChar: Uhungarumlaut
Encoding: 368 368 304
Width: 762
Flags: W
HStem: -15 185<295.929 464.071> 805 20G<58 246 514 702>
VStem: 58 188<229.657 825> 514 188<229.657 825>
LayerCount: 2
Fore
SplineSet
514 825 m 1
 702 825 l 1
 702 293 l 2
 702 89 590 -15 380 -15 c 0
 170 -15 58 89 58 293 c 2
 58 825 l 1
 246 825 l 1
 246 348 l 2
 246 210 288 170 380 170 c 0
 472 170 514 210 514 348 c 2
 514 825 l 1
384 976 m 1
 558 1172 l 1
 640 1068 l 1
 440 899 l 1
 384 976 l 1
174 976 m 1
 346 1172 l 1
 428 1068 l 1
 230 899 l 1
 174 976 l 1
EndSplineSet
EndChar

StartChar: uhungarumlaut
Encoding: 369 369 305
Width: 671
Flags: W
HStem: -15 144<266.336 401.664> 493 20G<56 233 435 612>
VStem: 56 177<166.262 513> 435 177<166.262 513>
LayerCount: 2
Fore
SplineSet
56 513 m 1
 233 513 l 1
 233 269 l 2
 233 168 260 129 334 129 c 0
 408 129 435 168 435 269 c 2
 435 513 l 1
 612 513 l 1
 612 226 l 2
 612 54 526 -15 334 -15 c 0
 142 -15 56 54 56 226 c 2
 56 513 l 1
338 664 m 1
 511 860 l 1
 593 756 l 1
 394 587 l 1
 338 664 l 1
127 664 m 1
 300 860 l 1
 382 756 l 1
 183 587 l 1
 127 664 l 1
EndSplineSet
EndChar

StartChar: Uogonek
Encoding: 370 370 306
Width: 762
Flags: W
HStem: -275 96<381.538 457.189> 805 20G<58 246 514 702>
VStem: 58 188<225.219 825> 274 103<-174.514 -83.2004> 514 188<226.162 825>
LayerCount: 2
Fore
SplineSet
274 -158 m 0
 274 -108 312 -51 342 -13 c 1
 156 -1 58 101 58 293 c 2
 58 825 l 1
 246 825 l 1
 246 348 l 2
 246 210 288 170 380 170 c 0
 472 170 514 210 514 348 c 2
 514 825 l 1
 702 825 l 1
 702 293 l 2
 702 104 607 1 426 -13 c 1
 409 -36 377 -88 377 -140 c 0
 377 -165 397 -179 414 -179 c 0
 445 -179 464 -149 464 -149 c 1
 536 -203 l 1
 536 -203 492 -275 400 -275 c 0
 348 -275 274 -245 274 -158 c 0
EndSplineSet
EndChar

StartChar: uogonek
Encoding: 371 371 307
Width: 673
Flags: W
HStem: -275 96<335.538 411.622> 493 20G<57 234 436 613>
VStem: 57 177<163.705 513> 228 103<-174.514 -83.767> 436 177<164.43 513>
LayerCount: 2
Fore
SplineSet
228 -158 m 0xd8
 228 -108 266 -51 297 -14 c 1
 131 -5 57 66 57 226 c 2
 57 513 l 1
 234 513 l 1
 234 269 l 2xe8
 234 168 261 129 335 129 c 0
 409 129 436 168 436 269 c 2
 436 513 l 1
 613 513 l 1
 613 226 l 2
 613 68 540 -3 379 -14 c 1
 362 -38 331 -89 331 -140 c 0
 331 -165 351 -179 368 -179 c 0
 399 -179 419 -149 419 -149 c 1
 491 -203 l 1
 491 -203 446 -275 354 -275 c 0
 302 -275 228 -245 228 -158 c 0xd8
EndSplineSet
EndChar

StartChar: Wcircumflex
Encoding: 372 372 308
Width: 1226
Flags: W
HStem: 0 21G<265.327 486.702 739.298 958.673> 805 20G<37 250.018 535.7 688.3 974.053 1187>
LayerCount: 2
Fore
SplineSet
745 0 m 1
 613 463 l 1
 481 0 l 1
 271 0 l 1
 37 825 l 1
 245 825 l 1
 387 259 l 1
 391 259 l 1
 541 825 l 1
 683 825 l 1
 833 259 l 1
 839 259 l 1
 979 825 l 1
 1187 825 l 1
 953 0 l 1
 745 0 l 1
387 941 m 1
 607 1103 l 1
 829 941 l 1
 761 850 l 1
 607 962 l 1
 455 850 l 1
 387 941 l 1
EndSplineSet
EndChar

StartChar: wcircumflex
Encoding: 373 373 309
Width: 1105
Flags: W
HStem: 0 21G<302.279 441.906 660.094 799.721> 493 20G<38 251.025 481.119 620.881 850.975 1064>
LayerCount: 2
Fore
SplineSet
433 0 m 1
 313 0 l 1
 38 513 l 1
 242 513 l 1
 367 236 l 1
 490 513 l 1
 612 513 l 1
 735 236 l 1
 860 513 l 1
 1064 513 l 1
 789 0 l 1
 669 0 l 1
 551 265 l 1
 433 0 l 1
321 649 m 1
 542 811 l 1
 763 649 l 1
 695 558 l 1
 542 670 l 1
 389 558 l 1
 321 649 l 1
EndSplineSet
EndChar

StartChar: Ycircumflex
Encoding: 374 374 310
Width: 868
Flags: W
HStem: 0 21G<339 527> 805 20G<35 274.03 591.97 831>
VStem: 339 188<0 370>
LayerCount: 2
Fore
SplineSet
35 825 m 1
 261 825 l 1
 433 561 l 1
 605 825 l 1
 831 825 l 1
 527 370 l 1
 527 0 l 1
 339 0 l 1
 339 370 l 1
 35 825 l 1
215 962 m 1
 435 1124 l 1
 657 962 l 1
 589 871 l 1
 435 983 l 1
 283 871 l 1
 215 962 l 1
EndSplineSet
EndChar

StartChar: ycircumflex
Encoding: 375 375 311
Width: 750
Flags: W
HStem: -260 21G<103 317.427> 493 20G<37 251.875 496.722 710>
LayerCount: 2
Fore
SplineSet
506 513 m 1
 710 513 l 1
 307 -260 l 1
 103 -260 l 1
 280 80 l 1
 37 513 l 1
 241 513 l 1
 384 250 l 1
 506 513 l 1
152 662 m 1
 373 824 l 1
 594 662 l 1
 526 571 l 1
 373 683 l 1
 220 571 l 1
 152 662 l 1
EndSplineSet
EndChar

StartChar: Ydieresis
Encoding: 376 376 312
Width: 868
Flags: W
HStem: 0 21G<339 527> 805 20G<35 274.03 591.97 831> 919 184<254.401 371.599 492.401 609.599>
VStem: 221 184<952.401 1069.6> 339 188<0 370> 459 184<952.401 1069.6>
LayerCount: 2
Fore
SplineSet
35 825 m 1xe8
 261 825 l 1
 433 561 l 1
 605 825 l 1
 831 825 l 1
 527 370 l 1
 527 0 l 1
 339 0 l 1
 339 370 l 1
 35 825 l 1xe8
551 1103 m 0
 602 1103 643 1062 643 1011 c 0
 643 960 602 919 551 919 c 0
 500 919 459 960 459 1011 c 0xe4
 459 1062 500 1103 551 1103 c 0
313 1103 m 0
 364 1103 405 1062 405 1011 c 0
 405 960 364 919 313 919 c 0
 262 919 221 960 221 1011 c 0xf0
 221 1062 262 1103 313 1103 c 0
EndSplineSet
EndChar

StartChar: Zacute
Encoding: 377 377 313
Width: 814
Flags: W
HStem: 0 165<366 748> 660 165<96 446>
LayerCount: 2
Fore
SplineSet
775 825 m 1
 366 165 l 1
 748 165 l 1
 748 0 l 1
 38 0 l 1
 446 660 l 1
 96 660 l 1
 96 825 l 1
 775 825 l 1
259 976 m 1
 462 1152 l 1
 553 1037 l 1
 315 899 l 1
 259 976 l 1
EndSplineSet
EndChar

StartChar: zacute
Encoding: 378 378 314
Width: 630
Flags: W
HStem: 0 135<335 569> 378 135<79 291> 820 20G<402.045 441>
LayerCount: 2
Fore
SplineSet
589 513 m 1
 335 135 l 1
 569 135 l 1
 569 0 l 1
 37 0 l 1
 291 378 l 1
 79 378 l 1
 79 513 l 1
 589 513 l 1
223 664 m 1
 425 840 l 1
 517 725 l 1
 279 587 l 1
 223 664 l 1
EndSplineSet
EndChar

StartChar: Zdotaccent
Encoding: 379 379 315
Width: 814
Flags: W
HStem: 0 165<366 748> 660 165<96 446> 919 184<347.401 464.599>
VStem: 314 184<952.401 1069.6>
LayerCount: 2
Fore
SplineSet
775 825 m 1
 366 165 l 1
 748 165 l 1
 748 0 l 1
 38 0 l 1
 446 660 l 1
 96 660 l 1
 96 825 l 1
 775 825 l 1
406 1103 m 0
 457 1103 498 1062 498 1011 c 0
 498 960 457 919 406 919 c 0
 355 919 314 960 314 1011 c 0
 314 1062 355 1103 406 1103 c 0
EndSplineSet
EndChar

StartChar: zdotaccent
Encoding: 380 380 316
Width: 630
Flags: W
HStem: 0 135<334 568> 378 135<79 291> 607 184<253.401 370.599>
VStem: 220 184<640.401 757.599>
LayerCount: 2
Fore
SplineSet
588 513 m 1
 334 135 l 1
 568 135 l 1
 568 0 l 1
 37 0 l 1
 291 378 l 1
 79 378 l 1
 79 513 l 1
 588 513 l 1
312 791 m 0
 363 791 404 750 404 699 c 0
 404 648 363 607 312 607 c 0
 261 607 220 648 220 699 c 0
 220 750 261 791 312 791 c 0
EndSplineSet
EndChar

StartChar: Zcaron
Encoding: 381 381 317
Width: 814
Flags: W
HStem: 0 165<366 748> 660 165<96 446>
LayerCount: 2
Fore
SplineSet
775 825 m 1
 366 165 l 1
 748 165 l 1
 748 0 l 1
 38 0 l 1
 446 660 l 1
 96 660 l 1
 96 825 l 1
 775 825 l 1
253 1152 m 1
 406 1040 l 1
 559 1152 l 1
 627 1061 l 1
 406 899 l 1
 185 1061 l 1
 253 1152 l 1
EndSplineSet
EndChar

StartChar: zcaron
Encoding: 382 382 318
Width: 630
Flags: W
HStem: 0 135<335 569> 378 135<79 291> 820 20G<146.055 188.143 439.5 481.945>
LayerCount: 2
Fore
SplineSet
589 513 m 1
 335 135 l 1
 569 135 l 1
 569 0 l 1
 37 0 l 1
 291 378 l 1
 79 378 l 1
 79 513 l 1
 589 513 l 1
161 840 m 1
 313 728 l 1
 467 840 l 1
 535 749 l 1
 313 587 l 1
 93 749 l 1
 161 840 l 1
EndSplineSet
EndChar

StartChar: longs
Encoding: 383 383 319
Width: 627
Flags: W
HStem: 0 21G<176 353> 468 135<42 176> 740 120<353 584>
VStem: 176 177<0 468 603 740>
LayerCount: 2
Fore
SplineSet
584 860 m 1
 584 740 l 1
 353 740 l 1
 353 0 l 1
 176 0 l 1
 176 468 l 1
 42 468 l 1
 42 603 l 1
 176 603 l 1
 176 860 l 1
 584 860 l 1
EndSplineSet
EndChar

StartChar: uni0180
Encoding: 384 384 320
Width: 768
Flags: W
HStem: -15 151<342.96 482.443> 0 21G<121 200.077> 377 151<342.828 479.929> 628 114<47 121 298 423>
VStem: 121 175<181.699 331.301 526 628 742 850> 121 76<0 51.6898> 533 188<186.537 325.882>
LayerCount: 2
Fore
SplineSet
533 256 m 0xba
 533 327 480 377 413 377 c 0
 355 377 307 339 296 282 c 1
 296 231 l 1
 306 174 353 136 413 136 c 0
 485 136 533 186 533 256 c 0xba
298 742 m 1
 423 742 l 1
 423 628 l 1
 297 628 l 1
 297 526 l 1
 366 530 436 528 466 528 c 0
 616 528 721 406 721 256 c 0
 721 106 616 -15 466 -15 c 0xba
 336 -15 256 13 205 52 c 1
 197 46 197 0 197 0 c 1
 121 0 l 1x76
 121 628 l 1
 47 628 l 1
 47 742 l 1
 121 742 l 1
 121 850 l 1
 298 850 l 1
 298 742 l 1
EndSplineSet
EndChar

StartChar: uni0181
Encoding: 385 385 321
Width: 745
Flags: W
HStem: 0 145<299 455.212> 340 162<299 406.875> 680 145<299 406.079>
VStem: 111 188<145 340 502 510> 439 182<532.232 650.796> 496 198<179.319 303.447>
LayerCount: 2
Fore
SplineSet
299 145 m 1xf4
 358 145 l 2
 447 145 496 172 496 237 c 0
 496 313 447 340 358 340 c 2
 299 340 l 1
 299 145 l 1xf4
299 502 m 1
 314 502 l 2
 395 502 439 527 439 596 c 0xf8
 439 655 396 680 314 680 c 2
 299 680 l 1
 299 502 l 1
111 825 m 1
 367 825 l 2
 509 825 621 772 621 615 c 0xf8
 621 539 588 474 518 438 c 1
 621 420 694 363 694 230 c 0xf4
 694 94 595 0 424 0 c 2
 111 0 l 1
 111 510 l 1
 37 635 l 1
 111 825 l 1
EndSplineSet
EndChar

StartChar: uni0182
Encoding: 386 386 322
Width: 698
Flags: W
HStem: 0 150<250 399.963> 369 150<250 399.963> 740 120<250 448>
VStem: 62 188<150 369 519 740> 447 198<194.231 323.023>
LayerCount: 2
Fore
SplineSet
250 369 m 1
 250 150 l 1
 303 150 l 2
 377 150 447 175 447 260 c 0
 447 344 377 369 303 369 c 2
 250 369 l 1
62 860 m 1
 448 860 l 1
 448 740 l 1
 250 740 l 1
 250 519 l 1
 363 519 l 2
 524 519 645 424 645 254 c 0
 645 83 524 0 363 0 c 2
 62 0 l 1
 62 860 l 1
EndSplineSet
EndChar

StartChar: uni0183
Encoding: 387 387 323
Width: 714
Flags: W
HStem: -15 151<278.96 418.443> 0 21G<57 136.077> 377 151<278.828 415.929> 740 120<234 415>
VStem: 57 175<181.699 331.301 526 740> 57 76<0 51.6898> 469 188<186.537 325.882>
LayerCount: 2
Fore
SplineSet
469 256 m 0xba
 469 327 416 377 349 377 c 0
 291 377 243 339 232 282 c 1
 232 231 l 1
 242 174 289 136 349 136 c 0
 421 136 469 186 469 256 c 0xba
57 0 m 1x76
 57 860 l 1
 450 860 l 1
 415 740 l 1
 234 740 l 1
 233 526 l 1
 302 530 372 528 402 528 c 0
 552 528 657 406 657 256 c 0
 657 106 552 -15 402 -15 c 0xb6
 272 -15 192 13 141 52 c 1
 133 46 133 0 133 0 c 1
 57 0 l 1x76
EndSplineSet
EndChar

StartChar: uni0184
Encoding: 388 388 324
Width: 750
Flags: W
HStem: 0 150<301 451.963> 369 150<301 451.963> 805 20G<105 301>
VStem: 113 188<150 369> 499 198<194.231 323.023>
LayerCount: 2
Fore
SplineSet
301 369 m 1
 301 150 l 1
 355 150 l 2
 429 150 499 175 499 260 c 0
 499 344 429 369 355 369 c 2
 301 369 l 1
113 0 m 1
 113 510 l 1
 37 635 l 1
 113 825 l 1
 301 825 l 1
 301 519 l 1
 415 519 l 2
 576 519 697 424 697 254 c 0
 697 83 576 0 415 0 c 2
 113 0 l 1
EndSplineSet
EndChar

StartChar: uni0185
Encoding: 389 389 325
Width: 766
Flags: W
HStem: -15 151<342.96 482.443> 0 21G<121 200.077> 377 151<342.828 479.929>
VStem: 121 175<181.699 331.301> 121 76<0 51.6898> 533 188<186.537 325.882>
LayerCount: 2
Fore
SplineSet
533 256 m 0xb4
 533 327 480 377 413 377 c 0
 355 377 307 339 296 282 c 1
 296 231 l 1
 306 174 353 136 413 136 c 0
 485 136 533 186 533 256 c 0xb4
121 501 m 1x6c
 45 624 l 1
 121 850 l 1
 298 850 l 1
 297 526 l 1
 366 530 436 528 466 528 c 0
 616 528 721 406 721 256 c 0
 721 106 616 -15 466 -15 c 0xac
 336 -15 256 13 205 52 c 1
 197 46 197 0 197 0 c 1
 121 0 l 1
 121 501 l 1x6c
EndSplineSet
EndChar

StartChar: uni0186
Encoding: 390 390 326
Width: 783
Flags: W
HStem: -15 185<128.728 369.932> 655 185<128.728 370.076>
VStem: 527 204<316.166 507.757>
LayerCount: 2
Fore
SplineSet
45 25 m 1
 85 210 l 1
 85 210 159 170 255 170 c 0
 444 170 527 302 527 413 c 0
 527 523 444 655 255 655 c 0
 159 655 85 615 85 615 c 1
 45 800 l 1
 45 800 104 840 283 840 c 0
 517 840 731 648 731 411 c 0
 731 175 516 -15 283 -15 c 0
 104 -15 45 25 45 25 c 1
EndSplineSet
EndChar

StartChar: uni0187
Encoding: 391 391 327
Width: 890
Flags: W
HStem: -15 185<408.068 649.272> 655 185<407.924 649.272>
VStem: 47 204<316.166 507.757>
LayerCount: 2
Fore
SplineSet
733 25 m 1
 733 25 674 -15 495 -15 c 0
 262 -15 47 175 47 411 c 0
 47 648 261 840 495 840 c 0
 674 840 733 800 733 800 c 1
 785 860 827 885 848 864 c 1
 848 774 l 1
 836 795 782 818 723 756 c 1
 693 615 l 1
 693 615 619 655 523 655 c 0
 334 655 251 523 251 413 c 0
 251 302 334 170 523 170 c 0
 619 170 693 210 693 210 c 1
 733 25 l 1
EndSplineSet
EndChar

StartChar: uni0188
Encoding: 392 392 328
Width: 672
Flags: W
HStem: -15 145<292.374 451.309> 383 145<292.259 449.899>
VStem: 50 188<186.422 325.466>
LayerCount: 2
Fore
SplineSet
506 480 m 1
 506 480 601 565 622 544 c 1
 622 454 l 1
 611 473 549 497 492 451 c 1
 446 359 l 1
 446 359 413 383 360 383 c 0
 293 383 238 327 238 257 c 0
 238 186 293 130 360 130 c 0
 413 130 446 154 446 154 c 1
 506 31 l 1
 506 31 448 -15 334 -15 c 0
 186 -15 50 105 50 255 c 0
 50 406 185 528 334 528 c 0
 448 528 506 480 506 480 c 1
EndSplineSet
EndChar

StartChar: uni0189
Encoding: 393 393 329
Width: 835
Flags: W
HStem: 0 168<316 449.575> 336 153<46 128 316 425> 657 168<316 449.575>
VStem: 128 188<168 336 489 657> 582 201<293.486 531.414>
CounterMasks: 1 e0
LayerCount: 2
Fore
SplineSet
128 489 m 1
 128 825 l 1
 367 825 l 2
 593 825 783 653 783 413 c 0
 783 172 594 0 367 0 c 2
 128 0 l 1
 128 336 l 1
 46 336 l 1
 46 489 l 1
 128 489 l 1
582 412 m 0
 582 556 519 657 316 657 c 1
 316 489 l 1
 425 489 l 1
 425 336 l 1
 316 336 l 1
 316 168 l 1
 519 168 582 268 582 412 c 0
EndSplineSet
EndChar

StartChar: uni018A
Encoding: 394 394 330
Width: 839
Flags: W
HStem: 0 168<320 453.575> 657 168<320 453.575>
VStem: 132 188<168 490> 586 201<293.486 531.414>
LayerCount: 2
Fore
SplineSet
586 412 m 0
 586 556 523 657 320 657 c 1
 320 168 l 1
 523 168 586 268 586 412 c 0
132 825 m 1
 371 825 l 2
 597 825 787 653 787 413 c 0
 787 172 598 0 371 0 c 2
 132 0 l 1
 132 490 l 1
 36 615 l 1
 132 825 l 1
EndSplineSet
EndChar

StartChar: uni018B
Encoding: 395 395 331
Width: 696
Flags: W
HStem: 0 150<295.037 444> 369 150<295.037 444> 740 120<246 444>
VStem: 50 198<194.231 323.023> 444 188<150 369 519 740>
LayerCount: 2
Fore
SplineSet
444 369 m 1
 392 369 l 2
 318 369 248 344 248 260 c 0
 248 175 318 150 392 150 c 2
 444 150 l 1
 444 369 l 1
632 860 m 1
 632 0 l 1
 332 0 l 2
 171 0 50 83 50 254 c 0
 50 424 171 519 332 519 c 2
 444 519 l 1
 444 740 l 1
 246 740 l 1
 246 860 l 1
 632 860 l 1
EndSplineSet
EndChar

StartChar: uni018C
Encoding: 396 396 332
Width: 714
Flags: W
HStem: -15 151<295.557 435.04> 0 21G<577.923 657> 377 151<298.071 435.172> 740 120<299 480>
VStem: 57 188<186.537 325.882> 482 175<181.699 331.301 526 740> 581 76<0 51.6898>
LayerCount: 2
Fore
SplineSet
245 256 m 0xbc
 245 186 293 136 365 136 c 0
 425 136 472 174 482 231 c 1
 482 282 l 1
 471 339 423 377 365 377 c 0
 298 377 245 327 245 256 c 0xbc
657 0 m 1x7a
 581 0 l 1x7a
 581 0 581 46 573 52 c 1
 522 13 442 -15 312 -15 c 0xba
 162 -15 57 106 57 256 c 0
 57 406 162 528 312 528 c 0
 342 528 412 530 481 526 c 1
 480 740 l 1
 299 740 l 1
 264 860 l 1
 657 860 l 1
 657 0 l 1x7a
EndSplineSet
EndChar

StartChar: uni018D
Encoding: 397 397 333
Width: 710
Flags: W
HStem: 39 151<288.557 428.613> 431 151<289.644 426.819>
VStem: 50 188<240.537 379.882> 473 177<-37.2009 91 234.338 386.469>
LayerCount: 2
Fore
SplineSet
238 310 m 0
 238 240 286 190 358 190 c 0
 427 190 477 240 477 310 c 0
 477 381 424 431 358 431 c 0
 291 431 238 381 238 310 c 0
650 391 m 1
 650 40 l 2
 650 -132 494 -261 320 -275 c 0
 294 -277 194 -261 163 -246 c 1
 188 -104 l 1
 261 -124 275 -133 351 -120 c 0
 422 -108 473 -38 473 53 c 2
 473 91 l 1
 435 49 375 39 305 39 c 0
 155 39 50 160 50 310 c 0
 50 460 155 582 305 582 c 0
 442 582 623 546 650 391 c 1
EndSplineSet
EndChar

StartChar: uni018E
Encoding: 398 398 334
Width: 590
Flags: W
HStem: 0 165<54 338> 331 165<66 338> 660 165<54 338>
VStem: 338 188<165 331 496 660>
LayerCount: 2
Fore
SplineSet
54 825 m 1
 526 825 l 1
 526 0 l 1
 54 0 l 1
 54 165 l 1
 338 165 l 1
 338 331 l 1
 66 331 l 1
 66 496 l 1
 338 496 l 1
 338 660 l 1
 54 660 l 1
 54 825 l 1
EndSplineSet
EndChar

StartChar: uni018F
Encoding: 399 399 335
Width: 798
Flags: W
HStem: -15 144<319.886 454.039> 249 112<264 508>
LayerCount: 2
Fore
SplineSet
508 249 m 1
 264 249 l 1
 274 181 320 129 385 129 c 0
 461 129 504 190 508 249 c 1
219 429 m 1
 59 496 l 1
 131 617 250 664 392 664 c 0
 586 664 744 511 744 325 c 0
 744 137 586 -15 392 -15 c 0
 197 -15 48 122 48 361 c 1
 514 361 l 1
 514 469 360 570 219 429 c 1
EndSplineSet
EndChar

StartChar: uni0190
Encoding: 400 400 336
Width: 705
Flags: W
HStem: -15 162<274.856 430.424> 371 123<300.07 391> 689 151<291.86 422.542>
LayerCount: 2
Fore
SplineSet
355 147 m 0
 479 147 490 273 490 273 c 1
 664 188 l 1
 664 188 608 -15 354 -15 c 0
 177 -15 48 98 48 256 c 0
 48 343 89 406 153 445 c 1
 108 480 80 532 80 600 c 0
 80 740 194 840 351 840 c 0
 582 840 624 659 624 659 c 1
 476 587 l 1
 476 587 457 689 353 689 c 0
 231 689 184 494 391 494 c 1
 391 371 l 1
 134 379 180 147 355 147 c 0
EndSplineSet
EndChar

StartChar: uni0191
Encoding: 401 401 337
Width: 653
Flags: W
HStem: 331 165<315 583> 660 165<315 605>
VStem: 127 188<-29.7516 331 496 660>
LayerCount: 2
Fore
SplineSet
605 825 m 1
 605 660 l 1
 315 660 l 1
 315 496 l 1
 583 496 l 1
 583 331 l 1
 315 331 l 1
 315 85 l 2
 315 -37 254 -240 109 -240 c 0
 78 -240 13 -112 40 -98 c 0
 111 -60 121 0 127 85 c 1
 127 825 l 1
 605 825 l 1
EndSplineSet
EndChar

StartChar: florin
Encoding: 402 402 338
Width: 657
Flags: W
HStem: 296 150<201 233.628 439 541>
LayerCount: 2
Fore
SplineSet
415 296 m 1
 440 125 104 -131 35 -151 c 1
 59 8 l 1
 129 56 244 204 233 296 c 1
 159 296 l 1
 201 446 l 1
 257 446 l 1
 257 548 471 768 615 755 c 1
 589 596 l 1
 568 642 429 515 439 446 c 1
 583 446 l 1
 541 296 l 1
 415 296 l 1
EndSplineSet
EndChar

StartChar: uni0194
Encoding: 404 404 339
Width: 938
Flags: W
HStem: 0 120<352 575> 805 20G<88 325.511 602.489 850>
LayerCount: 2
Fore
SplineSet
902 0 m 1
 36 0 l 1
 348 444 l 1
 88 825 l 1
 312 825 l 1
 464 600 l 1
 616 825 l 1
 850 825 l 1
 580 444 l 1
 902 0 l 1
575 120 m 1
 463 281 l 1
 352 120 l 1
 575 120 l 1
EndSplineSet
EndChar

StartChar: uni0195
Encoding: 405 405 340
Width: 1054
Flags: W
HStem: -148 144<647.336 782.832> 0 21G<62 239> 390 138<302.861 401.575>
VStem: 62 177<0 346.049 459 860> 437 177<33.2617 351.126> 816 177<33.2617 528>
LayerCount: 2
Fore
SplineSet
239 860 m 1
 239 459 l 1
 279 499 332 528 388 528 c 0
 482 528 613 481 613 338 c 2
 614 136 l 2
 614 35 641 -4 715 -4 c 0
 789 -4 817 35 816 136 c 2
 816 528 l 1
 993 528 l 1
 993 93 l 2
 994 -79 907 -148 715 -148 c 0
 523 -148 437 -79 437 93 c 2
 436 290 l 2
 436 341 401 390 344 390 c 0
 291 390 239 341 239 290 c 2
 239 0 l 1
 62 0 l 1
 62 860 l 1
 239 860 l 1
EndSplineSet
EndChar

StartChar: uni0196
Encoding: 406 406 341
Width: 385
Flags: W
HStem: 0 21G<253 309.5>
VStem: 61 175<153.703 940>
LayerCount: 2
Fore
SplineSet
61 199 m 2
 59 940 l 1
 236 940 l 1
 236 191 l 2
 237 140 330 113 345 113 c 1
 345 113 324 21 295 0 c 1
 211 0 172 -4 153 3 c 0
 85 29 65 109 61 199 c 2
EndSplineSet
EndChar

StartChar: uni0197
Encoding: 407 407 342
Width: 583
Flags: W
HStem: 0 21G<194 382> 350 116<46 194 382 532> 805 20G<194 382>
VStem: 194 188<0 350 466 825>
LayerCount: 2
Fore
SplineSet
382 350 m 1
 382 0 l 1
 194 0 l 1
 194 350 l 1
 46 350 l 1
 46 466 l 1
 194 466 l 1
 194 825 l 1
 382 825 l 1
 382 466 l 1
 532 466 l 1
 532 350 l 1
 382 350 l 1
EndSplineSet
EndChar

StartChar: uni0198
Encoding: 408 408 343
Width: 847
Flags: W
HStem: 0 21G<59 247 536.489 811> 707 118<279.117 338>
VStem: 59 188<0 674.011>
LayerCount: 2
Fore
SplineSet
59 0 m 1
 59 597 l 2
 59 906 336 825 462 825 c 1
 338 707 l 1
 289 707 247 702 247 560 c 2
 247 419 l 1
 531 825 l 1
 759 825 l 1
 461 419 l 1
 811 0 l 1
 551 0 l 1
 247 419 l 1
 247 0 l 1
 59 0 l 1
EndSplineSet
EndChar

StartChar: uni0199
Encoding: 409 409 344
Width: 707
Flags: W
HStem: 0 21G<61 238 423 671> 493 20G<397 647> 801 124<261.481 369>
VStem: 61 177<0 205 334 779.695>
LayerCount: 2
Fore
SplineSet
647 513 m 1
 403 268 l 1
 671 0 l 1
 443 0 l 1
 238 205 l 1
 238 0 l 1
 61 0 l 1
 61 752 l 2
 61 823 156 922 369 925 c 1
 405 801 l 1
 328 828 238 786 238 752 c 2
 238 334 l 1
 417 513 l 1
 647 513 l 1
EndSplineSet
EndChar

StartChar: uni019A
Encoding: 410 410 345
Width: 445
Flags: W
HStem: 0 21G<269 349.5> 391 116<45 129 307 387> 805 20G<128 304.126>
VStem: 130 177<187.331 391 507 825>
LayerCount: 2
Fore
SplineSet
387 507 m 1
 387 391 l 1
 307 391 l 1
 308 234 l 2
 308 169 380 164 391 163 c 0
 421 161 365 0 334 0 c 0
 204 0 130 86 130 225 c 2
 130 391 l 1
 45 391 l 1
 45 507 l 1
 129 507 l 1
 128 825 l 1
 304 825 l 1
 306 507 l 1
 387 507 l 1
EndSplineSet
EndChar

StartChar: uni019B
Encoding: 411 411 346
Width: 816
Flags: W
LayerCount: 2
Fore
SplineSet
574 2 m 1
 452 265 l 1
 309 2 l 1
 105 2 l 1
 348 435 l 1
 313 503 l 1
 101 391 l 1
 39 508 l 1
 251 620 l 1
 171 775 l 1
 375 775 l 1
 411 705 l 1
 609 809 l 1
 671 692 l 1
 473 587 l 1
 778 2 l 1
 574 2 l 1
EndSplineSet
EndChar

StartChar: uni019C
Encoding: 412 412 347
Width: 996
Flags: W
HStem: 0 21G<112.206 321.689 672.311 881.794> 805 20G<40 229.595 764.405 954>
LayerCount: 2
Fore
SplineSet
228 825 m 1
 267 336 l 1
 272 336 l 1
 441 820 l 1
 553 820 l 1
 722 336 l 1
 727 336 l 1
 766 825 l 1
 954 825 l 1
 880 0 l 1
 680 0 l 1
 497 476 l 1
 314 0 l 1
 114 0 l 1
 40 825 l 1
 228 825 l 1
EndSplineSet
EndChar

StartChar: uni019E
Encoding: 414 414 348
Width: 683
Flags: W
HStem: 0 21G<60 244> 384 144<277.575 400.505> 500 20G<60 200>
VStem: 60 184<0 349.74> 446 177<-171 165.987>
LayerCount: 2
Fore
SplineSet
623 -171 m 1xd8
 446 -171 l 1
 446 299 446 384 346 384 c 0xd8
 272 384 244 345 244 244 c 2
 244 0 l 1
 60 0 l 1
 60 520 l 1
 200 520 l 1xb8
 200 491 l 1
 234 514 281 528 346 528 c 0
 538 528 623 459 623 287 c 2
 623 -171 l 1xd8
EndSplineSet
EndChar

StartChar: uni019F
Encoding: 415 415 349
Width: 930
Flags: W
HStem: -15 198<376.385 549.478> 363 96<257 668> 642 198<375.946 550.017>
LayerCount: 2
Fore
SplineSet
47 413 m 0
 47 645 231 840 463 840 c 0
 695 840 878 645 878 413 c 0
 878 181 695 -15 463 -15 c 0
 231 -15 47 181 47 413 c 0
256 459 m 1
 669 459 l 1
 650 562 566 642 463 642 c 0
 360 642 276 562 256 459 c 1
668 363 m 1
 257 363 l 1
 278 261 361 183 463 183 c 0
 565 183 647 261 668 363 c 1
EndSplineSet
EndChar

StartChar: uni01A4
Encoding: 420 420 350
Width: 836
Flags: W
HStem: 0 21G<206 394> 306 150<394 543.963> 675 150<394 543.963>
VStem: 206 188<0 306 456 634.351> 591 198<501.977 630.769>
LayerCount: 2
Fore
SplineSet
206 633 m 1
 141 645 127 581 109 549 c 1
 40 614 l 1
 26 680 113 816 206 825 c 1
 507 825 l 2
 668 825 789 742 789 571 c 0
 789 401 668 306 507 306 c 2
 394 306 l 1
 394 0 l 1
 206 0 l 1
 206 633 l 1
394 456 m 1
 447 456 l 2
 521 456 591 481 591 565 c 0
 591 650 521 675 447 675 c 2
 394 675 l 1
 394 456 l 1
EndSplineSet
EndChar

StartChar: uni01A7
Encoding: 423 423 351
Width: 708
Flags: W
VStem: 47 206<195.904 289.889> 413 184<561.323 638.491>
LayerCount: 2
Fore
SplineSet
575 252 m 1
 669 94 l 1
 329 -145 47 54 47 251 c 0
 47 481 413 505 413 595 c 0
 413 664 270 719 147 612 c 1
 71 762 l 1
 403 950 597 765 597 588 c 0
 597 399 253 371 253 240 c 0
 253 117 465 175 575 252 c 1
EndSplineSet
EndChar

StartChar: uni01A8
Encoding: 424 424 352
Width: 529
Flags: W
VStem: 47 187<125.703 192.195>
LayerCount: 2
Fore
SplineSet
417 175 m 1
 489 54 l 1
 302 -87 47 9 47 160 c 0
 47 283 283 311 283 373 c 0
 283 397 251 434 115 372 c 1
 57 488 l 1
 312 602 453 460 453 363 c 0
 453 261 234 231 234 153 c 0
 234 119 297 85 417 175 c 1
EndSplineSet
EndChar

StartChar: uni01A9
Encoding: 425 425 353
Width: 601
Flags: W
LayerCount: 2
Fore
SplineSet
549 655 m 1
 256 620 l 1
 256 615 l 1
 418 463 l 1
 418 362 l 1
 256 210 l 1
 256 206 l 1
 549 170 l 1
 549 1 l 1
 54 68 l 1
 54 248 l 1
 212 412 l 1
 54 577 l 1
 54 757 l 1
 549 824 l 1
 549 655 l 1
EndSplineSet
EndChar

StartChar: uni01AC
Encoding: 428 428 354
Width: 761
Flags: W
HStem: 0 21G<239 427> 660 165<43 239 427 610.617>
VStem: 239 188<0 660>
LayerCount: 2
Fore
SplineSet
43 825 m 1
 623 825 l 2
 724 822 760 614 640 506 c 1
 588 566 l 1
 623 617 631 659 555 660 c 2
 427 660 l 1
 427 0 l 1
 239 0 l 1
 239 660 l 1
 43 660 l 1
 43 825 l 1
EndSplineSet
EndChar

StartChar: uni01AD
Encoding: 429 429 355
Width: 515
Flags: W
HStem: -15 159<224.5 386.317> 378 135<46 120 297 405> 655 148<314.495 416>
VStem: 120 177<150.794 378 513 639.312>
LayerCount: 2
Fore
SplineSet
297 513 m 1
 405 513 l 1
 405 378 l 1
 297 378 l 1
 297 215 l 2
 297 167 309 144 337 144 c 0
 360 144 381 160 381 160 c 1
 425 17 l 1
 425 17 368 -15 295 -15 c 0
 154 -15 120 90 120 181 c 2
 120 378 l 1
 46 378 l 1
 46 513 l 1
 120 513 l 1
 120 705 181 803 321 803 c 0
 411 803 478 787 478 787 c 1
 416 655 l 1
 352 655 l 2
 297 655 297 581 297 513 c 1
EndSplineSet
EndChar

StartChar: uni01B1
Encoding: 433 433 356
Width: 1063
Flags: W
HStem: 2 169<462.852 617.967> 655 117<41 175 903 1018>
VStem: 138 173<351.335 603.229> 766 173<351.179 591.135>
LayerCount: 2
Fore
SplineSet
654 772 m 1
 1018 772 l 1
 1019 655 l 1
 903 655 l 1
 921 610 939 540 939 449 c 0
 939 215 759 2 537 2 c 0
 316 2 138 216 138 449 c 0
 138 540 157 610 175 655 c 1
 41 655 l 1
 41 772 l 1
 405 772 l 1
 369 716 311 574 311 478 c 0
 311 289 435 171 539 171 c 0
 642 171 766 289 766 478 c 0
 766 574 701 708 654 772 c 1
EndSplineSet
EndChar

StartChar: uni01B2
Encoding: 434 434 357
Width: 764
Flags: W
HStem: -15 185<295.929 468.202> 805 20G<58 246>
VStem: 58 188<229.657 825>
LayerCount: 2
Fore
SplineSet
593 675 m 1
 702 293 l 2
 757 100 590 -15 380 -15 c 0
 170 -15 58 89 58 293 c 2
 58 825 l 1
 246 825 l 1
 246 348 l 2
 246 210 288 170 380 170 c 0
 472 170 557 220 514 348 c 2
 405 675 l 1
 593 675 l 1
EndSplineSet
EndChar

StartChar: uni01B3
Encoding: 435 435 358
Width: 1009
Flags: W
HStem: 0 21G<340 528> 805 20G<36 275.03>
VStem: 340 188<0 370>
LayerCount: 2
Fore
SplineSet
606 825 m 1
 614 848 938 823 969 731 c 1
 883 588 l 1
 843 647 790 673 736 682 c 1
 528 370 l 1
 528 0 l 1
 340 0 l 1
 340 370 l 1
 36 825 l 1
 262 825 l 1
 434 561 l 1
 606 825 l 1
EndSplineSet
EndChar

StartChar: uni01B4
Encoding: 436 436 359
Width: 885
Flags: W
HStem: -260 21G<105 319.436> 493 20G<39 253.951 499.722 841>
LayerCount: 2
Fore
SplineSet
644 382 m 2
 309 -260 l 1
 105 -260 l 1
 283 80 l 1
 39 513 l 1
 243 513 l 1
 387 250 l 1
 509 513 l 1
 841 513 l 1
 773 380 l 1
 730 444 687 458 644 382 c 2
EndSplineSet
EndChar

StartChar: uni01B5
Encoding: 437 437 360
Width: 814
Flags: W
HStem: 0 165<366 748> 350 116<168 254 553 654> 660 165<96 446>
LayerCount: 2
Fore
SplineSet
481 350 m 1
 366 165 l 1
 748 165 l 1
 748 0 l 1
 38 0 l 1
 254 350 l 1
 168 350 l 1
 168 466 l 1
 326 466 l 1
 446 660 l 1
 96 660 l 1
 96 825 l 1
 775 825 l 1
 553 466 l 1
 654 466 l 1
 654 350 l 1
 481 350 l 1
EndSplineSet
EndChar

StartChar: uni01B6
Encoding: 438 438 361
Width: 633
Flags: W
HStem: 0 135<336 570> 214 87<134 182 447 498> 378 135<81 293>
LayerCount: 2
Fore
SplineSet
389 214 m 1
 336 135 l 1
 570 135 l 1
 570 0 l 1
 39 0 l 1
 182 214 l 1
 134 214 l 1
 134 301 l 1
 241 301 l 1
 293 378 l 1
 81 378 l 1
 81 513 l 1
 590 513 l 1
 447 301 l 1
 498 301 l 1
 498 214 l 1
 389 214 l 1
EndSplineSet
EndChar

StartChar: uni01B7
Encoding: 439 439 362
Width: 707
Flags: W
HStem: -15 162<273.576 429.144> 371 123<313 403.93> 689 151<198 409.721>
LayerCount: 2
Fore
SplineSet
349 147 m 0
 524 147 570 379 313 371 c 1
 313 494 l 1
 520 494 473 689 351 689 c 2
 198 689 l 1
 80 840 l 1
 353 840 l 2
 510 840 624 867 624 600 c 0
 624 532 596 480 551 445 c 1
 615 406 656 343 656 256 c 0
 656 98 527 -15 350 -15 c 0
 96 -15 40 188 40 188 c 1
 214 273 l 1
 214 273 225 147 349 147 c 0
EndSplineSet
EndChar

StartChar: uni01B8
Encoding: 440 440 363
Width: 706
Flags: W
HStem: -15 162<274.856 430.424> 371 123<300.07 391> 689 151<294.279 506>
LayerCount: 2
Fore
SplineSet
355 147 m 0
 479 147 490 273 490 273 c 1
 664 188 l 1
 664 188 608 -15 354 -15 c 0
 177 -15 48 98 48 256 c 0
 48 343 89 406 153 445 c 1
 108 480 80 532 80 600 c 0
 80 867 194 840 351 840 c 2
 624 840 l 1
 506 689 l 1
 353 689 l 2
 231 689 184 494 391 494 c 1
 391 371 l 1
 134 379 180 147 355 147 c 0
EndSplineSet
EndChar

StartChar: uni01B9
Encoding: 441 441 364
Width: 614
Flags: W
HStem: -15 138<234.557 372.969> 313 105<255.137 339> 583 128<251.196 437>
LayerCount: 2
Fore
SplineSet
309 123 m 0
 414 123 423 230 423 230 c 1
 571 158 l 1
 571 158 524 -15 308 -15 c 0
 158 -15 48 81 48 215 c 0
 48 289 83 343 137 376 c 1
 99 406 75 450 75 508 c 0
 75 735 172 711 305 711 c 2
 537 711 l 1
 437 583 l 1
 307 583 l 2
 203 583 163 418 339 418 c 1
 339 313 l 1
 121 320 161 123 309 123 c 0
EndSplineSet
EndChar

StartChar: uni01BB
Encoding: 443 443 365
Width: 739
Flags: W
HStem: 0 165<379 685> 265 116<91 278 607 679> 524 21G<161.947 221.854> 681 159<297.217 417.11>
VStem: 467 203<477.665 633.989>
LayerCount: 2
Fore
SplineSet
351 681 m 0
 261 681 203 524 203 524 c 1
 47 600 l 1
 47 600 127 840 351 840 c 0
 634 840 670 654 670 550 c 0
 670 492 644 434 607 381 c 1
 679 381 l 1
 679 265 l 1
 504 265 l 1
 439 204 379 165 379 165 c 1
 685 165 l 1
 685 0 l 1
 43 0 l 1
 43 47 l 1
 43 47 165 148 278 265 c 1
 91 265 l 1
 91 381 l 1
 381 381 l 1
 432 445 467 506 467 550 c 0
 467 580 461 681 351 681 c 0
EndSplineSet
EndChar

StartChar: uni01BC
Encoding: 444 444 366
Width: 691
Flags: W
HStem: -15 157<243.169 404.599> 407 138<308 358.684> 660 165<326 611>
LayerCount: 2
Fore
SplineSet
333 142 m 0
 497 142 537 407 237 407 c 0
 168 407 121 392 96 381 c 1
 165 825 l 1
 611 825 l 1
 611 660 l 1
 326 660 l 1
 308 545 l 1
 492 545 639 485 639 256 c 0
 639 98 510 -15 333 -15 c 0
 157 -15 70 80 39 164 c 1
 188 236 l 1
 203 185 247 142 333 142 c 0
EndSplineSet
EndChar

StartChar: uni01BD
Encoding: 445 445 367
Width: 601
Flags: W
HStem: -15 133<211.548 353.993> 344 117<267 316.985> 559 140<282 525>
LayerCount: 2
Fore
SplineSet
288 118 m 0
 427 118 462 344 207 344 c 0
 148 344 108 331 87 322 c 1
 146 699 l 1
 525 699 l 1
 525 559 l 1
 282 559 l 1
 267 461 l 1
 423 461 549 410 549 215 c 0
 549 81 438 -15 288 -15 c 0
 138 -15 65 66 39 137 c 1
 165 198 l 1
 178 155 215 118 288 118 c 0
EndSplineSet
EndChar

StartChar: uni01BE
Encoding: 446 446 368
Width: 643
Flags: W
HStem: 1 157<239.516 358.477> 431 90<121 221 439 508>
VStem: 387 204<183.504 296.172>
LayerCount: 2
Fore
SplineSet
187 261 m 1
 198 218 233 158 305 158 c 0
 350 158 387 192 387 240 c 0
 387 311 330 314 269 353 c 0
 235 375 225 401 222 431 c 1
 121 431 l 1
 121 521 l 1
 221 521 l 1
 221 598 l 1
 387 598 l 1
 387 521 l 1
 508 521 l 1
 508 431 l 1
 439 431 l 1
 526 390 591 332 591 240 c 0
 591 99 457 1 307 1 c 0
 84 1 41 185 41 190 c 1
 187 261 l 1
EndSplineSet
EndChar

StartChar: uni01BF
Encoding: 447 447 369
Width: 590
Flags: W
VStem: 61 124<2 703>
LayerCount: 2
Fore
SplineSet
185 705 m 1
 550 483 l 1
 185 260 l 1
 185 362 l 1
 383 483 l 1
 185 603 l 1
 185 705 l 1
185 705 m 1
 185 2 l 1
 61 2 l 1
 61 703 l 1
 185 705 l 1
EndSplineSet
EndChar

StartChar: uni01C0
Encoding: 448 448 370
Width: 263
Flags: W
HStem: 0 21G<62 199>
VStem: 62 137<0 860>
LayerCount: 2
Fore
SplineSet
62 0 m 1
 62 860 l 1
 199 860 l 1
 199 0 l 1
 62 0 l 1
EndSplineSet
EndChar

StartChar: uni01C1
Encoding: 449 449 371
Width: 493
Flags: W
HStem: 0 21G<62 199 292 429>
VStem: 62 137<0 860> 292 137<0 860>
LayerCount: 2
Fore
SplineSet
62 0 m 1
 62 860 l 1
 199 860 l 1
 199 0 l 1
 62 0 l 1
292 0 m 1
 292 860 l 1
 429 860 l 1
 429 0 l 1
 292 0 l 1
EndSplineSet
EndChar

StartChar: uni01C2
Encoding: 450 450 372
Width: 474
Flags: W
HStem: 0 21G<166 303> 267 116<52 166 303 417> 445 116<52 166 303 417>
VStem: 166 137<0 267 383 445 561 860>
LayerCount: 2
Fore
SplineSet
166 445 m 1
 52 445 l 1
 52 561 l 1
 166 561 l 1
 166 860 l 1
 303 860 l 1
 303 561 l 1
 417 561 l 1
 417 445 l 1
 303 445 l 1
 303 383 l 1
 417 383 l 1
 417 267 l 1
 303 267 l 1
 303 0 l 1
 166 0 l 1
 166 267 l 1
 52 267 l 1
 52 383 l 1
 166 383 l 1
 166 445 l 1
EndSplineSet
EndChar

StartChar: uni01C3
Encoding: 451 451 373
Width: 315
Flags: W
HStem: -15 229<90.9896 223.784>
VStem: 43 229<32.9896 165.784> 69 177<687.917 860> 93 129<270 442.083>
LayerCount: 2
Fore
SplineSet
157 214 m 0xc0
 221 214 272 163 272 99 c 0
 272 36 221 -15 157 -15 c 0
 94 -15 43 36 43 99 c 0
 43 163 94 214 157 214 c 0xc0
93 270 m 1x90
 69 860 l 1
 246 860 l 1xa0
 222 270 l 1
 93 270 l 1x90
EndSplineSet
EndChar

StartChar: uni01C4
Encoding: 452 452 374
Width: 1365
Flags: W
HStem: 0 165<250 372.956 918 1300> 660 165<250 372.696 648 998>
VStem: 62 188<168 657> 516 201<293.486 531.414>
LayerCount: 2
Fore
SplineSet
516 412 m 0
 516 556 453 657 250 657 c 1
 250 168 l 1
 453 168 516 268 516 412 c 0
62 825 m 1
 300 825 l 2
 526 825 717 653 717 413 c 0
 717 172 527 0 300 0 c 2
 62 0 l 1
 62 825 l 1
1326 825 m 1
 918 165 l 1
 1300 165 l 1
 1300 0 l 1
 590 0 l 1
 998 660 l 1
 648 660 l 1
 648 825 l 1
 1326 825 l 1
860 1119 m 1
 1013 1007 l 1
 1166 1119 l 1
 1234 1028 l 1
 1013 866 l 1
 792 1028 l 1
 860 1119 l 1
EndSplineSet
EndChar

StartChar: uni01C5
Encoding: 453 453 375
Width: 1220
Flags: W
HStem: 0 168<250 380.15> 0 135<925 1159> 378 135<713.927 882> 657 168<250 380.61>
VStem: 62 188<168 657>
LayerCount: 2
Fore
SplineSet
516 412 m 0xb8
 516 556 453 657 250 657 c 1
 250 168 l 1
 453 168 516 268 516 412 c 0xb8
62 825 m 1
 301 825 l 2
 494 825 661 699 705 513 c 1
 1179 513 l 1
 925 135 l 1
 1159 135 l 1
 1159 0 l 1
 628 0 l 1x78
 882 378 l 1
 716 378 l 1
 699 156 517 0 301 0 c 2xb8
 62 0 l 1x78
 62 825 l 1
779 811 m 1
 933 699 l 1
 1085 811 l 1
 1153 720 l 1
 933 558 l 1
 711 720 l 1
 779 811 l 1
EndSplineSet
EndChar

StartChar: uni01C6
Encoding: 454 454 376
Width: 1180
Flags: W
HStem: -15 151<288.557 428.04> 0 135<871 1105> 377 151<291.071 428.172> 378 135<650 828>
VStem: 50 188<186.537 325.882> 475 175<181.699 331.301 526 850>
LayerCount: 2
Fore
SplineSet
238 256 m 0xac
 238 186 286 136 358 136 c 0
 418 136 465 174 475 231 c 1
 475 282 l 1
 464 339 416 377 358 377 c 0
 291 377 238 327 238 256 c 0xac
1105 0 m 1x5c
 574 0 l 1x5c
 574 0 574 46 566 52 c 1
 515 13 435 -15 305 -15 c 0
 155 -15 50 106 50 256 c 0
 50 406 155 528 305 528 c 0xac
 335 528 405 530 474 526 c 1
 473 850 l 1
 650 850 l 1
 650 513 l 1
 1125 513 l 1
 871 135 l 1
 1105 135 l 1
 1105 0 l 1x5c
650 113 m 1
 828 378 l 1
 650 378 l 1
 650 113 l 1
766 807 m 1
 919 695 l 1
 1072 807 l 1
 1140 716 l 1
 919 554 l 1
 698 716 l 1
 766 807 l 1
EndSplineSet
EndChar

StartChar: uni01C7
Encoding: 455 455 377
Width: 1086
Flags: W
HStem: -15 180<681.151 800.436> 0 165<250 534> 805 20G<62 250 836 1024>
VStem: 62 188<165 825> 836 188<203.518 825>
LayerCount: 2
Fore
SplineSet
250 825 m 1x78
 250 165 l 1
 534 165 l 1
 534 0 l 1
 62 0 l 1
 62 825 l 1
 250 825 l 1x78
1024 825 m 1
 1024 233 l 2
 1024 71 932 -15 767 -15 c 0
 649 -15 574 64 574 64 c 1
 634 221 l 1
 634 221 693 165 741 165 c 0xb8
 795 165 836 198 836 281 c 2
 836 825 l 1
 1024 825 l 1
EndSplineSet
EndChar

StartChar: uni01C8
Encoding: 456 456 378
Width: 805
Flags: W
HStem: -275 160<460.75 623.5> 0 165<250 534> 493 20G<561 738> 620 210<589.172 714.828>
VStem: 62 188<165 825> 547 210<662.172 787.828> 561 177<-104.865 513>
LayerCount: 2
Fore
SplineSet
250 825 m 1xf8
 250 165 l 1
 534 165 l 1
 534 0 l 1
 62 0 l 1
 62 825 l 1
 250 825 l 1xf8
561 513 m 1xfa
 738 513 l 1
 738 -79 l 2
 738 -170 694 -275 553 -275 c 0
 469 -275 437 -254 412 -243 c 1
 467 -100 l 1
 467 -100 490 -115 512 -115 c 0
 542 -115 561 -93 561 -45 c 2
 561 513 l 1xfa
652 830 m 0
 710 830 757 783 757 725 c 0
 757 667 710 620 652 620 c 0
 594 620 547 667 547 725 c 0xfc
 547 783 594 830 652 830 c 0
EndSplineSet
EndChar

StartChar: uni01C9
Encoding: 457 457 379
Width: 529
Flags: W
HStem: -275 160<184.75 347.5> 0 21G<61 238> 493 20G<285 462> 620 210<313.172 438.828>
VStem: 61 177<0 860> 271 210<662.172 787.828> 285 177<-104.865 513>
LayerCount: 2
Fore
SplineSet
61 0 m 1xf8
 61 860 l 1
 238 860 l 1
 238 0 l 1
 61 0 l 1xf8
285 513 m 1xfa
 462 513 l 1
 462 -79 l 2
 462 -170 418 -275 277 -275 c 0
 193 -275 161 -254 136 -243 c 1
 191 -100 l 1
 191 -100 214 -115 236 -115 c 0
 266 -115 285 -93 285 -45 c 2
 285 513 l 1xfa
376 830 m 0
 434 830 481 783 481 725 c 0
 481 667 434 620 376 620 c 0
 318 620 271 667 271 725 c 0xfc
 271 783 318 830 376 830 c 0
EndSplineSet
EndChar

StartChar: uni01CA
Encoding: 458 458 380
Width: 1297
Flags: W
HStem: -15 180<892.151 1011.44> 0 21G<62 250 743.566 768> 805 20G<62 86.2824 579.906 768 1047 1235>
VStem: 62 188<0 424> 578 190<400 825> 1047 188<203.518 825>
LayerCount: 2
Fore
SplineSet
62 0 m 1x7c
 62 825 l 1
 578 400 l 1
 580 825 l 1
 768 825 l 1
 768 0 l 1
 250 424 l 1
 250 0 l 1
 62 0 l 1x7c
1235 825 m 1
 1235 233 l 2
 1235 71 1143 -15 978 -15 c 0
 860 -15 785 64 785 64 c 1
 845 221 l 1
 845 221 904 165 952 165 c 0xbc
 1006 165 1047 198 1047 281 c 2
 1047 825 l 1
 1235 825 l 1
EndSplineSet
EndChar

StartChar: uni01CB
Encoding: 459 459 381
Width: 1056
Flags: W
HStem: -275 160<711.75 874.5> 0 21G<62 250 743.566 768> 493 20G<812 989> 620 210<840.172 965.828>
VStem: 62 188<0 424> 578 190<400 825> 798 210<662.172 787.828> 812 177<-104.865 513>
LayerCount: 2
Fore
SplineSet
62 0 m 1xfc
 62 825 l 1
 578 400 l 1
 580 825 l 1
 768 825 l 1
 768 0 l 1
 250 424 l 1
 250 0 l 1
 62 0 l 1xfc
812 513 m 1xfd
 989 513 l 1
 989 -79 l 2
 989 -170 945 -275 804 -275 c 0
 720 -275 688 -254 663 -243 c 1
 718 -100 l 1
 718 -100 741 -115 763 -115 c 0
 793 -115 812 -93 812 -45 c 2
 812 513 l 1xfd
903 830 m 0
 961 830 1008 783 1008 725 c 0
 1008 667 961 620 903 620 c 0
 845 620 798 667 798 725 c 0xfe
 798 783 845 830 903 830 c 0
EndSplineSet
EndChar

StartChar: uni01CC
Encoding: 460 460 382
Width: 914
Flags: W
HStem: -275 160<569.106 732.5> 0 21G<60 244 446 623> 384 144<277.575 413.462> 500 13G<60 200 670 847> 620 210<698.811 824.466>
VStem: 60 184<0 349.74> 446 177<0 346.738> 656 210<662.172 787.828> 670 177<-104.865 513>
LayerCount: 2
Fore
SplineSet
244 0 m 1xee
 60 0 l 1
 60 520 l 1
 200 520 l 1
 200 491 l 1
 234 514 281 528 346 528 c 0
 538 528 623 459 623 287 c 2
 623 0 l 1
 446 0 l 1
 446 244 l 2
 446 345 420 384 346 384 c 0
 272 384 244 345 244 244 c 2
 244 0 l 1xee
670 513 m 1xde80
 847 513 l 1
 847 -79 l 2
 847 -170 803 -275 662 -275 c 0
 578 -275 547 -254 522 -243 c 1
 576 -100 l 1
 576 -100 600 -115 622 -115 c 0
 652 -115 670 -93 670 -45 c 2
 670 513 l 1xde80
762 830 m 0
 820 830 866 783 866 725 c 0
 866 667 820 620 762 620 c 0
 704 620 656 667 656 725 c 0xcf
 656 783 704 830 762 830 c 0
EndSplineSet
EndChar

StartChar: uni01CD
Encoding: 461 461 383
Width: 918
Flags: W
HStem: 0 21G<39 248.273 669.485 879> 165 165<365 551> 805 20G<362.952 553.097>
LayerCount: 2
Fore
SplineSet
678 1061 m 1
 456 899 l 1
 236 1061 l 1
 304 1152 l 1
 456 1040 l 1
 610 1152 l 1
 678 1061 l 1
545 825 m 1
 879 0 l 1
 677 0 l 1
 615 165 l 1
 301 165 l 1
 241 0 l 1
 39 0 l 1
 371 825 l 1
 545 825 l 1
551 330 m 1
 457 570 l 1
 365 330 l 1
 551 330 l 1
EndSplineSet
EndChar

StartChar: uni01CE
Encoding: 462 462 384
Width: 709
Flags: W
HStem: -15 151<287.058 402.277> 0 21G<473 648> 377 151<288.146 423.195> 820 20G<198.055 240.143 491.5 533.945>
VStem: 49 188<186.537 325.882> 473 175<0 58 180.338 330.189>
LayerCount: 2
Fore
SplineSet
237 256 m 0xbc
 237 186 285 136 357 136 c 0
 426 136 475 186 475 256 c 0
 475 327 423 377 357 377 c 0
 290 377 237 327 237 256 c 0xbc
648 454 m 2
 648 0 l 1
 473 0 l 1x7c
 473 58 l 1
 435 16 373 -15 303 -15 c 0
 153 -15 49 106 49 256 c 0
 49 406 153 528 303 528 c 0
 372 528 648 541 648 454 c 2
587 749 m 1
 365 587 l 1
 145 749 l 1
 213 840 l 1
 365 728 l 1
 519 840 l 1
 587 749 l 1
EndSplineSet
EndChar

StartChar: uni01CF
Encoding: 463 463 385
Width: 511
Flags: W
HStem: 0 21G<154 342> 805 20G<154 342>
VStem: 154 188<0 825>
LayerCount: 2
Fore
SplineSet
342 825 m 1
 342 0 l 1
 154 0 l 1
 154 825 l 1
 342 825 l 1
102 1147 m 1
 255 1035 l 1
 408 1147 l 1
 476 1056 l 1
 255 894 l 1
 34 1056 l 1
 102 1147 l 1
EndSplineSet
EndChar

StartChar: uni01D0
Encoding: 464 464 386
Width: 516
Flags: W
HStem: 0 21G<164 341> 493 20G<164 341> 810 20G<89.0549 131.321 382.679 424.945>
VStem: 164 177<0 513>
LayerCount: 2
Fore
SplineSet
104 830 m 1
 257 718 l 1
 410 830 l 1
 478 739 l 1
 257 577 l 1
 36 739 l 1
 104 830 l 1
164 513 m 1
 341 513 l 1
 341 0 l 1
 164 0 l 1
 164 513 l 1
EndSplineSet
EndChar

StartChar: uni01D1
Encoding: 465 465 387
Width: 930
Flags: W
HStem: -15 198<377.025 548.866> 642 198<377.025 548.866>
VStem: 47 205<315.937 509.94> 673 205<315.937 509.94>
LayerCount: 2
Fore
SplineSet
252 413 m 0
 252 288 345 183 463 183 c 0
 581 183 673 288 673 413 c 0
 673 538 581 642 463 642 c 0
 345 642 252 538 252 413 c 0
47 413 m 0
 47 645 231 840 463 840 c 0
 695 840 878 645 878 413 c 0
 878 181 695 -15 463 -15 c 0
 231 -15 47 181 47 413 c 0
689 1061 m 1
 468 899 l 1
 247 1061 l 1
 315 1152 l 1
 468 1040 l 1
 621 1152 l 1
 689 1061 l 1
EndSplineSet
EndChar

StartChar: uni01D2
Encoding: 466 466 388
Width: 709
Flags: W
HStem: -15 155<283.859 422.891> 373 155<285.078 421.683> 820 20G<185.055 227.5 478.857 520.945>
VStem: 48 182<194.152 318.033> 475 182<194.152 318.033>
LayerCount: 2
Fore
SplineSet
230 256 m 0
 230 194 286 140 353 140 c 0
 420 140 475 194 475 256 c 0
 475 318 420 373 353 373 c 0
 286 373 230 318 230 256 c 0
48 256 m 0
 48 401 187 528 354 528 c 0
 521 528 657 401 657 256 c 0
 657 111 521 -15 354 -15 c 0
 187 -15 48 111 48 256 c 0
574 749 m 1
 354 587 l 1
 132 749 l 1
 200 840 l 1
 354 728 l 1
 506 840 l 1
 574 749 l 1
EndSplineSet
EndChar

StartChar: uni01D3
Encoding: 467 467 389
Width: 761
Flags: W
HStem: -15 185<294.929 463.071> 805 20G<57 245 513 701> 828 21G<355.593 410.16>
VStem: 57 188<229.657 825> 513 188<229.657 825>
LayerCount: 2
Fore
SplineSet
701 825 m 1
 701 293 l 2
 701 89 589 -15 379 -15 c 0
 169 -15 57 89 57 293 c 2
 57 825 l 1
 245 825 l 1
 245 348 l 2
 245 210 287 170 379 170 c 0
 471 170 513 210 513 348 c 2
 513 825 l 1
 701 825 l 1
603 990 m 1
 383 828 l 1
 161 990 l 1
 229 1081 l 1
 383 969 l 1
 535 1081 l 1
 603 990 l 1
EndSplineSet
EndChar

StartChar: uni01D4
Encoding: 468 468 390
Width: 671
Flags: W
HStem: -15 144<266.336 401.664> 493 20G<56 233 435 612>
VStem: 56 177<166.262 513> 435 177<166.262 513>
LayerCount: 2
Fore
SplineSet
233 513 m 1
 233 269 l 2
 233 168 260 129 334 129 c 0
 408 129 435 168 435 269 c 2
 435 513 l 1
 612 513 l 1
 612 226 l 2
 612 54 526 -15 334 -15 c 0
 142 -15 56 54 56 226 c 2
 56 513 l 1
 233 513 l 1
556 705 m 1
 335 543 l 1
 114 705 l 1
 182 796 l 1
 335 684 l 1
 488 796 l 1
 556 705 l 1
EndSplineSet
EndChar

